<?xml version="1.0" encoding="UTF-8"?>
<svg version="1.1" xmlns="http://www.w3.org/2000/svg" width="512" height="512">
<path d="M0 0 C1.03060547 0.54333984 1.03060547 0.54333984 2.08203125 1.09765625 C15.74523679 8.80443566 20.97076288 21.25563561 26.3125 35.3125 C26.82386337 36.64530636 27.33534169 37.97806862 27.84692383 39.31079102 C33.51368285 54.13961172 38.88849472 69.07749688 44.28662109 84.00559998 C47.48869266 92.8593064 50.72851815 101.69494432 54.0625 110.5 C56.63740031 117.302508 59.12241331 124.12599722 61.5 131 C65.44968197 142.41523956 69.72964282 153.70164551 74 165 C76.04552716 170.41521537 78.0873407 175.83181909 80.125 181.25 C80.51313873 182.2816629 80.51313873 182.2816629 80.90911865 183.33416748 C84.26663087 192.26707307 87.52648535 201.22601775 90.62939453 210.25097656 C92.70680358 216.26030575 94.98539679 222.1748784 97.32595825 228.08595276 C99.41393364 233.39734656 101.34041042 238.74925245 103.19921875 244.14453125 C107.101549 255.37586402 111.19820603 266.5324329 115.3125 277.6875 C116.09814735 279.82130948 116.8836253 281.95518135 117.66894531 284.08911133 C119.29705383 288.51276668 120.92588073 292.93615654 122.55517578 297.359375 C126.08256996 306.93776194 129.59927322 316.52007338 133.11706543 326.10198975 C136.40945309 335.06869987 139.70468183 344.03436653 143 353 C143.50107269 354.36336487 143.50107269 354.36336487 144.01226807 355.75427246 C146.19427346 361.69086581 148.37757133 367.62698192 150.5625 373.5625 C150.85025299 374.34432648 151.13800598 375.12615295 151.43447876 375.93167114 C154.89959221 385.34319259 158.39704787 394.74149965 161.9375 404.125 C165.5020289 413.57818879 168.87935433 423.08749896 172.17822266 432.63623047 C173.0188279 435.05415678 173.87234111 437.46714649 174.73046875 439.87890625 C175.14582886 441.04691772 175.14582886 441.04691772 175.56958008 442.23852539 C176.09023189 443.70042226 176.61211967 445.16187979 177.13549805 446.62280273 C181.50514037 458.9184188 181.2817046 470.91421713 176 483 C173.95655929 486.6114274 171.65198396 489.81311481 169 493 C168.46503906 493.64710938 167.93007813 494.29421875 167.37890625 494.9609375 C160.91381004 502.06169065 151.36381783 507.34186571 141.72998047 508.20288086 C124.60957075 508.89064727 113.20513035 506.5946906 100.25 494.75 C93.45604042 487.47647936 89.93146357 477.8536936 86.625 468.625 C85.84961737 466.50757105 85.07356304 464.39038796 84.296875 462.2734375 C83.91337891 461.22124023 83.52988281 460.16904297 83.13476562 459.08496094 C81.43132567 454.45400842 79.65065525 449.85361485 77.875 445.25 C75.05813647 437.90625494 72.41447229 430.51784208 69.85498047 423.08105469 C67.00181862 414.86407602 63.89064667 406.74760406 60.78237915 398.62460327 C57.09777779 388.98866951 53.58766352 379.30912188 50.2421875 369.55078125 C49.15732478 366.20900147 49.15732478 366.20900147 48 364 C2.46 364 -43.08 364 -90 364 C-95.45732908 377.90403477 -95.45732908 377.90403477 -100.5 391.9375 C-103.54201599 400.84626112 -106.80937219 409.66862871 -110.07507324 418.49716187 C-111.53133275 422.43777856 -112.9803672 426.38104579 -114.4296875 430.32421875 C-116.18833569 435.10785662 -117.94924945 439.89063089 -119.71704102 444.67089844 C-120.33093702 446.33136354 -120.94478827 447.99184518 -121.55859375 449.65234375 C-121.85687576 450.45914581 -122.15515778 451.26594788 -122.46247864 452.09719849 C-124.22341817 456.86887694 -125.95387958 461.64991631 -127.66015625 466.44140625 C-128.24724365 468.06719604 -128.24724365 468.06719604 -128.84619141 469.72583008 C-129.54141239 471.65238542 -130.2258757 473.58288131 -130.89599609 475.51831055 C-135.79749111 488.97396667 -145.11840636 499.77935103 -158.02734375 505.97265625 C-168.21596031 509.822485 -183.62237614 509.94377669 -193.83984375 506.10546875 C-206.40487621 499.67526226 -215.67896756 490.22475779 -220.3125 476.875 C-223.71255225 464.85685612 -222.31880819 454.50344263 -218 443 C-217.68321289 442.14615723 -217.36642578 441.29231445 -217.04003906 440.41259766 C-215.53706807 436.36810134 -214.02496985 432.32728744 -212.49487305 428.29296875 C-210.02064121 421.76921209 -207.64637646 415.22194079 -205.375 408.625 C-202.95522528 401.60869483 -200.35522419 394.68824363 -197.62451172 387.78759766 C-195.44312 382.23728942 -193.44288364 376.63783198 -191.5 371 C-189.29785988 364.60986126 -186.98668042 358.28490992 -184.5 352 C-182.17984082 346.12421438 -179.99313723 340.22336553 -177.9375 334.25 C-174.47157294 324.19901674 -170.80455966 314.22422542 -167.125 304.25 C-166.81874695 303.41958191 -166.5124939 302.58916382 -166.19696045 301.73358154 C-162.51966073 291.7677139 -158.81214109 281.81390741 -155.0625 271.875 C-152.55885885 265.23629478 -150.12720597 258.58187658 -147.8125 251.875 C-144.38579909 241.95017394 -140.75812659 232.10063729 -137.125 222.25 C-136.81856567 221.41903809 -136.51213135 220.58807617 -136.19641113 219.73193359 C-132.16737037 208.81288786 -128.09626278 197.9104832 -123.98535156 187.02197266 C-121.38443245 180.10293949 -118.93242586 173.13908412 -116.52172852 166.15185547 C-114.3743824 159.96695076 -112.03326733 153.87464265 -109.62451172 147.78759766 C-107.44312 142.23728942 -105.44288364 136.63783198 -103.5 131 C-101.03888917 123.85838375 -98.40448901 116.81223562 -95.625 109.7890625 C-93.44360891 104.23820124 -91.44305239 98.63832166 -89.5 93 C-87.29786745 86.60988322 -84.98712546 80.28472404 -82.5 74 C-80.07886373 67.87977517 -77.82746095 61.72392712 -75.6875 55.5 C-72.8769507 47.40597257 -69.98911352 39.34237932 -67 31.3125 C-66.60901123 30.22582031 -66.21802246 29.13914063 -65.81518555 28.01953125 C-63.17627403 21.02140855 -59.93299205 15.6114862 -55 10 C-54.43974121 9.34443115 -53.87948242 8.6888623 -53.30224609 8.01342773 C-41.42652624 -5.54575617 -15.46335178 -9.26585912 0 0 Z M-21 175 C-26.83274599 187.59873134 -31.57729636 200.63777195 -36.09082031 213.75634766 C-38.76310394 221.45786321 -41.65410167 229.07293535 -44.5625 236.6875 C-49.20495276 248.84523754 -49.20495276 248.84523754 -53.6875 261.0625 C-53.93121338 261.72789795 -54.17492676 262.3932959 -54.42602539 263.07885742 C-55.56926491 266.3087782 -56 268.50456243 -56 272 C-32.57 272 -9.14 272 15 272 C12.00499654 263.01498963 9.0032558 254.14189486 5.625 245.3125 C2.81817335 237.90676004 0.08240102 230.4869905 -2.5 223 C-5.4477427 214.46072539 -8.59422484 206.00392542 -11.78491211 197.55273438 C-14.61016065 190.06450782 -17.35367348 182.553334 -20 175 C-20.33 175 -20.66 175 -21 175 Z " fill="#000000" transform="translate(277,4)"/>
</svg>
