<?xml version="1.0" encoding="UTF-8"?>
<svg version="1.1" xmlns="http://www.w3.org/2000/svg" width="225" height="225">
<path d="M0 0 C74.25 0 148.5 0 225 0 C225 74.25 225 148.5 225 225 C150.75 225 76.5 225 0 225 C0 150.75 0 76.5 0 0 Z " fill="#F0E8DE" transform="translate(0,0)"/>
<path d="M0 0 C13.84311676 -0.52943304 26.17821387 2.87287696 37.91015625 10.2421875 C38.76609375 10.72816406 39.62203125 11.21414063 40.50390625 11.71484375 C51.00191106 18.37835005 57.96009811 32.00459356 61.13598633 43.68017578 C63.1935592 53.90044229 62.3090797 64.75295813 62.16015625 75.1171875 C62.14005716 77.55857907 62.12181243 79.99998665 62.10546875 82.44140625 C62.06175211 88.37540067 61.9929118 94.30861437 61.91015625 100.2421875 C52.01015625 100.7371875 52.01015625 100.7371875 41.91015625 101.2421875 C41.58015625 117.7421875 41.25015625 134.2421875 40.91015625 151.2421875 C39.92015625 151.2421875 38.93015625 151.2421875 37.91015625 151.2421875 C37.82765625 152.5415625 37.74515625 153.8409375 37.66015625 155.1796875 C37.09470545 160.2849004 35.60305779 164.84997223 32.91015625 169.2421875 C29.6826857 171.39383453 28.70509986 171.51463829 24.97265625 171.4921875 C24.11800781 171.49734375 23.26335937 171.5025 22.3828125 171.5078125 C19.91015625 171.2421875 19.91015625 171.2421875 17.796875 170.109375 C17.17425781 169.82320312 16.55164063 169.53703125 15.91015625 169.2421875 C14.20336739 170.22687338 12.4992766 171.2176944 10.828125 172.26171875 C7.54571929 173.93968989 4.42033476 174.04508277 0.91015625 173.2421875 C-1.95695863 171.82578374 -4.52757262 170.15026175 -7.08984375 168.2421875 C-7.41984375 169.2321875 -7.74984375 170.2221875 -8.08984375 171.2421875 C-12.04984375 171.2421875 -16.00984375 171.2421875 -20.08984375 171.2421875 C-20.41984375 170.2521875 -20.74984375 169.2621875 -21.08984375 168.2421875 C-22.07984375 167.9121875 -23.06984375 167.5821875 -24.08984375 167.2421875 C-25.0390625 165.1328125 -25.0390625 165.1328125 -25.77734375 162.4921875 C-26.02871094 161.63109375 -26.28007813 160.77 -26.5390625 159.8828125 C-27.08737803 157.25400897 -27.19093369 154.91866412 -27.08984375 152.2421875 C-32.34786129 152.56661837 -37.19555074 153.15237365 -42.21484375 154.8046875 C-46.70805848 156.269248 -50.38384177 156.50363205 -55.08984375 156.2421875 C-55.08984375 156.9021875 -55.08984375 157.5621875 -55.08984375 158.2421875 C-56.05921875 158.6959375 -57.02859375 159.1496875 -58.02734375 159.6171875 C-61.16063957 160.90004971 -61.16063957 160.90004971 -62.08984375 163.2421875 C-63.07984375 163.2421875 -64.06984375 163.2421875 -65.08984375 163.2421875 C-65.74984375 164.8921875 -66.40984375 166.5421875 -67.08984375 168.2421875 C-67.74984375 168.2421875 -68.40984375 168.2421875 -69.08984375 168.2421875 C-69.08984375 171.8721875 -69.08984375 175.5021875 -69.08984375 179.2421875 C-73.08984375 178.2421875 -73.08984375 178.2421875 -74.3984375 176.5625 C-74.77097656 175.83804688 -75.14351562 175.11359375 -75.52734375 174.3671875 C-75.94886719 173.54863281 -76.37039062 172.73007813 -76.8046875 171.88671875 C-77.22878906 171.01402344 -77.65289062 170.14132813 -78.08984375 169.2421875 C-78.50363281 168.40042969 -78.91742188 167.55867187 -79.34375 166.69140625 C-87.13470113 150.20585136 -90.48845684 135.35549173 -90.46484375 117.1171875 C-90.46463226 116.43853638 -90.46442078 115.75988525 -90.46420288 115.06066895 C-90.41578731 99.45662884 -88.22756881 86.24044442 -81.08984375 72.2421875 C-80.48006011 70.76532755 -79.87574641 69.2861954 -79.27734375 67.8046875 C-76.65069047 61.82715968 -72.79760162 56.58713716 -69.08984375 51.2421875 C-68.42984375 50.2521875 -67.76984375 49.2621875 -67.08984375 48.2421875 C-66.42984375 48.2421875 -65.76984375 48.2421875 -65.08984375 48.2421875 C-64.85265625 47.68015625 -64.61546875 47.118125 -64.37109375 46.5390625 C-62.80036678 43.72324708 -60.87512911 41.76263334 -58.58984375 39.4921875 C-57.79578125 38.69296875 -57.00171875 37.89375 -56.18359375 37.0703125 C-54.08984375 35.2421875 -54.08984375 35.2421875 -52.08984375 35.2421875 C-52.08984375 34.5821875 -52.08984375 33.9221875 -52.08984375 33.2421875 C-50.5859375 32.3046875 -50.5859375 32.3046875 -48.52734375 31.2421875 C-44.91685283 29.09489553 -42.94788536 26.93766305 -40.65234375 23.4296875 C-33.05312444 11.97997091 -20.74772512 4.27433947 -7.46484375 0.7421875 C-4.98030792 0.35706096 -2.5074666 0.19653973 0 0 Z " fill="#FEB456" transform="translate(95.08984375,-0.2421875)"/>
<path d="M0 0 C0.8559375 0.48597656 1.711875 0.97195313 2.59375 1.47265625 C13.09175481 8.13616255 20.04994186 21.76240606 23.22583008 33.43798828 C25.28340295 43.65825479 24.39892345 54.51077063 24.25 64.875 C24.22990091 67.31639157 24.21165618 69.75779915 24.1953125 72.19921875 C24.15159586 78.13321317 24.08275555 84.06642687 24 90 C19.38 90 14.76 90 10 90 C10.10441406 88.15535156 10.20882812 86.31070313 10.31640625 84.41015625 C10.40085923 81.96101981 10.48275554 79.51179427 10.5625 77.0625 C10.63791016 75.85013672 10.71332031 74.63777344 10.79101562 73.38867188 C11.0095541 66.41987078 11.0095541 66.41987078 8.05761719 60.30834961 C5.70875943 57.96063671 5.70875943 57.96063671 3.22973633 56.01757812 C-0.65824205 52.49953879 -2.20010705 47.82569725 -4 43 C-4.30679688 42.19433594 -4.61359375 41.38867188 -4.9296875 40.55859375 C-5.62501999 38.70768488 -6.31328733 36.85412422 -7 35 C-8.09625655 33.69467231 -8.09625655 33.69467231 -10.7890625 33.69921875 C-14.7321323 34.06858174 -15.65443191 35.00844877 -18.375 37.8125 C-31.64859209 50.45118185 -56.75558076 69 -76 69 C-75.65986037 84.45934637 -74.10509114 97.66969459 -62.7890625 109.265625 C-59.02088278 112.74587072 -55.88649386 115.29101533 -51 117 C-51 119.97 -51 122.94 -51 126 C-55.76881876 126.09900135 -60.5370373 126.17152928 -65.30664062 126.21972656 C-66.92849143 126.23982144 -68.55026997 126.26710254 -70.171875 126.30175781 C-72.5053898 126.3503727 -74.83794557 126.37298889 -77.171875 126.390625 C-78.25647003 126.42159271 -78.25647003 126.42159271 -79.36297607 126.45318604 C-82.84150176 126.45473063 -84.64853702 126.27508873 -87.42675781 124.10058594 C-90.24920293 120.33206983 -90.15964667 117.3341737 -90.17700195 112.77490234 C-90.18685875 111.65721718 -90.18685875 111.65721718 -90.19691467 110.51695251 C-90.21668736 108.03994644 -90.22832902 105.56300161 -90.23828125 103.0859375 C-90.24235678 102.23616962 -90.2464323 101.38640175 -90.25063133 100.51088333 C-90.27152495 95.99912 -90.28580328 91.48738723 -90.29516602 86.97558594 C-90.30614035 82.35398213 -90.34042461 77.7328719 -90.38033772 73.11144066 C-90.4067449 69.52846505 -90.41487974 65.94560169 -90.41844749 62.36253738 C-90.42326435 60.66200107 -90.43473481 58.96146805 -90.45348549 57.26102829 C-90.66090604 37.17577076 -86.68944116 20.33762218 -72.453125 5.25390625 C-51.84390245 -13.6816374 -23.21902429 -14.58481426 0 0 Z " fill="#8C4E25" transform="translate(133,10)"/>
<path d="M0 0 C30.36 0 60.72 0 92 0 C92 0.33 92 0.66 92 1 C91.28457031 1.13535156 90.56914063 1.27070313 89.83203125 1.41015625 C74.68646067 4.68222648 61.93133314 12.45669168 53.1875 25.375 C52.68605469 26.18710937 52.18460938 26.99921875 51.66796875 27.8359375 C49.71852326 30.36519465 47.84284547 31.58086619 45 33 C44.34 33 43.68 33 43 33 C43 33.66 43 34.32 43 35 C41.42578125 36.515625 41.42578125 36.515625 39.3125 38.25 C36.64650867 40.50075728 34.28989909 42.70049545 32.125 45.4375 C31.42375 46.283125 30.7225 47.12875 30 48 C29.34 48 28.68 48 28 48 C27.73832031 48.55429687 27.47664063 49.10859375 27.20703125 49.6796875 C25.85350343 52.28161477 24.29865913 54.67432336 22.6875 57.125 C19.39740342 62.26492266 16.54505866 67.45604355 14 73 C13.65195313 73.73089844 13.30390625 74.46179688 12.9453125 75.21484375 C3.11581035 97.50266838 2.01296133 128.3431312 10.171875 151.296875 C11.36092318 154.24747605 12.64856388 157.12085348 14 160 C14.68871324 161.60364616 15.37630443 163.20777492 16.0625 164.8125 C17.31473085 167.62363048 18.69342029 170.28312197 20.25 172.9375 C22 176 22 176 22 178 C22.66 178 23.32 178 24 178 C25.5078125 179.6796875 25.5078125 179.6796875 27.125 181.875 C27.93324219 182.95394531 27.93324219 182.95394531 28.7578125 184.0546875 C30 186 30 186 30 188 C30.66 188 31.32 188 32 188 C32.0825 188.61875 32.165 189.2375 32.25 189.875 C32.78570011 192.11681553 32.78570011 192.11681553 34.6875 193 C35.450625 193.33 36.21375 193.66 37 194 C42.85245902 197.55737705 42.85245902 197.55737705 44 201 C46.00016466 202.20882096 46.00016466 202.20882096 48 203 C48 203.66 48 204.32 48 205 C50.63904371 206.41377341 53.07120629 207.37240135 56 208 C56 208.99 56 209.98 56 211 C56.639375 211.144375 57.27875 211.28875 57.9375 211.4375 C60 212 60 212 61 213 C63.32817964 213.36760731 65.6618385 213.70241581 68 214 C68 214.99 68 215.98 68 217 C68.969375 217.0825 69.93875 217.165 70.9375 217.25 C73.98818479 217.6684836 76.26516247 218.54153929 79 219.9375 C85.27819369 222.94011437 92.15742902 223.31484138 99 224 C99 224.33 99 224.66 99 225 C66.33 225 33.66 225 0 225 C0 150.75 0 76.5 0 0 Z " fill="#FEFDFD" transform="translate(0,0)"/>
<path d="M0 0 C3.05782288 0.7111216 3.763732 1.2138083 5.6875 3.625 C6.6796875 6.26171875 6.6796875 6.26171875 7.5625 9.3125 C9.85824905 16.5029593 12.44277945 21.82168308 18.32421875 26.625 C21.46368191 29.72252141 22.20234153 31.8061853 22.40625 36.19921875 C22.3693499 38.23794942 22.29554851 40.27630014 22.1875 42.3125 C22.16429687 43.34439453 22.14109375 44.37628906 22.1171875 45.43945312 C21.99709917 49.64527396 21.84682585 53.56321909 20.6875 57.625 C18.7075 57.955 16.7275 58.285 14.6875 58.625 C14.3575 75.125 14.0275 91.625 13.6875 108.625 C12.6975 108.625 11.7075 108.625 10.6875 108.625 C10.605 109.924375 10.5225 111.22375 10.4375 112.5625 C9.8720492 117.6677129 8.38040154 122.23278473 5.6875 126.625 C2.47169134 128.76887244 1.52579383 128.89757321 -2.1875 128.875 C-3.03054687 128.88015625 -3.87359375 128.8853125 -4.7421875 128.890625 C-7.5639779 128.5990114 -9.73746588 127.78791863 -12.3125 126.625 C-12.39422652 124.89663534 -12.45201818 123.16713041 -12.5 121.4375 C-12.53480469 120.47457031 -12.56960937 119.51164062 -12.60546875 118.51953125 C-12.26048053 115.11104764 -11.13998768 113.49614771 -9.3125 110.625 C-7.94767786 106.9800744 -6.72564544 103.30186045 -5.49609375 99.609375 C-4.3125 96.625 -4.3125 96.625 -2.3125 95.625 C-1.549375 96.429375 -0.78625 97.23375 0 98.0625 C2.48180898 100.79299024 2.48180898 100.79299024 5.6875 101.625 C7.37461423 103.2709651 9.0420622 104.93737149 10.6875 106.625 C11.3475 106.955 12.0075 107.285 12.6875 107.625 C12.3575 96.735 12.0275 85.845 11.6875 74.625 C8.0575 77.595 4.4275 80.565 0.6875 83.625 C-2.3125 85.625 -2.3125 85.625 -6.3125 85.625 C-6.3125 86.285 -6.3125 86.945 -6.3125 87.625 C-12.55702893 89.70650964 -19.94474179 89.00181259 -26.3125 87.625 C-26.3125 86.965 -26.3125 86.305 -26.3125 85.625 C-27.6325 85.625 -28.9525 85.625 -30.3125 85.625 C-30.51875 85.00625 -30.725 84.3875 -30.9375 83.75 C-32.87557869 80.75478747 -34.94410418 80.56815083 -38.3125 79.625 C-40.90632145 78.61629166 -42.012894 78.074409 -43.5625 75.75 C-44.3125 73.625 -44.3125 73.625 -44.3125 69.625 C-45.3025 69.295 -46.2925 68.965 -47.3125 68.625 C-48.4375 65.625 -48.4375 65.625 -49.3125 62.625 C-49.6425 62.295 -49.9725 61.965 -50.3125 61.625 C-50.45365161 58.95441149 -50.35497107 56.30067762 -50.3125 53.625 C-50.9725 53.625 -51.6325 53.625 -52.3125 53.625 C-52.3125 46.365 -52.3125 39.105 -52.3125 31.625 C-50.62125 30.965 -48.93 30.305 -47.1875 29.625 C-32.37541043 23.4084372 -18.46374849 14.45957953 -6.75 3.4375 C-4.22041315 1.14437453 -3.49764295 0.65993263 0 0 Z " fill="#F8AD86" transform="translate(122.3125,42.375)"/>
<path d="M0 0 C39.27 0 78.54 0 119 0 C119 74.25 119 148.5 119 225 C108.44 225 97.88 225 87 225 C88.65 223.68 90.3 222.36 92 221 C93.52183714 219.54331 95.0221347 218.06378218 96.5 216.5625 C97.27472656 215.77746094 98.04945313 214.99242187 98.84765625 214.18359375 C99.55792969 213.46300781 100.26820313 212.74242187 101 212 C101.97818845 211.0406682 102.95712741 210.08209965 103.9375 209.125 C106.14475369 206.97945156 106.14475369 206.97945156 108 204 C108.66 204 109.32 204 110 204 C110.66 202.68 111.32 201.36 112 200 C112.66 200 113.32 200 114 200 C114.04639632 187.62133627 114.08190632 175.24269333 114.10362434 162.86396027 C114.11404932 157.11565575 114.12818514 151.36741084 114.15087891 145.61914062 C114.17265299 140.06891801 114.1845783 134.51875264 114.18975449 128.9684906 C114.19344203 126.85386759 114.20064287 124.73924761 114.21146011 122.62464905 C114.2260356 119.65659887 114.2279754 116.68878349 114.22705078 113.72070312 C114.23783661 112.41734009 114.23783661 112.41734009 114.24884033 111.08764648 C114.23081678 105.72019401 113.49470249 101.1595478 112 96 C111.7642627 95.13109131 111.52852539 94.26218262 111.28564453 93.36694336 C110.57483993 90.88763351 109.85225558 88.41203372 109.125 85.9375 C108.88136719 85.07833984 108.63773437 84.21917969 108.38671875 83.33398438 C107.20808324 79.33700541 105.9832434 75.71910202 103.8515625 72.125 C101.70225085 68.49746979 101.33819857 66.14293249 101 62 C99.515 61.505 99.515 61.505 98 61 C96.17578125 58.56640625 96.17578125 58.56640625 94.3125 55.5625 C93.68988281 54.57378906 93.06726563 53.58507813 92.42578125 52.56640625 C91 50 91 50 91 48 C90.4225 47.773125 89.845 47.54625 89.25 47.3125 C86.42085466 45.66216522 85.01725404 43.56741423 83 41 C82.0925 40.278125 81.185 39.55625 80.25 38.8125 C79.5075 38.214375 78.765 37.61625 78 37 C78 36.34 78 35.68 78 35 C77.38125 34.690625 76.7625 34.38125 76.125 34.0625 C74.75 33.375 73.375 32.6875 72 32 C72 31.34 72 30.68 72 30 C71.278125 29.73058594 70.55625 29.46117188 69.8125 29.18359375 C67.02424406 28.01020271 64.57552773 26.644035 62 25.0625 C61.175 24.55847656 60.35 24.05445312 59.5 23.53515625 C57.888519 22.5456062 56.28954739 21.53524054 54.70703125 20.5 C51.16370514 18.53659852 47.51058642 17.25221134 43.6875 15.9375 C42.96626953 15.68162109 42.24503906 15.42574219 41.50195312 15.16210938 C37.94923234 13.92263997 34.43828931 12.83643824 30.76953125 11.99609375 C27.28958295 11.07652192 25.00411099 10.0322152 22 8.125 C15.09284769 4.15022124 7.71982667 2.64663806 0 1 C0 0.67 0 0.34 0 0 Z " fill="#FEFDFD" transform="translate(106,0)"/>
<path d="M0 0 C6.11647 0.53458364 11.24783367 1.9136956 16.9375 4.1875 C17.72874268 4.49921143 18.51998535 4.81092285 19.33520508 5.13208008 C25.09005576 7.46926503 30.00455431 10.31187307 35 14 C37.30432514 15.39381465 39.64298716 16.69612056 42 18 C42 18.66 42 19.32 42 20 C42.57878906 20.26296875 43.15757812 20.5259375 43.75390625 20.796875 C49.95621947 24.11915756 54.66194204 29.57742755 59 35 C59.64195312 35.61101563 60.28390625 36.22203125 60.9453125 36.8515625 C63.14265129 39.1491601 64.56561954 41.42388593 66.125 44.1875 C67.94078399 47.73652083 67.94078399 47.73652083 71 50 C71.81798537 52.09440209 72.40298227 54.22243225 73.0234375 56.3828125 C73.98049349 59.1878876 73.98049349 59.1878876 75.9296875 62.23046875 C78.34923388 66.34269732 79.54623818 70.59579218 80.75 75.1875 C80.97042969 75.98091797 81.19085938 76.77433594 81.41796875 77.59179688 C82.41583864 81.28267589 83 84.1206222 83 88 C62.54 88 42.08 88 21 88 C20.75 62.875 20.75 62.875 20.70214844 55.03466797 C20.51612577 38.89633972 19.42940146 25.63374798 10 12 C9.31164062 10.96166016 9.31164062 10.96166016 8.609375 9.90234375 C6.598233 6.95226498 4.99961836 4.99974557 2 3 C2 2.34 2 1.68 2 1 C1.34 0.67 0.68 0.34 0 0 Z " fill="#FDB456" transform="translate(136,12)"/>
<path d="M0 0 C0 0.33 0 0.66 0 1 C-0.74765625 1.10957031 -1.4953125 1.21914063 -2.265625 1.33203125 C-3.25046875 1.49058594 -4.2353125 1.64914063 -5.25 1.8125 C-6.22453125 1.96332031 -7.1990625 2.11414063 -8.203125 2.26953125 C-11.15046354 3.03929704 -12.68027155 4.08127494 -15 6 C-15.763125 6.268125 -16.52625 6.53625 -17.3125 6.8125 C-20.61013121 8.26959286 -22.82198359 10.32281406 -25.44921875 12.7578125 C-27 14 -27 14 -29 14 C-29 14.66 -29 15.32 -29 16 C-29.66 16 -30.32 16 -31 16 C-31.2475 16.721875 -31.495 17.44375 -31.75 18.1875 C-33 21 -33 21 -34.9375 23.3125 C-37.55665979 26.72534458 -38.62178553 29.93426732 -40 34 C-40.66 34 -41.32 34 -42 34 C-42.144375 35.051875 -42.28875 36.10375 -42.4375 37.1875 C-42.74133455 39.24682305 -43.06738831 41.30578524 -43.51538086 43.33862305 C-44.06923206 46.38020087 -44.21389859 49.30465759 -44.31640625 52.39453125 C-44.35830078 53.59658203 -44.40019531 54.79863281 -44.44335938 56.03710938 C-44.48267578 57.28298828 -44.52199219 58.52886719 -44.5625 59.8125 C-44.60568359 61.07771484 -44.64886719 62.34292969 -44.69335938 63.64648438 C-44.7992447 66.76421889 -44.90132405 69.88203035 -45 73 C-46.7902061 73.67057887 -48.58221489 74.3363469 -50.375 75 C-51.37273438 75.37125 -52.37046875 75.7425 -53.3984375 76.125 C-56 77 -56 77 -58 77 C-57.65986037 92.45934637 -56.10509114 105.66969459 -44.7890625 117.265625 C-41.02088278 120.74587072 -37.88649386 123.29101533 -33 125 C-33 127.97 -33 130.94 -33 134 C-37.76881876 134.09900135 -42.5370373 134.17152928 -47.30664062 134.21972656 C-48.92849143 134.23982144 -50.55026997 134.26710254 -52.171875 134.30175781 C-54.5053898 134.3503727 -56.83794557 134.37298889 -59.171875 134.390625 C-60.25647003 134.42159271 -60.25647003 134.42159271 -61.36297607 134.45318604 C-64.84150176 134.45473063 -66.64853702 134.27508873 -69.42675781 132.10058594 C-72.24920293 128.33206983 -72.15964667 125.3341737 -72.17700195 120.77490234 C-72.18685875 119.65721718 -72.18685875 119.65721718 -72.19691467 118.51695251 C-72.21668736 116.03994644 -72.22832902 113.56300161 -72.23828125 111.0859375 C-72.24235678 110.23616962 -72.2464323 109.38640175 -72.25063133 108.51088333 C-72.27152495 103.99912 -72.28580328 99.48738723 -72.29516602 94.97558594 C-72.30614035 90.35398213 -72.34042461 85.7328719 -72.38033772 81.11144066 C-72.4067449 77.52846505 -72.41487974 73.94560169 -72.41844749 70.36253738 C-72.42326435 68.66200107 -72.43473481 66.96146805 -72.45348549 65.26102829 C-72.66090604 45.17577076 -68.68944116 28.33762218 -54.453125 13.25390625 C-39.40759093 -0.56977712 -19.66934815 -5.42602708 0 0 Z " fill="#773B16" transform="translate(115,2)"/>
<path d="M0 0 C0.83265381 0.00523682 1.66530762 0.01047363 2.52319336 0.01586914 C3.42231445 0.0190918 4.32143555 0.02231445 5.24780273 0.02563477 C6.66609375 0.03820312 6.66609375 0.03820312 8.11303711 0.05102539 C9.06243164 0.05553711 10.01182617 0.06004883 10.98999023 0.06469727 C13.34356776 0.07652429 15.69702188 0.09300514 18.05053711 0.11352539 C17.06053711 0.44352539 16.07053711 0.77352539 15.05053711 1.11352539 C14.72053711 14.64352539 14.39053711 28.17352539 14.05053711 42.11352539 C15.37053711 42.77352539 16.69053711 43.43352539 18.05053711 44.11352539 C17.72053711 45.43352539 17.39053711 46.75352539 17.05053711 48.11352539 C16.39053711 48.11352539 15.73053711 48.11352539 15.05053711 48.11352539 C15.05053711 50.42352539 15.05053711 52.73352539 15.05053711 55.11352539 C16.53553711 55.60852539 16.53553711 55.60852539 18.05053711 56.11352539 C17.72053711 58.09352539 17.39053711 60.07352539 17.05053711 62.11352539 C16.39053711 62.11352539 15.73053711 62.11352539 15.05053711 62.11352539 C15.05053711 64.09352539 15.05053711 66.07352539 15.05053711 68.11352539 C16.53553711 68.60852539 16.53553711 68.60852539 18.05053711 69.11352539 C17.67553711 71.55102539 17.67553711 71.55102539 17.05053711 74.11352539 C16.06053711 74.60852539 16.06053711 74.60852539 15.05053711 75.11352539 C14.80022734 77.52972362 14.80022734 77.52972362 15.05053711 80.11352539 C16.53553711 81.10352539 16.53553711 81.10352539 18.05053711 82.11352539 C17.67553711 84.55102539 17.67553711 84.55102539 17.05053711 87.11352539 C16.06053711 87.60852539 16.06053711 87.60852539 15.05053711 88.11352539 C14.80022734 90.52972362 14.80022734 90.52972362 15.05053711 93.11352539 C16.53553711 94.10352539 16.53553711 94.10352539 18.05053711 95.11352539 C17.73803711 97.05102539 17.73803711 97.05102539 17.05053711 99.11352539 C15.56553711 99.60852539 15.56553711 99.60852539 14.05053711 100.11352539 C14.38053711 108.03352539 14.71053711 115.95352539 15.05053711 124.11352539 C16.53553711 124.60852539 16.53553711 124.60852539 18.05053711 125.11352539 C15.11248715 125.19438915 12.17665636 125.25395369 9.23803711 125.30102539 C8.4046582 125.32616211 7.5712793 125.35129883 6.71264648 125.37719727 C5.91020508 125.38686523 5.10776367 125.3965332 4.28100586 125.40649414 C3.54261475 125.42220459 2.80422363 125.43791504 2.04345703 125.45410156 C-0.58383717 125.00511523 -1.31711261 124.2005724 -2.94946289 122.11352539 C-3.32139969 119.85747337 -3.32139969 119.85747337 -3.31695557 117.16586304 C-3.32252472 116.14507156 -3.32809387 115.12428009 -3.33383179 114.07255554 C-3.324617 112.95347305 -3.31540222 111.83439056 -3.3059082 110.68139648 C-3.30795258 109.50238266 -3.30999695 108.32336884 -3.31210327 107.10862732 C-3.31459793 103.8752245 -3.30370104 100.64220324 -3.28657627 97.40885496 C-3.27154984 94.02873219 -3.27271457 90.64861371 -3.27191162 87.26846313 C-3.26821901 81.59404054 -3.25325002 75.91973891 -3.23071289 70.24536133 C-3.20181088 62.9534065 -3.19148718 55.66154896 -3.18703079 48.36954308 C-3.18305618 42.10879206 -3.17055543 35.84806233 -3.15668392 29.58732653 C-3.15257943 27.57030695 -3.14965666 25.55328814 -3.14688873 23.53626633 C-3.14005255 19.78642627 -3.12643348 16.03667668 -3.1105957 12.28686523 C-3.10947784 11.16373428 -3.10835999 10.04060333 -3.10720825 8.88343811 C-3.10149811 7.86828629 -3.09578796 6.85313446 -3.08990479 5.80722046 C-3.08693012 4.9197431 -3.08395546 4.03226574 -3.08089066 3.11789513 C-2.90514153 0.43759212 -2.68418923 0.15631158 0 0 Z " fill="#D4D1D9" transform="translate(138.949462890625,99.886474609375)"/>
<path d="M0 0 C0 6.93 0 13.86 0 21 C0.66 21 1.32 21 2 21 C2.1953125 23.01822917 2.390625 25.03645833 2.5859375 27.0546875 C2.86374749 29.22668245 2.86374749 29.22668245 5 31 C5.2475 32.2684375 5.2475 32.2684375 5.5 33.5625 C5.7475 34.7690625 5.7475 34.7690625 6 36 C6.66 36.33 7.32 36.66 8 37 C9.3749149 39.90259811 10 41.76138705 10 45 C11.65 45 13.3 45 15 45 C15 45.66 15 46.32 15 47 C15.969375 47.2475 16.93875 47.495 17.9375 47.75 C19.4534375 48.36875 19.4534375 48.36875 21 49 C21.875 51.125 21.875 51.125 22 53 C23.32 53 24.64 53 26 53 C26 53.66 26 54.32 26 55 C32.6 55 39.2 55 46 55 C46 54.34 46 53.68 46 53 C46.928125 52.690625 47.85625 52.38125 48.8125 52.0625 C53.81367361 49.96755253 57.65758349 46.35244571 61.7421875 42.86328125 C64 41 64 41 65 41 C65 52.22 65 63.44 65 75 C59.92 72.968 59.92 72.968 58 69 C57.34 68.835 56.68 68.67 56 68.5 C54 68 54 68 52.75 65.9375 C52.5025 65.298125 52.255 64.65875 52 64 C51.01 64 50.02 64 49 64 C48.67386719 64.95261719 48.34773438 65.90523438 48.01171875 66.88671875 C47.57060497 68.15374769 47.12918229 69.42066913 46.6875 70.6875 C46.25824219 71.92886719 45.82898438 73.17023438 45.38671875 74.44921875 C44 78 44 78 42.36328125 80.60546875 C40.34039848 84.15855511 40.53810913 87.46584739 40.40625 91.4765625 C39.93581873 94.39866443 39.34919413 95.26026661 37 97 C31.69785972 98.76738009 27.58408438 98.65060608 22.5 96.5625 C21.675 95.716875 20.85 94.87125 20 94 C20.05030614 91.86408531 20.10195599 89.72818934 20.16210938 87.5925293 C19.80423732 81.86927117 17.02401831 76.58471965 14.84375 71.34765625 C12.22441903 64.69642655 11.50228467 59.13219152 12 52 C11.23034912 51.87488037 10.46069824 51.74976074 9.66772461 51.62084961 C2.45915291 49.94322557 -3.71684087 41.98676197 -7.5 35.9375 C-8.36787119 34.30961444 -9.20434699 32.66437619 -10 31 C-10.33773437 30.34128906 -10.67546875 29.68257812 -11.0234375 29.00390625 C-14.31798641 21.25113749 -13.24013956 12.24479171 -13 4 C-11.2097939 3.32942113 -9.41778511 2.6636531 -7.625 2 C-6.62726562 1.62875 -5.62953125 1.2575 -4.6015625 0.875 C-2 0 -2 0 0 0 Z " fill="#F49D6B" transform="translate(70,75)"/>
<path d="M0 0 C0 6.93 0 13.86 0 21 C0.66 21 1.32 21 2 21 C2.1953125 23.01822917 2.390625 25.03645833 2.5859375 27.0546875 C2.86374749 29.22668245 2.86374749 29.22668245 5 31 C5.2475 32.2684375 5.2475 32.2684375 5.5 33.5625 C5.7475 34.7690625 5.7475 34.7690625 6 36 C6.66 36.33 7.32 36.66 8 37 C9.3749149 39.90259811 10 41.76138705 10 45 C11.65 45 13.3 45 15 45 C15 45.66 15 46.32 15 47 C15.969375 47.2475 16.93875 47.495 17.9375 47.75 C19.4534375 48.36875 19.4534375 48.36875 21 49 C21.875 51.125 21.875 51.125 22 53 C23.32 53 24.64 53 26 53 C25.67 58.28 25.34 63.56 25 69 C24.67 69 24.34 69 24 69 C24 66.36 24 63.72 24 61 C23.34 61 22.68 61 22 61 C22 59.68 22 58.36 22 57 C21.030625 56.773125 20.06125 56.54625 19.0625 56.3125 C8.14156894 53.11078126 -1.40318578 45.60411891 -7.4375 36 C-8.32494419 34.35081193 -9.18195366 32.68468949 -10 31 C-10.50853516 30.01 -10.50853516 30.01 -11.02734375 29 C-14.31428597 21.24463403 -13.24014846 12.24509696 -13 4 C-11.2097939 3.32942113 -9.41778511 2.6636531 -7.625 2 C-6.62726562 1.62875 -5.62953125 1.2575 -4.6015625 0.875 C-2 0 -2 0 0 0 Z " fill="#F39D6B" transform="translate(70,75)"/>
<path d="M0 0 C0.33 0 0.66 0 1 0 C1 4.95 1 9.9 1 15 C0.01 15 -0.98 15 -2 15 C-2.0825 16.299375 -2.165 17.59875 -2.25 18.9375 C-2.8154508 24.0427129 -4.30709846 28.60778473 -7 33 C-10.21580866 35.14387244 -11.16170617 35.27257321 -14.875 35.25 C-16.13957031 35.25773437 -16.13957031 35.25773437 -17.4296875 35.265625 C-20.2514779 34.9740114 -22.42496588 34.16291863 -25 33 C-25.08172652 31.27163534 -25.13951818 29.54213041 -25.1875 27.8125 C-25.22230469 26.84957031 -25.25710937 25.88664062 -25.29296875 24.89453125 C-24.94798053 21.48604764 -23.82748768 19.87114771 -22 17 C-20.63517786 13.3550744 -19.41314544 9.67686045 -18.18359375 5.984375 C-17 3 -17 3 -15 2 C-13.8553125 3.2065625 -13.8553125 3.2065625 -12.6875 4.4375 C-10.20569102 7.16799024 -10.20569102 7.16799024 -7 8 C-5.31288577 9.6459651 -3.6454378 11.31237149 -2 13 C-1.34 13.33 -0.68 13.66 0 14 C0 9.38 0 4.76 0 0 Z " fill="#E0C098" transform="translate(135,136)"/>
<path d="M0 0 C0.99 0 1.98 0 3 0 C4.23369397 3.19882704 5.4646633 6.39856409 6.6875 9.6015625 C7.43699881 11.54222905 8.19941399 13.478282 9 15.3984375 C10.8453437 19.88759094 11.29758002 23.23871964 11 28 C10.01 28.33 9.02 28.66 8 29 C7.67 29.99 7.34 30.98 7 32 C3.04 32 -0.92 32 -5 32 C-5.33 31.01 -5.66 30.02 -6 29 C-6.99 28.67 -7.98 28.34 -9 28 C-9.94921875 25.890625 -9.94921875 25.890625 -10.6875 23.25 C-10.93886719 22.38890625 -11.19023438 21.5278125 -11.44921875 20.640625 C-11.99753428 18.01182147 -12.10108994 15.67647662 -12 13 C-13.32 12.34 -14.64 11.68 -16 11 C-11.375 8 -11.375 8 -8 8 C-8 7.01 -8 6.02 -8 5 C-7.4225 4.9175 -6.845 4.835 -6.25 4.75 C-3.81831948 4.12577882 -3.81831948 4.12577882 -1.9375 1.9375 C-1.298125 1.298125 -0.65875 0.65875 0 0 Z " fill="#E0BF95" transform="translate(80,139)"/>
<path d="M0 0 C3.48670834 1.1094072 6.77484237 2.26337666 10 4 C10 5.32 10 6.64 10 8 C10.66 8 11.32 8 12 8 C12 10.64 12 13.28 12 16 C12.66 16 13.32 16 14 16 C14.12117188 16.56589844 14.24234375 17.13179687 14.3671875 17.71484375 C14.61855469 18.81505859 14.61855469 18.81505859 14.875 19.9375 C15.03742188 20.66839844 15.19984375 21.39929688 15.3671875 22.15234375 C15.82961523 24.20700294 15.82961523 24.20700294 18 25 C18.47597366 27.70599842 18.84093629 30.33595404 19.125 33.0625 C19.21136719 33.82111328 19.29773438 34.57972656 19.38671875 35.36132812 C19.59939517 37.23996986 19.80075459 39.11988636 20 41 C21.32 41.33 22.64 41.66 24 42 C24 42.66 24 43.32 24 44 C20.7724247 45.61378765 17.49859016 45.4405632 14 45 C10.5 43.5625 10.5 43.5625 8 41 C8.05032101 38.86555045 8.10198513 36.73111974 8.16210938 34.59692383 C7.80298462 28.84389664 5.01847733 23.53127528 2.84375 18.25976562 C0.3703402 11.95698743 -0.52894325 6.76514746 0 0 Z " fill="#F18B52" transform="translate(82,128)"/>
<path d="M0 0 C1.65 0 3.3 0 5 0 C4.67 1.32 4.34 2.64 4 4 C3.34 4 2.68 4 2 4 C2 5.32 2 6.64 2 8 C1.34 8 0.68 8 0 8 C-0.08302368 8.95253662 -0.08302368 8.95253662 -0.16772461 9.92431641 C-0.42190369 12.82476151 -0.67967067 15.72487719 -0.9375 18.625 C-1.06801758 20.12353516 -1.06801758 20.12353516 -1.20117188 21.65234375 C-1.63232053 26.47482126 -2.09785214 31.23730947 -3 36 C-4.32 36 -5.64 36 -7 36 C-7.33 34.68 -7.66 33.36 -8 32 C-8.66 32 -9.32 32 -10 32 C-11.5078125 30.03125 -11.5078125 30.03125 -13.125 27.5 C-13.66382813 26.6646875 -14.20265625 25.829375 -14.7578125 24.96875 C-15.16773437 24.3190625 -15.57765625 23.669375 -16 23 C-15.34 23 -14.68 23 -14 23 C-14.03480469 22.24074219 -14.06960937 21.48148438 -14.10546875 20.69921875 C-14.13253906 19.70535156 -14.15960937 18.71148437 -14.1875 17.6875 C-14.22230469 16.70136719 -14.25710937 15.71523437 -14.29296875 14.69921875 C-13.95573492 11.59217111 -13.35313427 10.92636936 -11 9 C-10.67 8.34 -10.34 7.68 -10 7 C-9.01 7 -8.02 7 -7 7 C-6.67 6.01 -6.34 5.02 -6 4 C-3 2 -3 2 0 2 C0 1.34 0 0.68 0 0 Z " fill="#ECD3AF" transform="translate(40,156)"/>
<path d="M0 0 C1.47436523 0.01933594 1.47436523 0.01933594 2.97851562 0.0390625 C4.00267578 0.07257813 5.02683594 0.10609375 6.08203125 0.140625 C7.63567383 0.16769531 7.63567383 0.16769531 9.22070312 0.1953125 C11.77957409 0.24248063 14.33658967 0.30828443 16.89453125 0.390625 C15.51953125 2.890625 15.51953125 2.890625 13.89453125 5.390625 C13.23453125 5.390625 12.57453125 5.390625 11.89453125 5.390625 C11.66765625 5.9475 11.44078125 6.504375 11.20703125 7.078125 C9.52390182 10.04363875 7.33148856 12.00172037 4.89453125 14.390625 C3.95088193 15.35327507 3.00949897 16.31815162 2.0703125 17.28515625 C1.11591035 18.25783696 0.16148313 19.23049308 -0.79296875 20.203125 C-1.27830078 20.70521484 -1.76363281 21.20730469 -2.26367188 21.72460938 C-3.50671481 22.98479773 -4.80246767 24.19253544 -6.10546875 25.390625 C-6.76546875 25.390625 -7.42546875 25.390625 -8.10546875 25.390625 C-8.19271581 21.9741198 -8.245942 18.55790187 -8.29296875 15.140625 C-8.31810547 14.17253906 -8.34324219 13.20445312 -8.36914062 12.20703125 C-8.37880859 11.27246094 -8.38847656 10.33789062 -8.3984375 9.375 C-8.41414795 8.51616211 -8.4298584 7.65732422 -8.44604492 6.77246094 C-7.67574037 1.38529879 -5.20785886 -0.12041292 0 0 Z " fill="#BCB9C7" transform="translate(202.10546875,198.609375)"/>
<path d="M0 0 C0.83334366 0.00404846 1.66668732 0.00809692 2.52528381 0.01226807 C3.80883507 0.00939789 3.80883507 0.00939789 5.11831665 0.00646973 C6.92983799 0.00510749 8.74136907 0.00880664 10.5528717 0.01715088 C13.32710217 0.02783688 16.10068313 0.01726378 18.87489319 0.00445557 C20.63335816 0.00577741 22.39182273 0.00834032 24.15028381 0.01226807 C24.98160324 0.0082196 25.81292267 0.00417114 26.66943359 0 C30.58963337 0.03192524 32.56955179 0.05480088 35.90419006 2.27789307 C35.02919006 6.15289307 35.02919006 6.15289307 33.90419006 7.27789307 C30.87441202 7.36660579 27.86751984 7.39308657 24.83778381 7.37554932 C23.92916092 7.37413437 23.02053802 7.37271942 22.0843811 7.3712616 C19.17011786 7.365645 16.25593025 7.35308972 13.34169006 7.34039307 C11.37098804 7.3353802 9.40028483 7.33081693 7.42958069 7.32672119 C2.58775448 7.31567018 -2.25401489 7.29839445 -7.09580994 7.27789307 C-7.72080994 4.90289307 -7.72080994 4.90289307 -8.09580994 2.27789307 C-5.46878414 -0.34913273 -3.57666563 0.02924666 0 0 Z " fill="#D5D3DA" transform="translate(170.09580993652344,141.72210693359375)"/>
<path d="M0 0 C14.52 0 29.04 0 44 0 C44 1.98 44 3.96 44 6 C29.48 6 14.96 6 0 6 C0 4.02 0 2.04 0 0 Z " fill="#D5D2DA" transform="translate(162,168)"/>
<path d="M0 0 C5.94482112 -0.02467203 11.8896126 -0.04284663 17.83447266 -0.05493164 C19.85791543 -0.05996831 21.88135456 -0.06679789 23.90478516 -0.07543945 C26.80892843 -0.08753412 29.71302369 -0.09323488 32.6171875 -0.09765625 C33.52556366 -0.10281754 34.43393982 -0.10797882 35.36984253 -0.11329651 C36.21056305 -0.11337204 37.05128357 -0.11344757 37.91748047 -0.11352539 C39.03000687 -0.11685631 39.03000687 -0.11685631 40.16500854 -0.12025452 C42 0 42 0 44 1 C44 2.65 44 4.3 44 6 C38.05517888 6.02467203 32.1103874 6.04284663 26.16552734 6.05493164 C24.14208457 6.05996831 22.11864544 6.06679789 20.09521484 6.07543945 C17.19107157 6.08753412 14.28697631 6.09323488 11.3828125 6.09765625 C10.47443634 6.10281754 9.56606018 6.10797882 8.63015747 6.11329651 C7.78943695 6.11337204 6.94871643 6.11344757 6.08251953 6.11352539 C4.96999313 6.11685631 4.96999313 6.11685631 3.83499146 6.12025452 C2 6 2 6 0 5 C0 3.35 0 1.7 0 0 Z " fill="#D3D1D8" transform="translate(162,155)"/>
<path d="M0 0 C1.77206192 0.00015919 3.54412846 0.00585754 5.31616211 0.01586914 C6.24698105 0.01728409 7.17779999 0.01869904 8.13682556 0.02015686 C11.12241777 0.02577367 14.10793615 0.03832899 17.09350586 0.05102539 C19.11238499 0.05603823 21.13126529 0.06060151 23.15014648 0.06469727 C28.11046158 0.07574856 33.07072118 0.09302444 38.03100586 0.11352539 C38.03100586 2.09352539 38.03100586 4.07352539 38.03100586 6.11352539 C23.84100586 6.11352539 9.65100586 6.11352539 -4.96899414 6.11352539 C-4.96899414 0.14212845 -4.96899414 0.14212845 0 0 Z " fill="#D3D2D9" transform="translate(166.968994140625,180.886474609375)"/>
<path d="M0 0 C0.33 0 0.66 0 1 0 C1 4.95 1 9.9 1 15 C0.01 15 -0.98 15 -2 15 C-2 16.65 -2 18.3 -2 20 C-2.66 19.67 -3.32 19.34 -4 19 C-4.66 19.99 -5.32 20.98 -6 22 C-8.09375 22.328125 -8.09375 22.328125 -10.5 22.25 C-11.2940625 22.23453125 -12.088125 22.2190625 -12.90625 22.203125 C-15 22 -15 22 -17 21 C-17 20.34 -17 19.68 -17 19 C-17.66 19 -18.32 19 -19 19 C-20.73776501 15.52446998 -19.72877918 11.71864247 -19 8 C-17.4375 4.4375 -17.4375 4.4375 -16 2 C-12.53004599 3.15665134 -12.11443335 4.18075554 -10 7 C-9.01 7.33 -8.02 7.66 -7 8 C-5.31288577 9.6459651 -3.6454378 11.31237149 -2 13 C-1.34 13.33 -0.68 13.66 0 14 C0 9.38 0 4.76 0 0 Z " fill="#EDD1AB" transform="translate(135,136)"/>
<path d="M0 0 C0 6.6 0 13.2 0 20 C-5.28 20 -10.56 20 -16 20 C-16 12 -16 12 -14.2421875 9.86328125 C-13.46101563 9.35152344 -12.67984375 8.83976562 -11.875 8.3125 C-11.05773437 7.75046875 -10.24046875 7.1884375 -9.3984375 6.609375 C-8.60695313 6.07828125 -7.81546875 5.5471875 -7 5 C-5.81922818 4.03788963 -4.65007515 3.06110184 -3.5 2.0625 C-1 0 -1 0 0 0 Z " fill="#8D4F25" transform="translate(135,116)"/>
<path d="M0 0 C0.33 0 0.66 0 1 0 C1.33 27.06 1.66 54.12 2 82 C1.01 82 0.02 82 -1 82 C-1.0231502 71.7514961 -1.04092879 61.50299839 -1.05181217 51.25447369 C-1.05703512 46.495893 -1.06412215 41.73733017 -1.07543945 36.97875977 C-1.08628916 32.38817481 -1.09228128 27.79760706 -1.09487724 23.20701027 C-1.09672772 21.45389345 -1.10034114 19.70077759 -1.10573006 17.94766808 C-1.11296809 15.4959343 -1.11398977 13.044272 -1.11352539 10.5925293 C-1.11712067 9.86460678 -1.12071594 9.13668427 -1.12442017 8.38670349 C-1.11809644 5.30989819 -0.98124887 2.94374662 0 0 Z " fill="#8E5019" transform="translate(44,48)"/>
<path d="M0 0 C1.3921875 -0.0309375 1.3921875 -0.0309375 2.8125 -0.0625 C3.699375 -0.06765625 4.58625 -0.0728125 5.5 -0.078125 C6.3146875 -0.0874707 7.129375 -0.09681641 7.96875 -0.10644531 C8.6390625 0.01118164 9.309375 0.12880859 10 0.25 C12 3.25 12 3.25 12 6.25 C9.56283785 7.46858107 7.96725943 7.37925575 5.24609375 7.3828125 C4.30958984 7.38410156 3.37308594 7.38539063 2.40820312 7.38671875 C1.42787109 7.38285156 0.44753906 7.37898437 -0.5625 7.375 C-2.03879883 7.38080078 -2.03879883 7.38080078 -3.54492188 7.38671875 C-4.48013672 7.38542969 -5.41535156 7.38414062 -6.37890625 7.3828125 C-7.2407251 7.38168457 -8.10254395 7.38055664 -8.99047852 7.37939453 C-11 7.25 -11 7.25 -12 6.25 C-12.04063832 4.58382885 -12.042721 2.91611905 -12 1.25 C-8.34169572 -0.57915214 -4.02743635 0.02237465 0 0 Z " fill="#D6D3DB" transform="translate(180,128.75)"/>
<path d="M0 0 C0 1.98 0 3.96 0 6 C-3.79160297 6.05786668 -7.58309311 6.09355054 -11.375 6.125 C-12.99535156 6.15013672 -12.99535156 6.15013672 -14.6484375 6.17578125 C-15.6796875 6.18222656 -16.7109375 6.18867188 -17.7734375 6.1953125 C-19.20308838 6.21102295 -19.20308838 6.21102295 -20.66162109 6.22705078 C-23 6 -23 6 -25 4 C-25 2.68 -25 1.36 -25 0 C-21.20873402 -0.19628414 -17.41697828 -0.38053896 -13.625 -0.5625 C-12.54476562 -0.61857422 -11.46453125 -0.67464844 -10.3515625 -0.73242188 C-9.3203125 -0.78076172 -8.2890625 -0.82910156 -7.2265625 -0.87890625 C-6.27346191 -0.9260376 -5.32036133 -0.97316895 -4.33837891 -1.02172852 C-2 -1 -2 -1 0 0 Z " fill="#D4D1D9" transform="translate(187,194)"/>
<path d="M0 0 C4.95 0 9.9 0 15 0 C15 4.62 15 9.24 15 14 C9.92 11.968 9.92 11.968 8 8 C7.34 7.835 6.68 7.67 6 7.5 C4 7 4 7 2.75 4.9375 C2.37875 3.9784375 2.37875 3.9784375 2 3 C1.34 3 0.68 3 0 3 C0 2.01 0 1.02 0 0 Z " fill="#FBB457" transform="translate(120,136)"/>
<path d="M0 0 C1.65 0.33 3.3 0.66 5 1 C5 7.27 5 13.54 5 20 C3.35 19.67 1.7 19.34 0 19 C-1.12050151 15.63849548 -1.13296652 13.03713274 -1.125 9.5 C-1.12757812 8.3553125 -1.13015625 7.210625 -1.1328125 6.03125 C-1 3 -1 3 0 0 Z " fill="#ECD4B1" transform="translate(48,186)"/>
<path d="M0 0 C3.63 0 7.26 0 11 0 C9.625 2.5 9.625 2.5 8 5 C7.34 5 6.68 5 6 5 C5.79375 5.556875 5.5875 6.11375 5.375 6.6875 C3.44999226 9.92501302 0.96149098 11.68231141 -2 14 C-2.05437607 12.41705218 -2.09296271 10.83355744 -2.125 9.25 C-2.14820313 8.36828125 -2.17140625 7.4865625 -2.1953125 6.578125 C-2 4 -2 4 0 0 Z " fill="#D3D0D8" transform="translate(208,199)"/>
<path d="M0 0 C0.66 0.33 1.32 0.66 2 1 C1.83628906 2.27617188 1.67257813 3.55234375 1.50390625 4.8671875 C0.69727709 12.93347908 0.89415508 21.02849697 0.9375 29.125 C0.94252563 30.76562363 0.94708665 32.40624876 0.95117188 34.046875 C0.96209195 38.03128742 0.97929782 42.0156269 1 46 C-1.45378929 42.31931607 -1.30646214 40.31946281 -1.4140625 35.92578125 C-1.43342865 35.2419487 -1.4527948 34.55811615 -1.4727478 33.8535614 C-1.53243997 31.67333375 -1.57888631 29.49305298 -1.625 27.3125 C-1.66318943 25.8326595 -1.70224174 24.352841 -1.7421875 22.87304688 C-1.83813202 19.2488995 -1.92220151 15.62458743 -2 12 C-2.66 12 -3.32 12 -4 12 C-4.33 12.66 -4.66 13.32 -5 14 C-4.17672405 9.60919494 -3.21774968 5.29794004 -2 1 C-1.34 0.67 -0.68 0.34 0 0 Z " fill="#FCEEE0" transform="translate(5,90)"/>
<path d="M0 0 C6.93 0 13.86 0 21 0 C22 3 22 3 22 7 C21.18273437 6.71382813 20.36546875 6.42765625 19.5234375 6.1328125 C15.59053694 4.86835445 11.63624387 3.85423675 7.625 2.875 C6.88894531 2.69324219 6.15289062 2.51148438 5.39453125 2.32421875 C3.59688777 1.88064438 1.79851746 1.44001734 0 1 C0 0.67 0 0.34 0 0 Z " fill="#F3EBE5" transform="translate(106,0)"/>
<path d="M0 0 C1.98 0 3.96 0 6 0 C5.649375 0.66 5.29875 1.32 4.9375 2 C3.67146591 6.0513091 4.29385518 8.83374555 5 13 C3.125 13.625 3.125 13.625 1 14 C-1 12 -1 12 -1.1953125 9.8359375 C-1.17210938 9.02382812 -1.14890625 8.21171875 -1.125 7.375 C-1.10695313 6.55773437 -1.08890625 5.74046875 -1.0703125 4.8984375 C-1.04710938 4.27195313 -1.02390625 3.64546875 -1 3 C-0.34 2.67 0.32 2.34 1 2 C0.67 1.34 0.34 0.68 0 0 Z " fill="#EDDDC2" transform="translate(98,175)"/>
<path d="M0 0 C0.82172513 3.12785694 1.32497214 5.75027857 1 9 C-0.5 11.1875 -0.5 11.1875 -2 13 C-2 13.66 -2 14.32 -2 15 C-3.32 14.34 -4.64 13.68 -6 13 C-5.58221009 7.2902045 -3.42453429 4.39042858 0 0 Z " fill="#FAB862" transform="translate(22,57)"/>
<path d="M0 0 C0 6.6 0 13.2 0 20 C-0.33 20 -0.66 20 -1 20 C-1.33 17.36 -1.66 14.72 -2 12 C-3.65 11.67 -5.3 11.34 -7 11 C-6.67 10.34 -6.34 9.68 -6 9 C-5.01 9 -4.02 9 -3 9 C-3.66 8.34 -4.32 7.68 -5 7 C-4.73749526 4.287451 -3.33779042 0 0 0 Z " fill="#874B22" transform="translate(135,116)"/>
<path d="M0 0 C12.21 0 24.42 0 37 0 C37.495 2.475 37.495 2.475 38 5 C37.01 5 36.02 5 35 5 C35 3.68 35 2.36 35 1 C23.45 1 11.9 1 0 1 C0 0.67 0 0.34 0 0 Z " fill="#CECBD6" transform="translate(167,168)"/>
<path d="M0 0 C0.33 0.66 0.66 1.32 1 2 C1.66 2.33 2.32 2.66 3 3 C2.67 4.65 2.34 6.3 2 8 C0.68 7.34 -0.64 6.68 -2 6 C-2 6.66 -2 7.32 -2 8 C-5.465 9.485 -5.465 9.485 -9 11 C-7.59155282 7.78475695 -5.89655214 5.67816132 -3.375 3.25 C-2.74335937 2.63640625 -2.11171875 2.0228125 -1.4609375 1.390625 C-0.73777344 0.70226563 -0.73777344 0.70226563 0 0 Z " fill="#FCB65A" transform="translate(39,37)"/>
<path d="M0 0 C1.4540625 0.0309375 1.4540625 0.0309375 2.9375 0.0625 C3.31968767 1.71864657 3.65145102 3.38707024 3.9375 5.0625 C2.9375 6.0625 2.9375 6.0625 -0.125 6.125 C-1.094375 6.104375 -2.06375 6.08375 -3.0625 6.0625 C-3.44468767 4.40635343 -3.77645102 2.73792976 -4.0625 1.0625 C-3.0625 0.0625 -3.0625 0.0625 0 0 Z " fill="#C1BEC8" transform="translate(153.0625,180.9375)"/>
<path d="M0 0 C2.64 0.33 5.28 0.66 8 1 C7.34 1.66 6.68 2.32 6 3 C7.98 3.66 9.96 4.32 12 5 C11.67 6.65 11.34 8.3 11 10 C7.18063472 8.44396229 4.73955562 6.04395069 2 3 C2 2.34 2 1.68 2 1 C1.34 0.67 0.68 0.34 0 0 Z " fill="#F7B761" transform="translate(136,12)"/>
<path d="M0 0 C1.67542976 0.28604898 3.34385343 0.61781233 5 1 C5.625 2.875 5.625 2.875 6 5 C5.34 5.66 4.68 6.32 4 7 C2.68 7 1.36 7 0 7 C-0.38133299 5.0085944 -0.71325582 3.00720923 -1 1 C-0.67 0.67 -0.34 0.34 0 0 Z " fill="#BEBCC7" transform="translate(151,193)"/>
<path d="M0 0 C1.65 0 3.3 0 5 0 C5.38218767 1.65614657 5.71395102 3.32457024 6 5 C5 6 5 6 2.4375 6.0625 C1.2309375 6.0315625 1.2309375 6.0315625 0 6 C-1.125 2.25 -1.125 2.25 0 0 Z " fill="#BEBBC7" transform="translate(151,168)"/>
<path d="M0 0 C1.8125 1.9375 1.8125 1.9375 2.0625 5.125 C1.98 6.053125 1.8975 6.98125 1.8125 7.9375 C-0.1875 6.9375 -2.1875 5.9375 -4.1875 4.9375 C-4.1875 4.2775 -4.1875 3.6175 -4.1875 2.9375 C-4.8475 2.6075 -5.5075 2.2775 -6.1875 1.9375 C-4.64881104 -1.13987792 -3.02715994 -1.47033483 0 0 Z " fill="#FBF8F1" transform="translate(182.1875,27.0625)"/>
<path d="M0 0 C1.65 0 3.3 0 5 0 C5.33 1.65 5.66 3.3 6 5 C1.25 6.125 1.25 6.125 -1 5 C-0.67 3.35 -0.34 1.7 0 0 Z " fill="#BFBDC7" transform="translate(151,155)"/>
<path d="M0 0 C0.66 0.33 1.32 0.66 2 1 C2 1.33 2 1.66 2 2 C2.969375 2.2475 3.93875 2.495 4.9375 2.75 C5.948125 3.1625 6.95875 3.575 8 4 C8.875 6.125 8.875 6.125 9 8 C8.67 7.34 8.34 6.68 8 6 C6.39125 6.0928125 6.39125 6.0928125 4.75 6.1875 C0.89133813 5.99456691 -0.28817788 5.60334924 -3 3 C-2.01 3 -1.02 3 0 3 C0 2.01 0 1.02 0 0 Z " fill="#F7A273" transform="translate(83,120)"/>
<path d="M0 0 C2.97 0.99 5.94 1.98 9 3 C8.01 3.495 8.01 3.495 7 4 C7 4.66 7 5.32 7 6 C5.02 6 3.04 6 1 6 C0.34 4.35 -0.32 2.7 -1 1 C-0.67 0.67 -0.34 0.34 0 0 Z " fill="#FCB962" transform="translate(151,16)"/>
<path d="M0 0 C-0.33 1.32 -0.66 2.64 -1 4 C-2.875 4.625 -2.875 4.625 -5 5 C-5.66 4.34 -6.32 3.68 -7 3 C-7 2.01 -7 1.02 -7 0 C-4.3333581 -1.33332095 -2.83319697 -0.67102033 0 0 Z " fill="#BDBBC4" transform="translate(157,144)"/>
<path d="M0 0 C0.33 0.66 0.66 1.32 1 2 C0.01 3.485 0.01 3.485 -1 5 C-0.67 5.66 -0.34 6.32 0 7 C-0.7425 6.814375 -1.485 6.62875 -2.25 6.4375 C-4.94990963 6.00796892 -6.44631077 6.14877026 -9 7 C-9 6.34 -9 5.68 -9 5 C-6.03 3.35 -3.06 1.7 0 0 Z M0 5 C2 6 2 6 2 6 Z " fill="#EFA880" transform="translate(93,63)"/>
<path d="M0 0 C1.65 0 3.3 0 5 0 C5 1.65 5 3.3 5 5 C3.125 5.625 3.125 5.625 1 6 C0.34 5.34 -0.32 4.68 -1 4 C-0.625 1.875 -0.625 1.875 0 0 Z " fill="#534F5E" transform="translate(98,183)"/>
<path d="M0 0 C1.67542976 0.28604898 3.34385343 0.61781233 5 1 C4.67 2.65 4.34 4.3 4 6 C2.68 5.67 1.36 5.34 0 5 C-0.5625 3.0625 -0.5625 3.0625 -1 1 C-0.67 0.67 -0.34 0.34 0 0 Z " fill="#4B4B5A" transform="translate(98,196)"/>
<path d="M0 0 C2.0625 0.4375 2.0625 0.4375 4 1 C3.67 2.65 3.34 4.3 3 6 C1.68 5.67 0.36 5.34 -1 5 C-1 1 -1 1 0 0 Z " fill="#494858" transform="translate(99,209)"/>
<path d="M0 0 C0.66 0 1.32 0 2 0 C2.17942163 3.94727588 2.09350689 6.5980513 0 10 C-0.66 10 -1.32 10 -2 10 C-1.125 2.25 -1.125 2.25 0 0 Z " fill="#FAB961" transform="translate(11,78)"/>
<path d="M0 0 C0.33 0 0.66 0 1 0 C1.09688221 5.44693314 1.12862175 10.63904667 0 16 C-1.41377341 13.36095629 -2.37240135 10.92879371 -3 8 C-2.01 8 -1.02 8 0 8 C0 5.36 0 2.72 0 0 Z " fill="#F1D9B9" transform="translate(37,176)"/>
<path d="M0 0 C3 3.625 3 3.625 3 7 C0.37886292 7 -1.50935112 6.68707555 -4 6 C-2.68 4.02 -1.36 2.04 0 0 Z " fill="#FABD6A" transform="translate(28,48)"/>
<path d="M0 0 C1.98 0.495 1.98 0.495 4 1 C3.67 2.98 3.34 4.96 3 7 C1.68 5.68 0.36 4.36 -1 3 C-0.67 2.01 -0.34 1.02 0 0 Z " fill="#FBF7EE" transform="translate(200,50)"/>
<path d="M0 0 C0.66 0 1.32 0 2 0 C2.33 1.32 2.66 2.64 3 4 C2.34 4 1.68 4 1 4 C1 4.99 1 5.98 1 7 C-0.98 7.99 -0.98 7.99 -3 9 C-3 6 -3 6 -2 3 C-1.01 3 -0.02 3 1 3 C0.67 2.01 0.34 1.02 0 0 Z " fill="#E5D7BE" transform="translate(100,202)"/>
<path d="M0 0 C0.66 0.33 1.32 0.66 2 1 C1.67 2.98 1.34 4.96 1 7 C-0.32 7.33 -1.64 7.66 -3 8 C-1.125 2.25 -1.125 2.25 0 0 Z " fill="#834614" transform="translate(50,29)"/>
<path d="M0 0 C0 1.32 0 2.64 0 4 C-1.98 4.33 -3.96 4.66 -6 5 C-5.6875 3.0625 -5.6875 3.0625 -5 1 C-2 0 -2 0 0 0 Z " fill="#7C431E" transform="translate(85,2)"/>
<path d="M0 0 C0.33 1.32 0.66 2.64 1 4 C-1.66666667 4 -4.33333333 4 -7 4 C-3.375 0 -3.375 0 0 0 Z " fill="#E7BA8B" transform="translate(83,139)"/>
<path d="M0 0 C0.66 0.33 1.32 0.66 2 1 C1.67 4.3 1.34 7.6 1 11 C0.67 11 0.34 11 0 11 C-0.19491452 9.54263913 -0.38069358 8.08405407 -0.5625 6.625 C-0.66691406 5.81289062 -0.77132813 5.00078125 -0.87890625 4.1640625 C-1 2 -1 2 0 0 Z " fill="#FDF4E9" transform="translate(5,90)"/>
<path d="M0 0 C0 3.64478912 -0.85802506 5.09303401 -3 8 C-5.1875 8.8125 -5.1875 8.8125 -7 9 C-5.44499019 5.18315774 -2.96404505 2.80804268 0 0 Z " fill="#F9BF73" transform="translate(37,39)"/>
<path d="M0 0 C0.66 0.33 1.32 0.66 2 1 C1.01 3.31 0.02 5.62 -1 8 C-1.66 8 -2.32 8 -3 8 C-3.33 6.68 -3.66 5.36 -4 4 C-3.34 4 -2.68 4 -2 4 C-1.34 2.68 -0.68 1.36 0 0 Z " fill="#F3B054" transform="translate(48,30)"/>
<path d="M0 0 C1.5 1.375 1.5 1.375 3 3 C3 3.66 3 4.32 3 5 C1.02 5.33 -0.96 5.66 -3 6 C-2.625 3.5625 -2.625 3.5625 -2 1 C-1.34 0.67 -0.68 0.34 0 0 Z " fill="#7E4420" transform="translate(69,9)"/>
<path d="M0 0 C0.33 0.66 0.66 1.32 1 2 C0.34 2 -0.32 2 -1 2 C-0.34 3.98 0.32 5.96 1 8 C-0.98 7.01 -2.96 6.02 -5 5 C-4.67 4.34 -4.34 3.68 -4 3 C-3.34 3 -2.68 3 -2 3 C-2 2.34 -2 1.68 -2 1 C-1.34 0.67 -0.68 0.34 0 0 Z " fill="#F8B96A" transform="translate(45,32)"/>
<path d="M0 0 C1.2077558 3.62326739 0.54311128 4.64146369 -1 8 C-1.33 7.34 -1.66 6.68 -2 6 C-2.99 5.67 -3.98 5.34 -5 5 C-3.35 3.35 -1.7 1.7 0 0 Z " fill="#815132" transform="translate(61,15)"/>
<path d="M0 0 C1.98 0.99 3.96 1.98 6 3 C5.67 3.66 5.34 4.32 5 5 C2.0625 4.625 2.0625 4.625 -1 4 C-1.33 3.34 -1.66 2.68 -2 2 C-1.34 2 -0.68 2 0 2 C0 1.34 0 0.68 0 0 Z " fill="#94562B" transform="translate(132,10)"/>
<path d="M0 0 C1.5 1.25 1.5 1.25 3 3 C3 4.32 3 5.64 3 7 C1.35 7 -0.3 7 -2 7 C-2 6.34 -2 5.68 -2 5 C-1.34 5 -0.68 5 0 5 C-0.33 4.01 -0.66 3.02 -1 2 C-0.67 1.34 -0.34 0.68 0 0 Z " fill="#EDA47E" transform="translate(138,68)"/>
<path d="M0 0 C0.99 0.66 1.98 1.32 3 2 C3 2.99 3 3.98 3 5 C0.03 4.505 0.03 4.505 -3 4 C-2.01 2.68 -1.02 1.36 0 0 Z " fill="#9A5A30" transform="translate(129,120)"/>
<path d="M0 0 C0.66 0.33 1.32 0.66 2 1 C1.67 1.99 1.34 2.98 1 4 C-1.31 3.67 -3.62 3.34 -6 3 C-3 1 -3 1 0 0 Z " fill="#E8A179" transform="translate(76,72)"/>
<path d="M0 0 C0.66 0 1.32 0 2 0 C2.33 2.31 2.66 4.62 3 7 C1.68 7.33 0.36 7.66 -1 8 C-0.67 5.36 -0.34 2.72 0 0 Z " fill="#FABD6E" transform="translate(205,62)"/>
</svg>
