<?xml version="1.0" encoding="UTF-8"?>
<svg version="1.1" xmlns="http://www.w3.org/2000/svg" width="512" height="512">
<path d="M0 0 C1.33875687 0.00303635 1.33875687 0.00303635 2.70455933 0.00613403 C4.10688309 0.00350555 4.10688309 0.00350555 5.53753662 0.00082397 C8.6440107 -0.00359617 11.75042837 -0.00065598 14.85690308 0.00271606 C17.00542207 0.00204307 19.15394099 0.00107309 21.30245972 -0.00018311 C25.81182579 -0.0016603 30.3211721 0.00049517 34.83053589 0.00515747 C40.62488885 0.01085477 46.41919549 0.00757588 52.21354675 0.00158501 C56.65203198 -0.00202002 61.09050614 -0.00088229 65.5289917 0.0017128 C67.66613775 0.00238223 69.80328479 0.00155309 71.94042969 -0.00076675 C74.92172934 -0.00329233 77.90295288 0.00054597 80.88424683 0.00613403 C81.7767514 0.0041098 82.66925598 0.00208557 83.58880615 0 C89.68014075 0.02126624 89.68014075 0.02126624 90.79440308 1.13552856 C90.90338372 2.50875974 90.95022195 3.88703068 90.97018433 5.26443481 C91.4885078 26.84443922 95.98884396 47.6143038 110.79440308 64.13552856 C111.4363562 64.92959106 112.07830933 65.72365356 112.73971558 66.54177856 C120.46979386 75.78364338 130.64766413 83.46034673 141.79440308 88.13552856 C142.50080933 88.46939575 143.20721558 88.80326294 143.93502808 89.14724731 C162.43358703 97.38584393 186.99012012 98.0735019 206.05368042 91.33718872 C215.88403689 87.56257734 224.69133598 82.9312318 232.79440308 76.13552856 C234.06670776 75.1049231 234.06670776 75.1049231 235.36471558 74.05349731 C251.8002524 60.10590872 262.03665768 39.889346 264.04684448 18.44216919 C264.4648101 12.67643819 264.67487971 6.91448337 264.79440308 1.13552856 C268.17375916 -0.55414948 272.00946454 -0.00241993 275.72628784 0.00613403 C277.11420029 0.00350555 277.11420029 0.00350555 278.53015137 0.00082397 C281.59872291 -0.00358929 284.66723716 -0.00065862 287.73580933 0.00271606 C289.86047883 0.00204293 291.98514826 0.00107283 294.1098175 -0.00018311 C298.56612887 -0.00165932 303.02242021 0.00049225 307.47872925 0.00515747 C313.20467247 0.01085817 318.93056885 0.00757311 324.65651035 0.00158501 C329.04438127 -0.00201971 333.43224099 -0.00088249 337.82011223 0.0017128 C339.9321385 0.00238214 342.04416577 0.00155341 344.15619087 -0.00076675 C347.10145914 -0.00329218 350.04665035 0.0005456 352.99191284 0.00613403 C354.31428703 0.00309769 354.31428703 0.00309769 355.66337585 0 C361.68013999 0.02126548 361.68013999 0.02126548 362.79440308 1.13552856 C362.89845614 2.51683756 362.93400925 3.90338756 362.9415741 5.28858948 C362.95230705 6.63206703 362.95230705 6.63206703 362.96325684 8.00268555 C362.96594574 8.99325958 362.96863464 9.98383362 362.97140503 11.00442505 C362.97797623 12.04189377 362.98454742 13.07936249 362.99131775 14.14826965 C363.01111634 17.60105453 363.02273152 21.05379566 363.03268433 24.50662231 C363.03675985 25.68474047 363.04083538 26.86285862 363.04503441 28.07667732 C363.06592894 34.31919303 363.08021266 40.56168657 363.08956909 46.80422974 C363.10060518 53.24353437 363.13496334 59.68249072 363.17474079 66.12167263 C363.2009419 71.07780075 363.20926435 76.03384664 363.21285057 80.99003792 C363.21771208 83.36259358 363.22931353 85.73514567 363.24788857 88.10763359 C363.27234002 91.43939197 363.27130289 94.77025991 363.26437378 98.1020813 C363.28358887 99.56061523 363.28358887 99.56061523 363.30319214 101.0486145 C363.24486987 108.78449941 361.61988606 115.75290809 356.57565308 121.79177856 C355.82284058 122.40021606 355.07002808 123.00865356 354.29440308 123.63552856 C353.16518433 124.57912231 353.16518433 124.57912231 352.01315308 125.54177856 C347.91950137 128.48228894 345.16134195 129.3858946 340.07991505 129.39838409 C338.90708023 129.40606638 337.73424541 129.41374867 336.52587014 129.42166376 C335.23630196 129.4199308 333.94673378 129.41819783 332.61808777 129.41641235 C331.23511349 129.42158008 329.8521422 129.42760653 328.46917504 129.43441916 C324.66464409 129.45056097 320.8601886 129.45413839 317.05562747 129.45561409 C312.95389889 129.45931493 308.85220948 129.47440954 304.75050354 129.48788452 C295.77935329 129.51505401 286.80822092 129.52710118 277.83703637 129.53590584 C272.23541589 129.54143051 266.63380232 129.54990521 261.03218651 129.55891418 C245.52323115 129.58330045 230.01428132 129.60389854 214.5053072 129.61066437 C213.51259436 129.6111035 212.51988152 129.61154263 211.49708648 129.61199507 C210.00444999 129.6126499 210.00444999 129.6126499 208.48165923 129.61331797 C206.46522033 129.6142049 204.44878143 129.61509803 202.43234253 129.61599731 C200.93200688 129.6166616 200.93200688 129.6166616 199.40136143 129.61733931 C183.19603085 129.62523446 166.9908802 129.66013947 150.78561912 129.70671636 C134.14826927 129.75414916 117.51100969 129.77906834 100.87359113 129.7814002 C91.53214197 129.78323348 82.1909272 129.79473178 72.84954262 129.83103943 C64.89454653 129.86184948 56.93985724 129.87207797 48.98481283 129.85556322 C44.92682986 129.84775249 40.86946462 129.84959577 36.81155777 129.87767792 C33.09338593 129.90317333 29.37629534 129.9007491 25.65812483 129.87649649 C23.682591 129.87073822 21.70703836 129.89444336 19.73165303 129.91934061 C10.84107438 129.82053155 5.71781374 127.72340684 -0.74881476 121.69748163 C-7.08167635 114.86451364 -7.64490053 107.1371042 -7.56204224 98.32913208 C-7.56408661 97.27618454 -7.56613098 96.223237 -7.5682373 95.13838196 C-7.57123018 91.68021928 -7.55281914 88.2225403 -7.53372192 84.76443481 C-7.53066281 82.35687884 -7.52878785 79.9493211 -7.52804565 77.54176331 C-7.52345269 72.50922825 -7.50905986 67.47685412 -7.48684692 62.44436646 C-7.45845885 55.9787267 -7.44762371 49.51321299 -7.44316483 43.04751682 C-7.43901989 38.08318308 -7.42921194 33.11887504 -7.41728973 28.15455437 C-7.41157673 25.76900374 -7.40682145 23.38345063 -7.40302277 20.99789619 C-7.39618794 17.67727372 -7.38257168 14.35675348 -7.36672974 11.03616333 C-7.36561188 10.0424472 -7.36449402 9.04873108 -7.36334229 8.02490234 C-7.35763214 7.12636032 -7.351922 6.2278183 -7.34603882 5.30204773 C-7.34306416 4.51693093 -7.34008949 3.73181414 -7.33702469 2.92290592 C-7.02784644 -1.28182357 -3.39613825 0.01185669 0 0 Z " fill="#000000" transform="translate(66.20559692382813,279.8644714355469)"/>
<path d="M0 0 C1.30492905 -0.00637985 2.60985809 -0.0127597 3.95433044 -0.01933289 C5.37588463 -0.02086158 6.79743932 -0.02197553 8.21899414 -0.02270508 C9.68103569 -0.02591974 11.14307692 -0.02928397 12.6051178 -0.03279114 C15.66741685 -0.03877357 18.72968771 -0.04063192 21.79199219 -0.04003906 C25.71048543 -0.03993742 29.62879757 -0.05359587 33.54724789 -0.07081127 C36.5661756 -0.08194404 39.58505968 -0.08395789 42.60400581 -0.08342934 C44.04845365 -0.08460728 45.49290269 -0.08901867 46.93733025 -0.0967617 C48.95949839 -0.10658807 50.98171982 -0.10241247 53.00390625 -0.09765625 C54.15322128 -0.09908127 55.30253632 -0.10050629 56.48667908 -0.10197449 C60.64056596 0.23146996 63.40624813 0.87261832 66.262146 4.00476074 C66.76320862 4.75817749 67.26427124 5.51159424 67.78051758 6.2878418 C68.35751404 7.14212769 68.9345105 7.99641357 69.5289917 8.87658691 C70.43708588 10.26255066 70.43708588 10.26255066 71.36352539 11.67651367 C71.99776428 12.62337036 72.63200317 13.57022705 73.28546143 14.54577637 C75.30775115 17.57120206 77.31215879 20.60802418 79.31665039 23.64526367 C80.68140717 25.69158976 82.04727976 27.73717215 83.41430664 29.78198242 C85.90636716 33.51780286 88.39496375 37.25579882 90.87036133 41.00268555 C91.36824158 41.75610229 91.86612183 42.50951904 92.37908936 43.2857666 C93.56665039 45.14526367 93.56665039 45.14526367 94.56665039 47.14526367 C95.72652466 47.15335052 96.88639893 47.16143738 98.0814209 47.16976929 C109.02783724 47.24735279 119.97413117 47.33512283 130.92038727 47.43279076 C136.54756723 47.48267389 142.17472914 47.52900465 147.80200195 47.56713867 C153.23560461 47.60409226 158.6690533 47.65047956 164.1025238 47.70332718 C166.17245271 47.72181763 168.24241455 47.7369452 170.31239319 47.74860764 C173.21826851 47.76556175 176.1237953 47.79461873 179.02954102 47.82641602 C179.87974823 47.8285762 180.72995544 47.83073639 181.60592651 47.83296204 C190.32284909 47.95430864 197.42438267 49.50815055 204.12915039 55.39526367 C209.9917142 62.00943822 211.72507048 67.87172016 211.68017578 76.57592773 C211.68035658 77.70664011 211.68035658 77.70664011 211.68054104 78.86019516 C211.67979624 81.29378996 211.67218776 83.72730762 211.66430664 86.16088867 C211.66283588 87.66593387 211.661816 89.17097958 211.66125488 90.67602539 C211.65601755 96.24911263 211.64205631 101.82218891 211.62915039 107.39526367 C211.60852539 119.85276367 211.58790039 132.31026367 211.56665039 145.14526367 C178.23665039 145.14526367 144.90665039 145.14526367 110.56665039 145.14526367 C108.91665039 141.18526367 107.26665039 137.22526367 105.56665039 133.14526367 C101.34347549 124.14680156 96.20635842 116.53327511 89.56665039 109.14526367 C88.98012695 108.4878418 88.39360352 107.83041992 87.78930664 107.15307617 C72.39119445 90.84919268 49.11838773 82.54400884 27.06665039 81.77026367 C1.93803945 82.21501785 -19.82114513 92.35117757 -37.43334961 110.14526367 C-46.92856655 120.30742746 -52.31356969 132.34581388 -57.43334961 145.14526367 C-90.76334961 145.14526367 -124.09334961 145.14526367 -158.43334961 145.14526367 C-158.49522461 132.77026367 -158.55709961 120.39526367 -158.62084961 107.64526367 C-158.64816162 103.75036133 -158.67547363 99.85545898 -158.70361328 95.8425293 C-158.71716309 91.05444336 -158.71716309 91.05444336 -158.71968079 88.8067627 C-158.72426136 87.25042135 -158.73475795 85.69409008 -158.75007629 84.13781738 C-158.77221526 81.76836907 -158.77506173 79.39956639 -158.77392578 77.0300293 C-158.78472011 76.34681862 -158.79551443 75.66360794 -158.80663586 74.95969391 C-158.75504881 66.85609186 -155.78744054 60.74921805 -150.32397461 54.90698242 C-145.10957965 50.04811439 -139.61615313 48.05120786 -132.4143486 48.18190384 C-130.15641767 48.32295876 -127.90678855 48.51138402 -125.65356445 48.71411133 C-123.88758665 48.8549026 -122.12141594 48.99328928 -120.35508728 49.12960815 C-119.42582869 49.20163326 -118.49657009 49.27365837 -117.53915215 49.34786606 C-74.9032936 54.69244965 -74.9032936 54.69244965 -35.30883789 43.99389648 C-24.6254654 34.42383539 -18.41586516 20.78793453 -14.27598572 7.25872803 C-13.29598394 4.80072889 -12.23231382 3.08982962 -10.43334961 1.14526367 C-7.10269349 -0.23690923 -3.56472955 0.01183091 0 0 Z M136.56665039 89.14526367 C134.94732287 91.41722926 133.80440276 93.62215308 132.56665039 96.14526367 C132.23665039 96.80526367 131.90665039 97.46526367 131.56665039 98.14526367 C130.90525357 105.80011868 130.64854137 112.89830625 135.56665039 119.14526367 C140.18962985 124.00952599 144.55320744 127.6691863 151.39868164 128.48120117 C160.48156543 128.6002429 165.824387 126.93098057 172.44165039 120.70776367 C177.06159062 116.07707939 177.85820442 111.63817662 177.87915039 105.20776367 C177.8959082 104.02311523 177.91266602 102.8384668 177.92993164 101.61791992 C177.32567929 95.84178721 174.58191756 91.26619577 170.56665039 87.14526367 C159.29807277 78.94783528 146.73427968 79.46795153 136.56665039 89.14526367 Z " fill="#000000" transform="translate(217.433349609375,119.854736328125)"/>
<path d="M0 0 C0 0.66 0 1.32 0 2 C0.58265625 2.26039063 1.1653125 2.52078125 1.765625 2.7890625 C13.83020056 9.32755625 21.21821935 24.45136419 25 37 C29.97515987 56.17843885 28.9774034 76.11897338 19.0234375 93.72753906 C16.87320587 97.29333984 14.63383719 100.77311337 12 104 C11.34 104 10.68 104 10 104 C9.76667969 104.56203125 9.53335938 105.1240625 9.29296875 105.703125 C2.77977275 117.27339463 -12.29416285 124.24598462 -24.3125 128.5 C-43.98564069 133.49102432 -65.01414943 130.88979988 -82.4765625 120.6640625 C-86.9143172 117.73761745 -90.99770471 114.49341238 -95 111 C-95.62648437 110.46890625 -96.25296875 109.9378125 -96.8984375 109.390625 C-109.98753344 97.42683595 -116.9271474 78.39573131 -118.21484375 61.1171875 C-118.87783887 41.22733393 -111.60614194 22.89273459 -98.48828125 8.18359375 C-96.38562106 6.01998689 -94.3351277 3.91055902 -92 2 C-91.34 2 -90.68 2 -90 2 C-90 1.34 -90 0.68 -90 0 C-63.39439342 -19.2661289 -26.44484235 -20.74471732 0 0 Z M-80 14 C-80 14.66 -80 15.32 -80 16 C-80.59167969 16.26296875 -81.18335938 16.5259375 -81.79296875 16.796875 C-90.97759145 21.80371357 -95.83988161 33.93588026 -99.17578125 43.30078125 C-103.07417848 60.79737923 -99.13156534 76.74307035 -89.8046875 91.61328125 C-89.20914063 92.40089844 -88.61359375 93.18851562 -88 94 C-87.34 94 -86.68 94 -86 94 C-85.34 95.32 -84.68 96.64 -84 98 C-83.34 98 -82.68 98 -82 98 C-82 98.66 -82 99.32 -82 100 C-68.60125392 111.76836769 -53.1082454 114.06000455 -36 113 C-28.15914632 111.89724428 -21.61330788 109.30369845 -15 105 C-14.30390625 104.55011719 -13.6078125 104.10023438 -12.890625 103.63671875 C-11.20913889 102.49667117 -9.59624811 101.25662086 -8 100 C-8 99.34 -8 98.68 -8 98 C-6.68 97.34 -5.36 96.68 -4 96 C-4 95.34 -4 94.68 -4 94 C-3.34 94 -2.68 94 -2 94 C8.85711139 81.67829293 10.75458447 66.10294556 10.17919922 50.47021484 C9.48355731 40.8809712 5.29258092 32.83301976 0 25 C-0.99 23.515 -0.99 23.515 -2 22 C-2.66 22 -3.32 22 -4 22 C-4.2475 21.38125 -4.495 20.7625 -4.75 20.125 C-6.20628639 17.64931313 -7.37812506 17.04874998 -10 16 C-10 15.34 -10 14.68 -10 14 C-18.11514152 9.01244587 -25.5323176 4.84890767 -35 3 C-36.03125 2.773125 -37.0625 2.54625 -38.125 2.3125 C-53.69416077 0.62019992 -67.16098864 5.44065909 -80 14 Z " fill="#000000" transform="translate(289,231)"/>
<path d="M0 0 C11.60940188 5.84557912 19.50346838 14.6563743 23.5859375 26.95703125 C26.63372379 37.3621081 25.59491808 46.41302275 21.3125 56.4375 C15.6000032 66.43114564 7.68349154 74.19107717 -3.40625 77.7734375 C-16.40356606 80.4038467 -27.83872054 78.91929105 -39.171875 71.8984375 C-47.74441315 65.82862022 -53.15369666 57.57271337 -55.6875 47.4375 C-55.914375 46.591875 -56.14125 45.74625 -56.375 44.875 C-57.88186795 33.12142998 -54.95365655 21.84542758 -47.6875 12.4375 C-35.82840344 -0.48936962 -16.92947152 -6.28808942 0 0 Z M-36.375 31.75 C-39.5040747 35.38649222 -39.39889595 37.93389578 -39.16796875 42.62109375 C-38.0028462 49.45079584 -33.66808797 54.06388117 -28.3671875 58.25 C-23.44024514 61.73323367 -18.57649461 62.10770274 -12.6875 61.4375 C-10.01015515 60.66053517 -10.01015515 60.66053517 -8.6875 58.4375 C-8.02980787 54.34164398 -8.02980787 54.34164398 -8.6875 50.4375 C-12.79474717 46.53561519 -17.29301677 45.55359998 -22.6875 44.4375 C-22.76226562 43.76203125 -22.83703125 43.0865625 -22.9140625 42.390625 C-23.7589232 36.36359284 -23.7589232 36.36359284 -27.625 31.8125 C-31.34078864 30.14418673 -32.71155343 29.96087493 -36.375 31.75 Z " fill="#000000" transform="translate(259.6875,250.5625)"/>
<path d="M0 0 C0.63164062 0.51175781 1.26328125 1.02351563 1.9140625 1.55078125 C1.9140625 2.21078125 1.9140625 2.87078125 1.9140625 3.55078125 C3.2340625 4.21078125 4.5540625 4.87078125 5.9140625 5.55078125 C5.9140625 6.21078125 5.9140625 6.87078125 5.9140625 7.55078125 C6.5740625 7.55078125 7.2340625 7.55078125 7.9140625 7.55078125 C16.68847494 17.54079239 21.74839604 30.67335656 22.1640625 43.92578125 C21.93880144 47.19206657 21.81744479 48.94615286 19.9140625 51.55078125 C16.69969721 53.69369144 14.73979641 53.85103916 10.94921875 54.01171875 C7.87070629 53.31447408 6.79721053 52.06432212 4.9140625 49.55078125 C4.297616 46.99281634 3.86812976 44.64142138 3.5390625 42.05078125 C1.81998802 31.23514289 -2.11927735 21.34106758 -11.0859375 14.55078125 C-18.06594876 9.53278338 -24.84658252 7.65534173 -33.24755859 6.66308594 C-36.64633641 6.21911911 -38.79656808 5.77672089 -41.52734375 3.64453125 C-43.62351554 0.82862127 -44.0859375 -0.93370798 -44.0859375 -4.44921875 C-41.25596424 -10.00435144 -41.25596424 -10.00435144 -38.30859375 -11.125 C-24.51430277 -13.1371725 -11.29524273 -7.34028022 0 0 Z " fill="#000000" transform="translate(471.0859375,115.44921875)"/>
<path d="M0 0 C1.14113754 -0.0049926 1.14113754 -0.0049926 2.30532837 -0.01008606 C3.91415808 -0.01514592 5.52299828 -0.01749468 7.13183594 -0.01733398 C9.58546381 -0.01951693 12.03863937 -0.03767243 14.4921875 -0.05664062 C16.05729013 -0.05957551 17.6223949 -0.06155967 19.1875 -0.0625 C19.91786469 -0.06968552 20.64822937 -0.07687103 21.40072632 -0.08427429 C25.44425546 -0.06626204 28.63369138 0.25456371 32.2265625 2.16796875 C34.60884357 5.02670603 35.24034267 6.49274059 35.1640625 10.23046875 C34.03457607 13.76952624 33.21841261 14.95792034 30.2265625 17.16796875 C27.22785598 17.76404787 24.27593479 17.72855086 21.2265625 17.69921875 C20.35386719 17.70304565 19.48117188 17.70687256 18.58203125 17.71081543 C16.73957158 17.71353365 14.89707326 17.70617869 13.0546875 17.68945312 C10.23610316 17.66804123 7.42006765 17.68925676 4.6015625 17.71484375 C2.80989021 17.71220046 1.01821951 17.70707544 -0.7734375 17.69921875 C-1.61519531 17.70731567 -2.45695312 17.7154126 -3.32421875 17.72375488 C-9.14958214 17.63049901 -9.14958214 17.63049901 -12.2734375 15.31445312 C-14.27099358 12.45597119 -14.7734375 10.66559725 -14.7734375 7.16796875 C-11.03038039 0.08289637 -7.44754148 0.01128493 0 0 Z " fill="#000000" transform="translate(105.7734375,135.83203125)"/>
<path d="M0 0 C8.16511734 0.38488769 13.23801827 3.75632736 18.6875 9.625 C22.31420506 14.95838979 24.55802231 20.18940364 23.8125 26.75 C22.60543121 30.09265205 21.89193151 30.69704566 18.8125 32.75 C11.87533662 33.41068223 11.87533662 33.41068223 8.5 31.3125 C6.83122644 28.77843644 6.38865061 27.14522734 5.6875 24.25 C4.78048015 21.14167356 4.3325011 20.05847523 1.5078125 18.3828125 C-0.24392841 17.72781372 -2.01855719 17.13013494 -3.8125 16.6015625 C-6.36828245 15.68517998 -7.51581647 14.86187606 -9.1875 12.75 C-10.44002039 8.99243883 -10.32055157 7.14915472 -9.0625 3.375 C-5.68336894 0.28970643 -4.46655798 0.21940987 0 0 Z " fill="#000000" transform="translate(437.1875,136.25)"/>
<path d="M0 0 C4.11268562 0.0412447 4.80047383 0.05947444 7.875 3.0625 C9.37091306 6.90913358 9.53645166 8.55926398 8.1875 12.4375 C6.625 14.8125 6.625 14.8125 4.1875 16.4375 C1.40696893 16.99703192 -1.0325798 17.00261725 -3.8125 16.4375 C-6.56421298 14.53246794 -7.53051879 13.1518524 -8.75 10.0625 C-8.83406294 6.53185632 -7.5868428 4.44023397 -5.8125 1.4375 C-4.16013915 -0.21486085 -2.27036456 0.10969551 0 0 Z " fill="#000000" transform="translate(371.8125,216.5625)"/>
</svg>
