<?xml version="1.0" encoding="UTF-8"?>
<svg version="1.1" xmlns="http://www.w3.org/2000/svg" width="512" height="512">
<path d="M0 0 C3.59972174 0.00020721 7.19943589 -0.00534417 10.79915392 -0.01005757 C17.81928231 -0.0182917 24.8394023 -0.02110894 31.85953512 -0.02166995 C37.56598002 -0.02214784 43.27242219 -0.02421606 48.97886622 -0.02737057 C65.19502207 -0.03615131 81.41117136 -0.0407931 97.62732961 -0.0400401 C98.49780773 -0.04000014 99.36828584 -0.03996019 100.26514208 -0.03991902 C101.13669323 -0.03987814 102.00824438 -0.03983726 102.90620617 -0.03979514 C117.06702542 -0.03938767 131.22781822 -0.04898935 145.38862982 -0.06305739 C159.96533828 -0.07742355 174.54203383 -0.08432768 189.11874956 -0.08346361 C197.28838966 -0.0831321 205.4580019 -0.08586002 213.6276356 -0.09664166 C220.57207072 -0.105749 227.51646528 -0.10791936 234.46090379 -0.10113224 C238.0003269 -0.09787045 241.53967217 -0.09779843 245.07908785 -0.10648549 C248.91972157 -0.1158151 252.76024195 -0.10956701 256.60088122 -0.10185444 C257.71274395 -0.10699801 258.82460667 -0.11214157 259.97016221 -0.117441 C276.32780858 -0.0448765 276.32780858 -0.0448765 282.16089404 5.33288372 C282.78737841 5.8833134 283.41386279 6.43374309 284.05933154 7.00085247 C289.77029123 14.09432955 289.24465338 21.67841513 289.21948779 30.39928997 C289.22405549 31.78738968 289.22936281 33.17548713 289.23537219 34.56358135 C289.24427373 37.46260612 289.24191292 40.36135496 289.23193896 43.26037395 C289.22043183 46.96485472 289.24070102 50.66838468 289.2698561 54.37274063 C289.288247 57.23562913 289.28792036 60.09829071 289.28221858 62.96122348 C289.28206582 64.32670162 289.28807196 65.69219558 289.30051005 67.05761707 C289.39414557 79.01653142 289.39414557 79.01653142 287.00488818 82.96545208 C284.78589404 85.14538372 284.78589404 85.14538372 280.78589404 86.14538372 C280.78589404 91.75538372 280.78589404 97.36538372 280.78589404 103.14538372 C282.43589404 103.80538372 284.08589404 104.46538372 285.78589404 105.14538372 C288.5965543 108.70455415 289.1567781 111.37817075 289.12647021 115.85363567 C289.12624362 116.97442012 289.12601702 118.09520458 289.12578356 119.2499522 C289.11029971 120.44907741 289.09481585 121.64820262 289.07886279 122.88366497 C289.07461794 124.11956874 289.0703731 125.35547252 289.06599963 126.62882793 C289.05207183 129.90214454 289.02515381 133.17501279 288.99188769 136.44817913 C288.96110651 139.79316886 288.94773322 143.13817818 288.93237841 146.48327434 C288.89932046 153.03748553 288.84912867 159.59139796 288.78589404 166.14538372 C289.49697817 166.13650127 290.20806231 166.12761882 290.94069445 166.11846721 C297.66371428 166.03809863 304.38659876 165.9773069 311.10999167 165.93813503 C314.56605219 165.91731867 318.02171357 165.88911219 321.47754443 165.8436259 C325.45658001 165.79158481 329.4354577 165.77238912 333.41480029 165.75475872 C334.64735049 165.73411357 335.87990069 165.71346843 337.1498009 165.69219768 C344.91693203 165.69017589 349.71889595 166.33371286 355.52808154 171.77819622 C359.55373697 177.08095613 359.93448467 180.19058062 359.93306506 186.73553264 C359.93674174 187.63547317 359.94041843 188.53541369 359.94420654 189.46262515 C359.95527309 192.49653211 359.95909224 195.53040487 359.96289599 198.56432903 C359.96915838 200.73220226 359.97580498 202.9000744 359.98280871 205.06794536 C360.00023899 210.97093036 360.01077593 216.87390725 360.01901424 222.77691162 C360.02415994 226.46251938 360.03023586 230.1481246 360.03652537 233.83373058 C360.05558283 245.35820811 360.06981296 256.8826792 360.07813734 268.40716946 C360.08791374 281.72313926 360.11424148 295.03889302 360.15463823 308.35480797 C360.18476862 318.63851022 360.19960328 328.92216478 360.20291835 339.20591033 C360.2052723 345.35196004 360.21427758 351.49783247 360.23937953 357.64383495 C360.26261139 363.42551179 360.26691305 369.20689401 360.25661814 374.98860538 C360.25612149 377.11144731 360.26247992 379.2343035 360.27617419 381.35710132 C360.29381862 384.25418957 360.28682344 387.15021195 360.27364123 390.04730022 C360.28461047 390.8883585 360.29557972 391.72941679 360.30688137 392.59596169 C360.23563511 399.0767312 358.07977658 402.48152012 353.84839404 407.39538372 C349.95542821 410.69850623 346.20724068 411.39534209 341.1954428 411.40265262 C340.07573456 411.40910151 338.95602632 411.41555041 337.80238754 411.42219472 C335.9647641 411.41754891 335.9647641 411.41754891 334.09001696 411.41280925 C332.78465261 411.41734037 331.47928825 411.42187148 330.13436741 411.4265399 C326.51258001 411.43877617 322.89088494 411.4385087 319.26908159 411.43615115 C315.36235334 411.43574314 311.45565475 411.44678061 307.5489403 411.45626628 C299.89542194 411.47288074 292.24193438 411.47837603 284.58839949 411.47949104 C278.36718647 411.48044131 272.14598362 411.48455057 265.92477381 411.49089229 C248.28682561 411.508506 230.64890175 411.51773097 213.01094469 411.51623134 C211.58458002 411.51611147 211.58458002 411.51611147 210.1293999 411.51598918 C209.17732916 411.51590742 208.22525842 411.51582566 207.24433706 411.51574142 C191.81441886 411.51492851 176.38459827 411.53406718 160.9547083 411.56226592 C145.11173056 411.59099113 129.26880042 411.60480641 113.42579597 411.60307837 C104.53102322 411.60241433 95.6363528 411.60791239 86.74160349 411.62943447 C79.16835885 411.64764151 71.59526292 411.65199756 64.02200588 411.63841562 C60.15869257 411.63188349 56.29566461 411.63177735 52.43237841 411.64912212 C48.24227678 411.66774054 44.05283641 411.65530482 39.86272204 411.63986003 C38.64433191 411.65014716 37.42594179 411.66043429 36.17063075 411.67103314 C29.23659948 411.6144703 24.71372808 410.81285981 18.78589404 407.14538372 C18.78589404 406.48538372 18.78589404 405.82538372 18.78589404 405.14538372 C18.12589404 405.14538372 17.46589404 405.14538372 16.78589404 405.14538372 C11.63642883 397.4122768 12.27272199 389.53635788 12.39526904 380.61413372 C12.40273986 379.01131704 12.40842881 377.40849116 12.41241992 375.80566204 C12.42761026 371.61004723 12.46683378 367.41499624 12.51123583 363.21960247 C12.5523321 358.92931544 12.57046142 354.63893631 12.59058154 350.34850872 C12.63333562 341.94720982 12.70150531 333.54636713 12.78589404 325.14538372 C11.9412459 325.16417583 11.9412459 325.16417583 11.07953417 325.18334758 C-18.56244648 325.83546968 -48.19599211 326.25441648 -77.84495008 326.26876628 C-79.99221757 326.27035822 -82.13947368 326.27389628 -84.2867378 326.27795208 C-98.81037534 326.30203699 -113.3319015 326.21452291 -127.85082471 325.82507122 C-129.01217435 325.80308666 -130.17352399 325.7811021 -131.37006605 325.75845134 C-143.12859809 325.37759262 -143.12859809 325.37759262 -147.75466043 320.53158331 C-152.0535099 315.27560506 -153.08012436 311.54005266 -152.95582044 304.83370769 C-152.96306369 303.92864061 -152.97030693 303.02357354 -152.97776967 302.09108019 C-152.99460284 299.07514342 -152.96875729 296.06113548 -152.94286573 293.04528606 C-152.94608636 290.8765237 -152.95190563 288.70776388 -152.96012342 286.5390147 C-152.97464215 280.66091783 -152.95173694 274.78350621 -152.92126429 268.90549219 C-152.89488151 262.7517097 -152.9001959 256.59794781 -152.90134656 250.44412029 C-152.89853869 240.11265418 -152.8725131 229.78145274 -152.8315376 219.45007122 C-152.78433817 207.50526906 -152.76854428 195.56075653 -152.77074426 183.61586785 C-152.77277052 170.89644448 -152.75194998 158.17713275 -152.72440445 145.45774305 C-152.71801079 141.79300469 -152.71588097 138.12828434 -152.71468771 134.46354091 C-152.71167421 128.70638673 -152.69335851 122.94947569 -152.66318929 117.19240177 C-152.65442724 115.07925519 -152.65073558 112.96608063 -152.6524719 110.8529166 C-152.65394463 107.96938344 -152.63697257 105.08653077 -152.61524427 102.20309246 C-152.61989008 101.36612689 -152.62453588 100.52916132 -152.62932247 99.66683316 C-152.56804631 94.74588873 -151.83166206 91.46481375 -149.21410596 87.14538372 C-148.55410596 87.14538372 -147.89410596 87.14538372 -147.21410596 87.14538372 C-147.21410596 86.48538372 -147.21410596 85.82538372 -147.21410596 85.14538372 C-141.06862457 80.42908404 -136.11155976 79.99327767 -128.57811964 80.03185833 C-127.82636457 80.0317123 -127.0746095 80.03156627 -126.30007398 80.03141582 C-123.82737771 80.03210976 -121.35475775 80.03987782 -118.88207471 80.04772747 C-117.16286228 80.04959349 -115.44364932 80.05101652 -113.72443616 80.05201519 C-109.20844517 80.05582586 -104.69248655 80.06564374 -100.17650831 80.07671916 C-95.56469635 80.08696448 -90.95287915 80.09151949 -86.34105909 80.09655559 C-77.29872719 80.10726734 -68.25641927 80.12432632 -59.21410596 80.14538372 C-59.22520902 79.33629558 -59.23631208 78.52720745 -59.24775159 77.69360149 C-59.34821507 70.04375202 -59.42420251 62.3942254 -59.47316682 54.74388683 C-59.49918698 50.81135056 -59.5344437 46.8793624 -59.59130323 42.94714153 C-59.64589749 39.14751146 -59.67558344 35.34840634 -59.68849218 31.54841411 C-59.69768333 30.10357711 -59.71563152 28.65876668 -59.74275625 27.21415508 C-59.88792985 19.1571554 -59.95374806 12.373538 -54.21410596 6.14538372 C-49.13266083 1.53663115 -45.61645159 0.90579319 -38.9203285 0.5919627 C-37.59772639 0.52881202 -37.59772639 0.52881202 -36.24840504 0.46438557 C-24.17105698 -0.05224887 -12.08608329 -0.00435679 0 0 Z M-11.21410596 201.14538372 C-11.21410596 201.80538372 -11.21410596 202.46538372 -11.21410596 203.14538372 C-11.87410596 203.14538372 -12.53410596 203.14538372 -13.21410596 203.14538372 C-18.17421887 209.26608015 -20.09968947 215.68030281 -21.28051221 223.36022747 C-22.21410596 226.14538372 -22.21410596 226.14538372 -24.58519971 228.03210247 C-28.20907344 229.56672953 -30.43195378 229.09092176 -34.21410596 228.14538372 C-35.91129723 227.19811417 -37.58345833 226.2031011 -39.21410596 225.14538372 C-45.25462712 222.85415155 -51.61243838 223.79370035 -57.39769971 226.23913372 C-65.06314705 230.06361497 -67.83983616 237.17070703 -71.28441846 244.54382122 C-72.21410596 246.14538372 -72.21410596 246.14538372 -74.21410596 247.14538372 C-78.10526079 247.38361768 -81.47386383 247.14231026 -85.21410596 246.14538372 C-93.9248376 244.04641224 -102.77673237 244.33292585 -111.21410596 247.14538372 C-111.21410596 259.35538372 -111.21410596 271.56538372 -111.21410596 284.14538372 C-70.29410596 284.14538372 -29.37410596 284.14538372 12.78589404 284.14538372 C12.78589404 254.11538372 12.78589404 224.08538372 12.78589404 193.14538372 C3.76194271 193.14538372 -4.12036476 195.39370166 -11.21410596 201.14538372 Z " fill="#030303" transform="translate(152.21410596370697,49.85461628437042)"/>
<path d="M0 0 C87.78 0 175.56 0 266 0 C266 37.95 266 75.9 266 115 C261.70288012 111.31675439 257.70169624 107.82199102 253.75488281 103.83666992 C253.28075455 103.3594751 252.80662628 102.88228027 252.31813049 102.390625 C251.30330101 101.36871701 250.28960959 100.34567776 249.27698517 99.3215847 C247.67376487 97.70078672 246.06686532 96.08371871 244.45892334 94.46760559 C239.8929245 89.87730079 235.33278006 85.28121129 230.77685547 80.6809082 C227.97846086 77.85576771 225.17524303 75.03548857 222.36898041 72.21816444 C221.30334829 71.14632453 220.23961745 70.07259087 219.17783356 68.99693871 C217.69891422 67.49884941 216.21397898 66.00697944 214.72753906 64.51635742 C213.88483459 63.66619553 213.04213013 62.81603363 212.17388916 61.94010925 C208.67144205 58.81431509 205.03507242 58.43854746 200.49023438 58.56420898 C197.58830549 59.07204654 196.58192515 59.82273128 194.44921875 61.81640625 C193.41800903 62.77087646 193.41800903 62.77087646 192.3659668 63.74462891 C191.58519775 64.48890137 190.80442871 65.23317383 190 66 C189.07678955 66.85899902 188.1535791 67.71799805 187.20239258 68.60302734 C184.62692495 71.00900463 182.09133518 73.45290116 179.56982422 75.9152832 C178.51675656 76.93641491 177.45572638 77.94939404 176.38720703 78.9543457 C170.17639988 84.41169611 170.17639988 84.41169611 166.26147461 91.43188477 C166.19398425 94.56082273 166.66793186 96.56167006 168.5625 99.0625 C172.10252793 100.4240492 174.32840427 99.88155903 178 99 C180.2497941 97.26139782 182.0136371 95.69392804 183.93359375 93.65234375 C184.71779442 92.85540855 184.71779442 92.85540855 185.51783752 92.04237366 C187.17243397 90.35438609 188.80485907 88.64670483 190.4375 86.9375 C191.56044437 85.78443772 192.68478045 84.63272906 193.81054688 83.48242188 C196.55671779 80.67035712 199.28320527 77.84044392 202 75 C206.08375338 76.62262588 208.82165625 79.54692682 211.85424805 82.61132812 C212.42868652 83.18386826 213.003125 83.75640839 213.5949707 84.34629822 C215.48880517 86.23643364 217.37535282 88.13366316 219.26171875 90.03125 C220.57603595 91.34675943 221.89072316 92.66189929 223.20576477 93.97668457 C225.95840198 96.73088505 228.70764868 99.48841088 231.4543457 102.24853516 C234.98013555 105.79133959 238.5124975 109.32750048 242.04718304 112.86142731 C244.76086948 115.57538525 247.47194508 118.29193834 250.18213844 121.00938416 C251.48413727 122.31457076 252.7867476 123.61914764 254.08997154 124.92311096 C255.90716074 126.74246113 257.72102287 128.5650616 259.53393555 130.38867188 C260.07574966 130.93003281 260.61756378 131.47139374 261.17579651 132.02915955 C265.94790154 136.84262992 265.94790154 136.84262992 266.11352539 140.52197266 C266.10828857 141.5588623 266.10305176 142.59575195 266.09765625 143.6640625 C266.09443359 144.78554688 266.09121094 145.90703125 266.08789062 147.0625 C266.07951172 148.238125 266.07113281 149.41375 266.0625 150.625 C266.05798828 151.80835938 266.05347656 152.99171875 266.04882812 154.2109375 C266.03701467 157.14067507 266.02054258 160.07031272 266 163 C254.13432321 163.34920942 242.26988873 163.61489052 230.40009975 163.77718258 C224.88669949 163.85512284 219.37684044 163.96061327 213.86547852 164.1315918 C208.53533368 164.29589301 203.20856871 164.38452249 197.87608528 164.42315865 C195.85323962 164.45064773 193.83055706 164.50433375 191.80917168 164.58595085 C175.21023054 165.22884077 175.21023054 165.22884077 168.4548645 159.72122192 C164.59852584 156.10561451 161.27124 152.14088653 158 148 C156.65344254 146.47242532 155.30204943 144.94902448 153.9375 143.4375 C153.43992187 142.84839844 152.94234375 142.25929688 152.4296875 141.65234375 C150.09556651 138.95471212 147.5523859 136.49013258 145 134 C146.64990206 129.70402861 149.81742807 126.99482354 153.0625 123.875 C158.33478257 119.12597446 158.33478257 119.12597446 160.3125 112.5625 C160.32997909 109.04830548 160.32997909 109.04830548 158.4375 107 C154.78909163 105.50321708 152.81701432 105.97204391 149 107 C146.04427227 109.23461349 143.57975835 111.85255652 141.0625 114.5625 C140.37865234 115.27341797 139.69480469 115.98433594 138.99023438 116.71679688 C137.31239062 118.46503967 135.6501846 120.22569351 134 122 C127.60219808 116.69244438 121.84336079 110.88156814 116.05273438 104.92578125 C114.96895508 103.82556641 114.96895508 103.82556641 113.86328125 102.703125 C113.21657471 102.03958008 112.56986816 101.37603516 111.90356445 100.69238281 C107.83019006 97.070909 104.05315632 96.3367347 98.703125 96.52905273 C95.62617204 97.06512953 94.55103071 97.80424646 92.296875 99.9140625 C91.61334961 100.54852295 90.92982422 101.1829834 90.22558594 101.83666992 C86.11289438 105.834318 82.03543732 109.86177029 78 113.9375 C77.12988281 114.81212891 76.25976562 115.68675781 75.36328125 116.58789062 C73.23986451 118.72297449 71.11883622 120.86037205 69 123 C63.80211277 118.66120159 58.98360669 114.09156259 54.23828125 109.265625 C52.77552264 107.79023369 51.31262805 106.31497718 49.84960938 104.83984375 C47.5699286 102.53525787 45.29189126 100.22909106 43.01635742 97.92041016 C40.80303699 95.67693937 38.58358072 93.43968596 36.36328125 91.203125 C35.68405106 90.51043518 35.00482086 89.81774536 34.30500793 89.10406494 C33.66721909 88.46289734 33.02943024 87.82172974 32.37231445 87.16113281 C31.81606888 86.59742981 31.2598233 86.03372681 30.6867218 85.45294189 C27.72613457 82.90269252 25.52738258 82.04883172 21.625 81.6875 C14.71872498 82.28286854 10.72233796 85.86651315 6.1875 90.6875 C4.47475087 92.47697307 2.7488205 94.245221 1 96 C0.67 96 0.34 96 0 96 C0 64.32 0 32.64 0 0 Z " fill="#90CEE4" transform="translate(206,257)"/>
<path d="M0 0 C1.75908573 -0.01064158 1.75908573 -0.01064158 3.55370855 -0.02149814 C6.80533975 -0.03605595 10.05602512 -0.02818198 13.30761409 -0.01077521 C16.81553417 0.00259051 20.32334365 -0.01283537 23.83125305 -0.02459717 C30.70179492 -0.04298422 37.57205255 -0.0344545 44.44258559 -0.01650894 C50.0259684 -0.00248793 55.609274 0.00141094 61.19267273 -0.00195122 C61.98708034 -0.00242866 62.78148795 -0.0029061 63.59996852 -0.00339801 C65.21375122 -0.00442433 66.82753389 -0.00547969 68.44131655 -0.00656378 C82.71390498 -0.01513299 96.98635611 0.00155128 111.25891113 0.03126526 C125.11085782 0.06010322 138.96260672 0.06718651 152.8145752 0.05177307 C167.8954787 0.03501516 182.97628828 0.0309725 198.05719423 0.04848343 C199.66506734 0.05032784 201.27294047 0.05216256 202.8808136 0.0539875 C203.67193475 0.05489959 204.46305589 0.05581168 205.27815041 0.05675141 C210.85534615 0.06235937 216.43249607 0.05904722 222.00968933 0.05244255 C228.80571502 0.04471409 235.60154593 0.05144422 242.39753234 0.07661759 C245.86554011 0.08912416 249.33324448 0.09524547 252.80126381 0.08407593 C256.55899291 0.07542195 260.31583186 0.09127045 264.07348633 0.11352539 C265.17221368 0.10528462 266.27094104 0.09704386 267.40296316 0.08855337 C274.778188 0.16949781 274.778188 0.16949781 278.69069672 2.53535557 C281.90670567 6.18129381 281.68070428 9.13361213 281.67045593 13.78916931 C281.67272149 14.53534598 281.67498705 15.28152265 281.67732126 16.05031073 C281.68367789 18.56375314 281.68283083 21.07714185 281.68200684 23.59059143 C281.6849973 25.38732982 281.68839957 27.18406756 281.69218445 28.98080444 C281.7010404 33.87129791 281.70336324 38.7617739 281.70400023 43.65227461 C281.70494814 47.73042348 281.70862509 51.80856824 281.71217233 55.88671553 C281.72032306 65.50627132 281.72275601 75.12581774 281.7220459 84.74537659 C281.72144503 94.67806044 281.73199716 104.61069 281.74778956 114.54336011 C281.760853 123.06229101 281.76623029 131.58120414 281.76559049 140.10014498 C281.76533513 145.19196454 281.76820682 150.28373589 281.77876854 155.3755455 C281.78842933 160.16402107 281.78854261 164.95240212 281.78125191 169.74088097 C281.78020352 171.50011648 281.78258392 173.25935781 281.78861237 175.0185833 C281.7962996 177.41691487 281.79170931 179.81491738 281.78398132 182.21324158 C281.78912489 182.91226951 281.79426845 183.61129744 281.79956788 184.33150804 C281.77408739 187.90077494 281.70570186 190.70900841 279.53674316 193.62818909 C276.47053151 195.51610154 274.14602743 195.87909784 270.57353973 195.88266468 C269.06569184 195.89141297 269.06569184 195.89141297 267.52738237 195.90033799 C265.8738989 195.89466901 265.8738989 195.89466901 264.18701172 195.8888855 C263.01443676 195.89271105 261.84186179 195.89653659 260.63375425 195.90047807 C257.37821585 195.90902123 254.12282114 195.90857065 250.86727881 195.90429747 C247.35666188 195.9018343 243.84607168 195.91083925 240.33546448 195.91833496 C233.45785635 195.9310949 226.58028724 195.93287408 219.70266926 195.9305347 C214.11402585 195.92875301 208.52539431 195.93049797 202.93675232 195.93475914 C201.74450458 195.93565192 201.74450458 195.93565192 200.52817103 195.93656274 C198.91358109 195.93777447 197.29899115 195.9389886 195.68440121 195.94020512 C180.53765664 195.95108542 165.39093432 195.94891571 150.24418849 195.94282027 C136.37965103 195.93764932 122.51518379 195.94891039 108.65066022 195.96791849 C94.42139146 195.98727745 80.19215596 195.9955564 65.96287394 195.99179524 C57.97143652 195.98988041 49.9800589 195.99239819 41.9886322 196.00650978 C35.18637829 196.01839975 28.38422099 196.01985529 21.5819658 196.00771961 C18.1100728 196.00181439 14.63835671 196.00077655 11.1664753 196.01272202 C7.40630885 196.02310599 3.64662321 196.01515579 -0.11352539 196.00241089 C-1.21584771 196.00978517 -2.31817002 196.01715946 -3.45389605 196.02475721 C-4.96174394 196.01394739 -4.96174394 196.01394739 -6.50005341 196.0029192 C-7.36820411 196.00297421 -8.23635482 196.00302923 -9.13081312 196.00308591 C-12.00571551 195.54099897 -13.36410517 194.62165791 -15.46325684 192.62818909 C-16.63218123 189.1214159 -16.6145766 185.96415397 -16.61715698 182.3157196 C-16.62153924 181.56531052 -16.62592149 180.81490144 -16.63043654 180.0417527 C-16.64382223 177.51994381 -16.65000281 174.99816986 -16.65612793 172.47633362 C-16.66402891 170.67121726 -16.67229786 168.86610249 -16.6809082 167.06098938 C-16.70712291 161.12767545 -16.72243261 155.19435448 -16.73669434 149.26100159 C-16.74205373 147.21958791 -16.74743124 145.17817429 -16.75282669 143.13676071 C-16.7744522 134.64751103 -16.7931905 126.15826325 -16.80444908 117.668993 C-16.82069991 105.49507495 -16.85390898 93.32147548 -16.91084993 81.14767754 C-16.94950983 72.59134636 -16.96907693 64.03510055 -16.97436965 55.47868431 C-16.97802775 50.3660426 -16.99009821 45.25374072 -17.02247238 40.14119339 C-17.05248447 35.33287555 -17.05888944 30.5251044 -17.04708862 25.71671295 C-17.04686733 23.95142711 -17.05521834 22.18611639 -17.07274246 20.42091751 C-17.09536162 18.01149173 -17.08717488 15.60406068 -17.07125854 13.19462585 C-17.09208168 12.14563997 -17.09208168 12.14563997 -17.11332548 11.07546246 C-17.05713597 7.62578438 -16.46768021 5.63531303 -14.64171028 2.69454861 C-9.86669988 -0.40975617 -5.58449406 -0.06015738 0 0 Z M-0.46325684 16.62818909 C-0.46325684 48.30818909 -0.46325684 79.98818909 -0.46325684 112.62818909 C3.9917291 108.80962971 8.39519133 104.98243505 12.73986816 101.04615784 C16.39986011 98.1579468 20.0468548 98.24769007 24.53674316 98.62818909 C30.29739026 101.81982826 34.62068479 106.45586983 39.21643066 111.11256409 C40.43557663 112.3359549 40.43557663 112.3359549 41.67935181 113.58406067 C44.26156789 116.17742748 46.83672332 118.77767876 49.41174316 121.37818909 C51.16648935 123.14297164 52.92169273 124.90729973 54.67736816 126.67115784 C58.96913604 130.98491832 63.25513571 135.304345 67.53674316 139.62818909 C71.61537394 136.19729762 75.56344806 132.72214401 79.30627441 128.92115784 C80.54474121 127.67108948 80.54474121 127.67108948 81.80822754 126.39576721 C83.06603027 125.11862854 83.06603027 125.11862854 84.34924316 123.81568909 C86.04094468 122.09856756 87.73484265 120.38360627 89.43127441 118.67115784 C90.17224365 117.91858704 90.91321289 117.16601624 91.67663574 116.39064026 C94.53685425 113.68058416 96.43191603 113.42666138 100.28674316 113.31568909 C101.12721191 113.27830627 101.96768066 113.24092346 102.83361816 113.20240784 C108.61286233 114.11272231 112.74249421 118.58956669 116.71643066 122.61256409 C117.64455566 123.5471344 118.57268066 124.48170471 119.52893066 125.44459534 C120.48997999 126.42235002 121.45091612 127.40021597 122.41174316 128.37818909 C123.39564996 129.37214236 124.380021 130.36563631 125.36486816 131.35865784 C127.76009111 133.77736336 130.15050592 136.20062346 132.53674316 138.62818909 C136.63226424 135.217925 140.43721894 131.75770535 144.03674316 127.81568909 C148.73795774 123.06642121 148.73795774 123.06642121 152.34924316 122.37818909 C155.53674316 122.62818909 155.53674316 122.62818909 157.97424316 123.62818909 C159.53674316 125.62818909 159.53674316 125.62818909 160.22424316 128.81568909 C159.24270629 134.25875721 156.38470189 136.82338503 152.53674316 140.62818909 C151.42492676 141.75934143 151.42492676 141.75934143 150.29064941 142.91334534 C148.38876829 144.83556744 146.47125702 146.73889763 144.53674316 148.62818909 C146.07801667 152.34087003 148.3451755 154.60934607 151.22424316 157.37818909 C154.30764421 160.39532793 157.29815843 163.40960626 160.09924316 166.69068909 C160.63086563 167.28382401 161.1624881 167.87695892 161.71022034 168.48806763 C163.53674316 170.62818909 163.53674316 170.62818909 165.09507751 172.95056152 C167.74669345 176.38269263 170.26297468 179.08064661 174.61442947 180.12851334 C180.97101035 180.9185318 187.37053162 180.65941257 193.75939941 180.50709534 C195.83159105 180.49029088 197.90381866 180.47748839 199.97605896 180.46850586 C205.40705622 180.43428602 210.83585673 180.34600633 216.26599121 180.24617004 C221.81622606 180.15378809 227.36681901 180.11293104 232.91760254 180.06764221 C243.79160998 179.97137401 254.66399328 179.81794765 265.53674316 179.62818909 C265.74165883 175.62895597 265.86491098 171.63108577 265.97424316 167.62818909 C266.06222168 165.94016174 266.06222168 165.94016174 266.15197754 164.21803284 C266.30792966 156.84532568 266.30792966 156.84532568 262.80407715 150.61647034 C261.40348635 149.26403897 259.97761445 147.93762221 258.53674316 146.62818909 C257.11213799 145.18276801 255.68802914 143.73683019 254.27150059 142.28349304 C251.48207141 139.433845 248.64792528 136.62896071 245.82189941 133.81568909 C244.59857093 132.59422925 243.37546569 131.3725458 242.15257263 130.15065002 C238.95732555 126.95919298 235.7590853 123.77075241 232.56018066 120.58296204 C229.28685883 117.31993046 226.01642043 114.05401165 222.74572754 110.78834534 C216.34552807 104.39882111 209.94215809 98.01248458 203.53674316 91.62818909 C199.74900688 93.38793651 197.46399453 95.5526306 194.57971191 98.60084534 C193.62263008 99.5929614 192.66492824 100.58447966 191.70666504 101.57545471 C190.21228805 103.13167815 188.7230706 104.69193517 187.24450684 106.26319885 C185.80741943 107.78539741 184.35170863 109.28766143 182.89221191 110.78834534 C181.60286743 112.14391541 181.60286743 112.14391541 180.28747559 113.52687073 C176.95967721 116.06901688 174.68194088 116.45462094 170.53674316 116.62818909 C168.09924316 115.69068909 168.09924316 115.69068909 166.53674316 113.62818909 C165.66328093 107.05458024 165.66328093 107.05458024 167.65484619 103.80229187 C169.28763072 101.93599352 171.00269371 100.23603249 172.81018066 98.53834534 C173.44912262 97.90835129 174.08806458 97.27835724 174.74636841 96.62927246 C176.78344029 94.630206 178.84686949 92.66098289 180.91174316 90.69068909 C182.29371984 89.34028287 183.67394948 87.98808629 185.05236816 86.63404846 C196.46393636 75.48680032 196.46393636 75.48680032 201.84924316 75.37818909 C202.60850098 75.35240784 203.36775879 75.32662659 204.15002441 75.30006409 C209.62591398 76.05288687 213.21169294 80.06186729 216.95373535 83.83399963 C217.46979843 84.35137695 217.98586151 84.86875427 218.51756287 85.40180969 C220.21090778 87.10161144 221.89716147 88.80827425 223.58361816 90.51490784 C224.76183856 91.69940163 225.94057758 92.88337975 227.11981201 94.06686401 C230.21434401 97.17466734 233.30324772 100.28799954 236.39056396 103.40296936 C241.34506205 108.40068594 246.30640881 113.39158246 251.27091217 118.37935829 C253.00666608 120.12537035 254.73898975 121.87473412 256.4710083 123.62445068 C257.52633511 124.68660058 258.58176939 125.7486437 259.6373291 126.81056213 C261.02368561 128.20929817 261.02368561 128.20929817 262.43804932 129.6362915 C264.17538484 131.74292429 264.17538484 131.74292429 265.53674316 131.62818909 C265.53674316 93.67818909 265.53674316 55.72818909 265.53674316 16.62818909 C177.75674316 16.62818909 89.97674316 16.62818909 -0.46325684 16.62818909 Z " fill="#020302" transform="translate(206.4632568359375,240.37181091308594)"/>
<path d="M0 0 C87.78 0 175.56 0 266 0 C266 41.25 266 82.5 266 125 C261.38 125.33 256.76 125.66 252 126 C248.74054507 128.64758278 248.74054507 128.64758278 248.625 131.9375 C249.04451813 135.36356472 249.64724317 136.53573031 252 139 C254.10613269 139.59974841 254.10613269 139.59974841 256.49209595 139.51225281 C257.87182838 139.53095428 257.87182838 139.53095428 259.2794342 139.55003357 C260.28630783 139.54343216 261.29318146 139.53683075 262.33056641 139.5300293 C263.39253738 139.53876068 264.45450836 139.54749207 265.54866028 139.55648804 C269.0664646 139.58092902 272.58368388 139.57744923 276.1015625 139.57421875 C278.53869638 139.58665529 280.97582128 139.60098709 283.41293335 139.61714172 C289.83396241 139.65524504 296.25483701 139.67036972 302.67596436 139.67993164 C312.96209056 139.69964509 323.24809846 139.75635952 333.53409958 139.80869484 C337.13770317 139.82410602 340.74124834 139.83124448 344.34487915 139.83683777 C346.53932728 139.84385037 348.73377514 139.850951 350.92822266 139.8581543 C351.93914474 139.85762558 352.95006683 139.85709686 353.99162292 139.85655212 C354.9058049 139.8605603 355.81998688 139.86456848 356.76187134 139.86869812 C357.56085657 139.8699554 358.3598418 139.87121267 359.18303871 139.87250805 C361 140 361 140 362 141 C362.10007714 143.71624557 362.13439787 146.4071349 362.12698364 149.12390137 C362.12854363 149.98567977 362.13010362 150.84745818 362.13171089 151.73535109 C362.13572467 154.64585001 362.13252979 157.55629749 362.12939453 160.46679688 C362.1307484 162.54411347 362.13252826 164.62142983 362.13470459 166.69874573 C362.13928058 172.35767004 362.13748868 178.01657622 362.1343255 183.67550087 C362.13180276 189.58343176 362.1341392 195.49136104 362.13571167 201.39929199 C362.13753362 211.32267538 362.1351264 221.24605133 362.13037109 231.16943359 C362.12492843 242.66026578 362.12669107 254.15108023 362.1321975 265.64191198 C362.13672792 275.48815231 362.13737953 285.33438727 362.13475883 295.1806283 C362.13319566 301.06992032 362.13300337 306.95920399 362.13629532 312.84849548 C362.139173 318.38383252 362.13720024 323.91914658 362.13140106 329.45448112 C362.13007291 331.49233398 362.13046851 333.53018875 362.13266373 335.56804085 C362.13537308 338.33742003 362.13199676 341.1067243 362.12698364 343.87609863 C362.12921436 344.69349376 362.13144509 345.51088889 362.13374341 346.35305357 C362.11414983 351.88585017 362.11414983 351.88585017 361 353 C359.33903463 353.09899494 357.67383155 353.12739586 356.00991917 353.12863445 C354.9223421 353.1318589 353.83476503 353.13508335 352.71423107 353.1384055 C351.50453229 353.1368569 350.2948335 353.1353083 349.04847717 353.13371277 C347.13820973 353.1371111 347.13820973 353.1371111 345.18935102 353.14057809 C341.63817413 353.14672625 338.08702068 353.14655898 334.53583968 353.14538372 C330.71233034 353.14518047 326.88882868 353.15069118 323.06532288 353.15544128 C315.56834889 353.16376486 308.07138276 353.16649689 300.57440455 353.16705366 C294.48367311 353.16752801 288.39294428 353.16957867 282.30221367 353.17275429 C265.05294296 353.18156545 247.80367849 353.18617293 230.55440552 353.18542381 C229.15812786 353.18536388 229.15812786 353.18536388 227.73364258 353.18530273 C226.80166089 353.18526185 225.86967921 353.18522097 224.90945565 353.18517885 C209.79858733 353.18477223 194.6877439 353.19434461 179.57688279 353.2084411 C164.07984963 353.22278435 148.58282863 353.22971242 133.08578867 353.22884732 C124.37785602 353.22851465 115.66994947 353.23129255 106.96202278 353.24202538 C99.54884182 353.25110346 92.13569879 353.25332792 84.7225147 353.24651595 C80.93701031 353.24323707 77.15157882 353.24324296 73.36608124 353.2518692 C69.27016703 353.26110719 65.17442366 353.25499399 61.07850647 353.24723816 C59.8710384 353.25238172 58.66357034 353.25752529 57.41951233 353.26282471 C56.32932751 353.25822592 55.2391427 353.25362712 54.11592197 353.24888897 C53.16944154 353.24910634 52.22296111 353.24932371 51.24779946 353.24954766 C49 353 49 353 47 351 C46.80224852 348.24641775 46.73078443 345.59330304 46.74603271 342.83850098 C46.74291273 341.98474082 46.73979275 341.13098065 46.73657823 340.25134897 C46.72856384 337.37387716 46.7349352 334.49661423 46.74121094 331.61914062 C46.7385026 329.56300228 46.73494256 327.5068649 46.73059082 325.45072937 C46.72144582 319.85376053 46.72501975 314.25686513 46.73134899 308.65989494 C46.73639809 302.81382925 46.73172059 296.96777003 46.72857666 291.1217041 C46.72493382 281.30264146 46.72974443 271.48360886 46.73925781 261.66455078 C46.75014296 250.29809934 46.74661761 238.93171965 46.735605 227.56526995 C46.72654116 217.82174835 46.72524242 208.0782484 46.73048234 198.33472395 C46.73360702 192.50856315 46.73399778 186.68243612 46.72740936 180.85627747 C46.72164963 175.37999409 46.72560753 169.90380358 46.73719788 164.42753029 C46.73985184 162.41267361 46.73906692 160.39780918 46.73467255 158.38295555 C46.72924457 155.64236302 46.73601756 152.90207209 46.74603271 150.16149902 C46.74157127 149.35548075 46.73710983 148.54946248 46.73251319 147.71901941 C46.77169992 142.22830008 46.77169992 142.22830008 49 140 C52.00199032 139.74666691 52.00199032 139.74666691 55.93992615 139.74171448 C56.66230707 139.73803877 57.38468799 139.73436307 58.12895924 139.73057598 C60.56187368 139.72055522 62.99456139 139.72475478 65.42749023 139.72875977 C67.16674036 139.72437507 68.90598838 139.71907386 70.64523315 139.71292114 C74.39664941 139.70140033 78.14800902 139.69596021 81.89944267 139.69503975 C87.82755072 139.69310392 93.75554112 139.67507791 99.68360901 139.65428162 C114.40907569 139.60502609 129.13457441 139.5741891 143.86010742 139.55297852 C155.30020824 139.53647453 166.74020865 139.51371192 178.18024212 139.46995777 C184.07696954 139.44812609 189.97350649 139.4401287 195.87027156 139.44235051 C199.53497374 139.44068778 203.19955081 139.42666408 206.86420822 139.40913773 C208.56741365 139.40352206 210.27064484 139.40306777 211.97385216 139.40807533 C214.29388652 139.41418274 216.61312529 139.40204765 218.93309021 139.38526917 C220.88293398 139.38225217 220.88293398 139.38225217 222.87216854 139.37917423 C225.94950361 139.24936216 225.94950361 139.24936216 227.91433811 137.69467068 C229.77674912 134.78752862 229.4162455 132.32996401 229 129 C225.79597868 125.65565658 222.73910415 125.53695521 218.25 125.3125 C217.07953125 125.24675781 215.9090625 125.18101562 214.703125 125.11328125 C213.81109375 125.07589844 212.9190625 125.03851563 212 125 C211.99857498 124.10321533 211.99714996 123.20643066 211.99568176 122.2824707 C211.97781135 113.80820516 211.93607828 105.33445918 211.86790943 96.86044312 C211.83369907 92.50438629 211.80853878 88.14867796 211.80444336 83.79248047 C211.80014753 79.58407818 211.77157956 75.37646123 211.72656822 71.16830444 C211.71363402 69.5672972 211.70927105 67.96619578 211.71384621 66.36514282 C212.08348537 55.32488978 212.08348537 55.32488978 207.6334796 45.604357 C203.22850807 41.27791978 197.85058853 39.55590234 191.7850728 39.45750165 C190.66441526 39.46914228 190.66441526 39.46914228 189.52111816 39.48101807 C188.7057394 39.47351681 187.89036063 39.46601556 187.05027342 39.458287 C184.33859009 39.43810862 181.62775081 39.44609292 178.91601562 39.45410156 C176.96411314 39.44536119 175.01221781 39.43487378 173.06033325 39.42277527 C167.77579436 39.3949517 162.4914897 39.39150979 157.2068882 39.39249516 C151.67884724 39.38936294 146.15091129 39.36373827 140.6229248 39.34051514 C130.16131587 39.29997533 119.69976923 39.27961913 109.23809385 39.26654124 C97.32514079 39.2506644 85.41229364 39.21224583 73.49940205 39.17194796 C48.99961593 39.08957653 24.49989714 39.03844265 0 39 C0 26.13 0 13.26 0 0 Z M57.82112598 151.06593895 C55.59704795 154.649206 55.30506487 157.4562114 55.37854004 161.55297852 C55.37215122 162.30509645 55.3657624 163.05721437 55.35917997 163.83212376 C55.34393903 166.348262 55.36438372 168.86282325 55.38476562 171.37890625 C55.38126414 173.1843213 55.37560525 174.98973328 55.36795044 176.7951355 C55.35369676 181.69605004 55.37076973 186.59640391 55.39423561 191.49726486 C55.41433492 196.62520901 55.40846553 201.75312966 55.40612793 206.88110352 C55.40618151 215.49276991 55.42594439 224.10421696 55.45800781 232.71582031 C55.49490101 242.67302577 55.50368345 252.62994387 55.4967103 262.58720875 C55.49040575 272.16445103 55.50115873 281.74159474 55.52067566 291.31881714 C55.52885189 295.39526778 55.53155879 299.47166806 55.52998352 303.54812622 C55.52910478 308.34822021 55.54331804 313.14804098 55.56921005 317.9480629 C55.57637415 319.71009115 55.5784543 321.47214847 55.57509232 323.23418808 C55.5713794 325.6387626 55.58611787 328.04253897 55.60559082 330.44702148 C55.60026289 331.14498116 55.59493497 331.84294085 55.58944559 332.56205082 C55.64954138 336.86066979 56.37753163 339.57442952 59 343 C61.43723869 344.21861935 62.99229522 344.12642545 65.71710777 344.12863445 C66.7183576 344.1318589 67.71960744 344.13508335 68.75119817 344.1384055 C70.41342017 344.1360826 70.41342017 344.1360826 72.10922241 344.13371277 C73.28008853 344.13597833 74.45095464 344.13824388 75.65730155 344.14057809 C78.91732259 344.1458306 82.17730915 344.14656003 85.43733311 344.14538372 C88.94934043 344.14518024 92.46133942 344.1506934 95.9733429 344.15544128 C102.85790106 344.16376004 109.74245066 344.16649668 116.62701343 344.16705366 C122.22142232 344.16752826 127.81582837 344.1695802 133.41023636 344.17275429 C149.2600295 344.18156436 165.10981586 344.18617314 180.95961146 344.18542381 C181.81469749 344.18538386 182.66978352 344.1853439 183.55078125 344.18530273 C184.40690744 344.18526185 185.26303364 344.18522097 186.14510305 344.18517885 C200.02268434 344.18477233 213.90023849 344.19434262 227.77781193 344.2084411 C242.01605275 344.22279222 256.25428032 344.22971198 270.49252856 344.22884732 C278.49069083 344.22851491 286.48882467 344.23128149 294.48698044 344.24202538 C301.29658324 344.2511138 308.10614473 344.25331934 314.91575097 344.24651595 C318.3916467 344.24324227 321.86746309 344.24322445 325.34335136 344.2518692 C329.10790955 344.25953489 332.87225697 344.25498033 336.6368103 344.24723816 C338.29234014 344.2549535 338.29234014 344.2549535 339.98131502 344.26282471 C340.98778034 344.25822592 341.99424567 344.25362712 343.03120995 344.24888897 C343.9004448 344.24910634 344.76967965 344.24932371 345.66525495 344.24954766 C348.2193577 343.9765541 349.82230182 343.34169392 352 342 C354.55937649 338.54921736 354.28575082 334.72908299 354.26742554 330.60523987 C354.27422221 329.48446994 354.27422221 329.48446994 354.28115618 328.34105819 C354.29382165 325.83611469 354.29217845 323.33138801 354.29052734 320.82641602 C354.2965112 319.03100301 354.30331641 317.23559258 354.31088257 315.44018555 C354.32856284 310.56212935 354.33323876 305.6841433 354.33451414 300.80605817 C354.3364125 296.73535352 354.34376918 292.66466525 354.35085833 288.5939669 C354.36714705 278.99159125 354.37202678 269.38925311 354.37060547 259.78686523 C354.36940341 249.87681283 354.39051703 239.966978 354.4220928 230.05698067 C354.44822884 221.55157398 354.45897391 213.04623848 354.45769465 204.54079193 C354.4571843 199.45953122 354.46290817 194.37846388 354.48405075 189.29724312 C354.50338855 184.51931658 354.50358824 179.7417688 354.48901749 174.96382904 C354.48692284 173.20984533 354.49166918 171.45583819 354.5037384 169.70189476 C354.51914462 167.3080636 354.50991461 164.91554606 354.49447632 162.52174377 C354.50990701 161.4796175 354.50990701 161.4796175 354.52564943 160.41643816 C354.45832657 155.69565127 353.32367431 153.32096944 350 150 C347.56532547 148.78266273 346.0076507 148.87029119 343.28568554 148.86298561 C342.28505241 148.85791107 341.28441927 148.85283653 340.25346392 148.84760821 C339.14599804 148.84711045 338.03853217 148.84661269 336.89750671 148.84609985 C335.72734617 148.8417176 334.55718562 148.83733535 333.35156566 148.8328203 C330.09348155 148.82173902 326.83542459 148.81520269 323.57732594 148.81063914 C320.06733864 148.80468913 316.55736912 148.79307787 313.0473938 148.78234863 C304.56612139 148.75781197 296.0848431 148.74319622 287.60354611 148.73028857 C285.20905652 148.72657775 282.81456752 148.72260443 280.42007852 148.7185359 C265.55817094 148.69330201 250.69626247 148.67124375 235.83433819 148.65880775 C232.39094222 148.65587795 228.94754629 148.6529163 225.50415039 148.64990234 C224.64828651 148.64915629 223.79242262 148.64841024 222.91062347 148.64764158 C209.04013329 148.63498271 195.16977116 148.60175317 181.29934087 148.56010051 C167.06674635 148.51770974 152.83421743 148.49411609 138.60155994 148.48888719 C130.60720244 148.48546996 122.61304508 148.47367819 114.61874962 148.44078445 C107.81168716 148.41282202 101.00486585 148.40176776 94.19775041 148.41297992 C90.72359222 148.41817635 87.24993931 148.41521721 83.77585411 148.39051437 C80.01129085 148.36797626 76.24801203 148.37604817 72.48344421 148.39199829 C71.3826705 148.3781162 70.28189679 148.36423412 69.14776629 148.34993136 C64.47417165 148.39892601 61.80135805 148.47920024 57.82112598 151.06593895 Z " fill="#FE9A4A" transform="translate(134,92)"/>
<path d="M0 0 C1.63751575 -0.00391162 1.63751575 -0.00391162 3.30811262 -0.00790226 C5.1295204 -0.00455618 5.1295204 -0.00455618 6.9877243 -0.0011425 C8.90517543 -0.00348249 8.90517543 -0.00348249 10.86136293 -0.00586975 C14.42587438 -0.01006751 17.99035926 -0.00797038 21.55487084 -0.00488353 C25.39267427 -0.00263146 29.23047295 -0.00610807 33.06827545 -0.00886345 C40.59298989 -0.01332222 48.11769437 -0.01234421 55.64240921 -0.00945081 C61.75507875 -0.00719719 67.8677455 -0.00688407 73.98041534 -0.00797462 C75.28281113 -0.00820447 75.28281113 -0.00820447 76.61151794 -0.00843897 C78.37509167 -0.00875868 80.13866541 -0.00908289 81.90223914 -0.00941156 C98.45952421 -0.01226666 115.01680376 -0.00897885 131.57408792 -0.00361119 C145.79705249 0.00085687 160.0200089 0.00008095 174.24297333 -0.00452995 C190.73890871 -0.00987518 207.23483923 -0.01199197 223.73077536 -0.00891769 C225.48805078 -0.00859912 227.2453262 -0.00828475 229.00260162 -0.00797462 C229.86733244 -0.00782035 230.73206325 -0.00766607 231.62299803 -0.00750712 C237.73200648 -0.00664181 243.84101186 -0.00810515 249.95001984 -0.01045418 C257.38957213 -0.01325181 264.82911388 -0.01251471 272.26866496 -0.00717343 C276.06820166 -0.00453591 279.86772072 -0.00353221 283.66725731 -0.00682259 C287.77661795 -0.01032758 291.88593362 -0.00615741 295.99529266 -0.0011425 C297.20956452 -0.00337322 298.42383637 -0.00560395 299.67490435 -0.00790226 C300.76658151 -0.00529452 301.85825868 -0.00268677 302.98301697 0 C303.93291488 0.00016235 304.8828128 0.0003247 305.86149549 0.00049198 C307.99150848 0.12584114 307.99150848 0.12584114 308.99150848 1.12584114 C309.08576444 3.27327663 309.10893496 5.4238514 309.10503387 7.57335091 C309.1051799 8.2464933 309.10532593 8.9196357 309.10547638 9.61317635 C309.10477727 11.84789898 309.09698501 14.08253924 309.08916473 16.31724739 C309.08730055 17.86281476 309.08587665 19.40838271 309.08487701 20.95395088 C309.08105189 25.02941191 309.07122165 29.10483751 309.06017303 33.1802845 C309.0499588 37.33595996 309.04537937 41.49164113 309.04033661 45.64732552 C309.02959937 53.80684701 309.01252302 61.96633967 308.99150848 70.12584114 C306.02150848 70.12584114 303.05150848 70.12584114 299.99150848 70.12584114 C299.98270912 69.06468338 299.98270912 69.06468338 299.97373199 67.98208809 C299.91583747 61.31639182 299.84377995 54.65101697 299.75579357 47.98564625 C299.71105821 44.55885035 299.6718096 41.13217419 299.64507294 37.70518684 C299.61409802 33.76571804 299.55930751 29.82675463 299.50322723 25.88755989 C299.49364235 24.04057755 299.49364235 24.04057755 299.48386383 22.15628242 C299.46406967 21.01532616 299.44427551 19.87436989 299.42388153 18.69883919 C299.41277847 17.69290215 299.40167542 16.6869651 299.3902359 15.65054512 C299.16968616 13.16662733 299.16968616 13.16662733 297.9529314 11.49185658 C294.92151183 9.38065155 291.77359167 9.71317068 288.21001434 9.74489021 C287.4091915 9.74021024 286.60836866 9.73553027 285.78327847 9.73070848 C283.09080293 9.71871021 280.39883185 9.72823443 277.70635223 9.73765755 C275.77976432 9.73359399 273.85317874 9.72825333 271.9265976 9.72172737 C266.68701364 9.70802231 261.4476064 9.71336558 256.20801926 9.72286463 C250.73211684 9.73044472 245.25622984 9.72342022 239.78032684 9.71870613 C230.5834404 9.71324376 221.38662616 9.72045283 212.18975067 9.73472786 C201.54751137 9.75105527 190.90544447 9.7457671 180.26320934 9.72924864 C171.13619858 9.7156475 162.0092398 9.7137074 152.88222218 9.72156465 C147.42658727 9.72624872 141.97103348 9.72684591 136.51540375 9.71695518 C131.38706492 9.70830774 126.25894899 9.71426669 121.13063431 9.73163795 C119.24520361 9.7356147 117.35975425 9.73444855 115.4743309 9.72784996 C112.90696569 9.71969116 110.34032149 9.72988692 107.77300262 9.74489021 C107.02116164 9.73819805 106.26932066 9.73150588 105.49469662 9.72461092 C102.57536172 9.75786134 100.49955556 9.78806049 98.0286026 11.43090057 C96.26215431 14.31783707 96.64058412 16.85054711 96.99150848 20.12584114 C97.98650457 21.96271917 97.98650457 21.96271917 99.99150848 23.12584114 C102.5210696 23.42598121 104.8067731 23.54191664 107.3376236 23.52456856 C108.09156051 23.53121538 108.84549741 23.53786221 109.6222809 23.54471046 C112.15589325 23.56340595 114.68903607 23.56073083 117.22270966 23.55821419 C119.03594381 23.56722737 120.84917185 23.57755349 122.66239166 23.58909798 C127.59182482 23.61674631 132.52114263 23.6259631 137.4506433 23.63195205 C142.59967252 23.64131538 147.74861488 23.66751705 152.89759064 23.69195747 C162.65103096 23.73568247 172.40445448 23.76419255 182.1579631 23.78728086 C193.26065238 23.81430041 204.36325454 23.85821388 215.46588171 23.90356958 C238.3077228 23.99650182 261.14955531 24.06591284 283.99150848 24.12584114 C283.99150848 39.30584114 283.99150848 54.48584114 283.99150848 70.12584114 C280.21125214 70.14042366 276.43099579 70.15500618 272.53618622 70.17003059 C260.04707758 70.22036454 247.55809825 70.2868077 235.06911373 70.36155605 C227.49695415 70.40648314 219.92484128 70.44590486 212.35259247 70.47227669 C205.75106648 70.49528185 199.14968869 70.52870785 192.5482803 70.5745427 C189.05426637 70.59844117 185.5603989 70.61719197 182.06630516 70.62345505 C178.16157097 70.63064974 174.25720315 70.66111417 170.35259247 70.69346809 C168.62305328 70.69131546 168.62305328 70.69131546 166.85857391 70.68911934 C160.82179013 70.75987056 156.26554235 71.07290596 150.99150848 74.12584114 C150.18197723 75.15322395 149.37244598 76.18060677 148.53838348 77.23912239 C145.78307904 80.36208249 144.4083814 80.8691313 140.31987762 81.21104622 C139.63401581 81.24480354 138.94815399 81.27856087 138.24150848 81.31334114 C132.11034595 81.85357139 126.64130045 82.60380925 120.99150848 85.12584114 C120.25803192 85.45197395 119.52455536 85.77810677 118.76885223 86.11412239 C106.89210009 92.04231257 101.16013652 101.44241506 95.99150848 113.12584114 C95.14975067 112.96728645 94.30799286 112.80873177 93.44072723 112.64537239 C81.85760475 110.90068916 71.28646162 111.42865475 61.30400848 117.85630989 C55.06738117 122.50593829 52.63395683 126.16216863 47.99150848 133.12584114 C38.09150848 133.12584114 28.19150848 133.12584114 17.99150848 133.12584114 C17.99150848 97.15584114 17.99150848 61.18584114 17.99150848 24.12584114 C47.30400848 23.87584114 47.30400848 23.87584114 56.55522919 23.82798958 C58.96760229 23.79863295 61.37995819 23.76780954 63.79228973 23.73521614 C65.68014191 23.73352425 65.68014191 23.73352425 67.60613251 23.73179817 C68.80363129 23.71197884 70.00113007 23.6921595 71.23491669 23.67173958 C72.27638351 23.66285713 73.31785034 23.65397469 74.39087677 23.64482307 C77.09871716 23.34845107 77.09871716 23.34845107 78.85910797 21.31828499 C80.57641774 17.99339667 79.90853486 15.66294287 78.99150848 12.12584114 C75.37512249 9.71491714 73.6851368 9.86250187 69.3804245 9.8353138 C68.71341522 9.82859657 68.04640594 9.82187935 67.35918427 9.81495857 C65.15451863 9.79596252 62.95015711 9.79205376 60.74541473 9.78990364 C59.21228663 9.78347723 57.67915976 9.77674899 56.14603424 9.76973152 C52.93230597 9.75775506 49.71868523 9.75405111 46.50493622 9.75523567 C42.38768858 9.75543898 38.27113026 9.72812679 34.15404606 9.69369125 C30.9875853 9.67145038 27.82129124 9.66739724 24.65476036 9.66845512 C23.13689992 9.6660953 21.61903515 9.65725024 20.1012516 9.64179039 C17.97767255 9.62218403 15.85559036 9.62794518 13.731987 9.6400013 C12.52414047 9.63715126 11.31629395 9.63430122 10.07184601 9.63136482 C6.24332149 10.24594511 5.31298427 11.05479414 2.99150848 14.12584114 C2.59620908 16.74354775 2.44608714 18.9426448 2.47684479 21.55856514 C2.46989926 22.30982864 2.46295373 23.06109215 2.45579773 23.83512121 C2.4374918 26.35412289 2.44780155 28.87218658 2.45806122 31.391222 C2.45100452 33.19649143 2.44226056 35.00175494 2.43195343 36.80700874 C2.40942128 41.71200651 2.41240814 46.6166822 2.4212749 51.52171206 C2.42637941 55.61479947 2.41909657 59.70782605 2.41180283 63.80090719 C2.39479155 73.45606603 2.39838191 83.11106687 2.41509247 92.766222 C2.43201555 102.73087704 2.41617941 112.69509409 2.38386959 122.65970129 C2.35718897 131.21183929 2.34989354 139.76384081 2.35838467 148.31601626 C2.36331829 153.42524373 2.36107474 158.53420761 2.34059715 163.6434021 C2.32226405 168.44769327 2.32816964 173.25135356 2.35279655 178.05561066 C2.35781199 179.81926088 2.35429569 181.58295897 2.3416481 183.34657097 C2.32574989 185.75382001 2.34063512 188.15898337 2.3633194 190.5661335 C2.3455658 191.6140962 2.3455658 191.6140962 2.32745355 192.68322986 C2.39808714 196.37031937 2.95088932 198.07123449 5.17287064 201.05837059 C8.37057531 203.40388662 9.80241153 203.75415064 13.71790314 203.76507759 C14.86068726 203.78036507 16.00347137 203.79565254 17.18088531 203.81140327 C18.42525864 203.80277763 19.66963196 203.79415199 20.95171356 203.78526497 C22.26917572 203.79574867 23.58663788 203.80623238 24.94402313 203.81703377 C28.54915688 203.84516064 32.15369527 203.84271227 35.75890565 203.83473992 C39.52929335 203.83161341 43.2994919 203.85665336 47.06980133 203.87869453 C54.20598623 203.91613857 61.34198057 203.92828272 68.47825402 203.93131894 C76.60406288 203.9360094 84.72968081 203.96893224 92.85540545 204.00421679 C109.56742839 204.07615386 126.27933373 204.11266844 142.99150848 204.12584114 C142.99150848 206.76584114 142.99150848 209.40584114 142.99150848 212.12584114 C123.71197819 212.14916881 104.43245074 212.16681967 85.15290928 212.17765331 C76.20172467 212.18281655 67.25054881 212.18985977 58.29936981 212.20128059 C50.5004046 212.21122659 42.70144572 212.21769437 34.90247434 212.21992964 C30.77038663 212.22123689 26.63831704 212.22432365 22.50623512 212.2315712 C18.62149322 212.23833008 14.73677702 212.24045837 10.8520298 212.23894882 C9.42211009 212.23922521 7.99218958 212.24123112 6.56227493 212.24504662 C4.61832797 212.24998173 2.67436739 212.24823919 0.73041534 212.24609566 C-0.36006576 212.24701745 -1.45054686 212.24793924 -2.57407284 212.24888897 C-5.00849152 212.12584114 -5.00849152 212.12584114 -6.00849152 211.12584114 C-6.10856142 208.42221096 -6.14289025 205.7440561 -6.13547516 203.03990364 C-6.13703515 202.18220879 -6.13859514 201.32451393 -6.1402024 200.44082832 C-6.14421616 197.54414886 -6.14102131 194.64752107 -6.13788605 191.75084114 C-6.13923992 189.68337663 -6.14101978 187.61591237 -6.14319611 185.54844856 C-6.14777208 179.91638287 -6.14598021 174.2843354 -6.14281702 168.65226936 C-6.14029426 162.77236569 -6.14263072 156.89246362 -6.14420319 151.01255989 C-6.14602513 141.13625494 -6.14361792 131.25995746 -6.13886261 121.38365364 C-6.13341994 109.947353 -6.13518258 98.51107018 -6.14068902 87.07476997 C-6.14521944 77.27523839 -6.14587104 67.47571218 -6.14325035 57.67617989 C-6.14168718 51.81483353 -6.14149488 45.95349556 -6.14478683 40.09214973 C-6.14766453 34.58307748 -6.14569174 29.07402832 -6.13989258 23.56495857 C-6.13856443 21.53678107 -6.13896001 19.50860163 -6.14115524 17.48042488 C-6.14386461 14.72418276 -6.14048825 11.96801589 -6.13547516 9.21177864 C-6.13770588 8.39827446 -6.1399366 7.58477028 -6.14223492 6.74661446 C-6.11823296 0.0010457 -6.11823296 0.0010457 0 0 Z " fill="#0183B6" transform="translate(22.00849151611328,146.87415885925293)"/>
<path d="M0 0 C5.94 0 11.88 0 18 0 C18.99 1.98 19.98 3.96 21 6 C22.56172033 7.56172033 24.07925231 7.13752235 26.25158691 7.15148926 C27.16865921 7.15983292 28.08573151 7.16817657 29.03059387 7.17677307 C30.55169014 7.1830497 30.55169014 7.1830497 32.10351562 7.18945312 C33.16519455 7.19774643 34.22687347 7.20603973 35.32072449 7.21458435 C37.63430767 7.23202863 39.94790896 7.24718332 42.26152039 7.26036072 C45.91646047 7.28130852 49.5713094 7.30833692 53.22619629 7.33703613 C60.98409625 7.39685328 68.74203798 7.44895999 76.5 7.5 C85.48544981 7.55911571 94.47085464 7.6213236 103.45622253 7.69187927 C107.06866023 7.71856466 110.68110216 7.73931248 114.2935791 7.7598877 C116.49454974 7.77648289 118.69551832 7.79335403 120.89648438 7.81054688 C122.41758064 7.8168235 122.41758064 7.8168235 123.96940613 7.82322693 C124.88647842 7.83157059 125.80355072 7.83991425 126.74841309 7.84851074 C127.54999596 7.85366447 128.35157883 7.85881821 129.17745209 7.86412811 C131 8 131 8 132 9 C132.10007714 11.71624557 132.13439787 14.4071349 132.12698364 17.12390137 C132.12854363 17.98567977 132.13010362 18.84745818 132.13171089 19.73535109 C132.13572467 22.64585001 132.13252979 25.55629749 132.12939453 28.46679688 C132.1307484 30.54411347 132.13252826 32.62142983 132.13470459 34.69874573 C132.13928058 40.35767004 132.13748868 46.01657622 132.1343255 51.67550087 C132.13180276 57.58343176 132.1341392 63.49136104 132.13571167 69.39929199 C132.13753362 79.32267538 132.1351264 89.24605133 132.13037109 99.16943359 C132.12492843 110.66026578 132.12669107 122.15108023 132.1321975 133.64191198 C132.13672792 143.48815231 132.13737953 153.33438727 132.13475883 163.1806283 C132.13319566 169.06992032 132.13300337 174.95920399 132.13629532 180.84849548 C132.139173 186.38383252 132.13720024 191.91914658 132.13140106 197.45448112 C132.13007291 199.49233398 132.13046851 201.53018875 132.13266373 203.56804085 C132.13537308 206.33742003 132.13199676 209.1067243 132.12698364 211.87609863 C132.12921436 212.69349376 132.13144509 213.51088889 132.13374341 214.35305357 C132.11414983 219.88585017 132.11414983 219.88585017 131 221 C129.33903463 221.09899494 127.67383155 221.12739586 126.00991917 221.12863445 C124.37855356 221.13347112 124.37855356 221.13347112 122.71423107 221.1384055 C121.50453229 221.1368569 120.2948335 221.1353083 119.04847717 221.13371277 C117.13820973 221.1371111 117.13820973 221.1371111 115.18935102 221.14057809 C111.63817413 221.14672625 108.08702068 221.14655898 104.53583968 221.14538372 C100.71233034 221.14518047 96.88882868 221.15069118 93.06532288 221.15544128 C85.56834889 221.16376486 78.07138276 221.16649689 70.57440455 221.16705366 C64.48367311 221.16752801 58.39294428 221.16957867 52.30221367 221.17275429 C35.05294296 221.18156545 17.80367849 221.18617293 0.55440552 221.18542381 C-0.84187214 221.18536388 -0.84187214 221.18536388 -2.26635742 221.18530273 C-3.19833911 221.18526185 -4.13032079 221.18522097 -5.09054435 221.18517885 C-20.20141267 221.18477223 -35.3122561 221.19434461 -50.42311721 221.2084411 C-65.92015037 221.22278435 -81.41717137 221.22971242 -96.91421133 221.22884732 C-105.62214398 221.22851465 -114.33005053 221.23129255 -123.03797722 221.24202538 C-130.45115818 221.25110346 -137.86430121 221.25332792 -145.2774853 221.24651595 C-149.06298969 221.24323707 -152.84842118 221.24324296 -156.63391876 221.2518692 C-160.72983297 221.26110719 -164.82557634 221.25499399 -168.92149353 221.24723816 C-170.1289616 221.25238172 -171.33642966 221.25752529 -172.58048767 221.26282471 C-173.67067249 221.25822592 -174.7608573 221.25362712 -175.88407803 221.24888897 C-176.83055846 221.24910634 -177.77703889 221.24932371 -178.75220054 221.24954766 C-181 221 -181 221 -183 219 C-183.19775148 216.24641775 -183.26921557 213.59330304 -183.25396729 210.83850098 C-183.25864726 209.55786073 -183.25864726 209.55786073 -183.26342177 208.25134897 C-183.27143616 205.37387716 -183.2650648 202.49661423 -183.25878906 199.61914062 C-183.2614974 197.56300228 -183.26505744 195.5068649 -183.26940918 193.45072937 C-183.27855418 187.85376053 -183.27498025 182.25686513 -183.26865101 176.65989494 C-183.26360191 170.81382925 -183.26827941 164.96777003 -183.27142334 159.1217041 C-183.27506618 149.30264146 -183.27025557 139.48360886 -183.26074219 129.66455078 C-183.24985704 118.29809934 -183.25338239 106.93171965 -183.264395 95.56526995 C-183.27345884 85.82174835 -183.27475758 76.0782484 -183.26951766 66.33472395 C-183.26639298 60.50856315 -183.26600222 54.68243612 -183.27259064 48.85627747 C-183.27835037 43.37999409 -183.27439247 37.90380358 -183.26280212 32.42753029 C-183.26014816 30.41267361 -183.26093308 28.39780918 -183.26532745 26.38295555 C-183.27075543 23.64236302 -183.26398244 20.90207209 -183.25396729 18.16149902 C-183.25842873 17.35548075 -183.26289017 16.54946248 -183.26748681 15.71901941 C-183.22830008 10.22830008 -183.22830008 10.22830008 -181 8 C-177.99800968 7.74666691 -177.99800968 7.74666691 -174.06007385 7.74171448 C-173.33769293 7.73803877 -172.61531201 7.73436307 -171.87104076 7.73057598 C-169.43812632 7.72055522 -167.00543861 7.72475478 -164.57250977 7.72875977 C-162.83325964 7.72437507 -161.09401162 7.71907386 -159.35476685 7.71292114 C-155.60335059 7.70140033 -151.85199098 7.69596021 -148.10055733 7.69503975 C-142.17244928 7.69310392 -136.24445888 7.67507791 -130.31639099 7.65428162 C-115.59092431 7.60502609 -100.86542559 7.5741891 -86.13989258 7.55297852 C-74.69979176 7.53647453 -63.25979135 7.51371192 -51.81975788 7.46995777 C-45.92303046 7.44812609 -40.02649351 7.4401287 -34.12972844 7.44235051 C-30.46502626 7.44068778 -26.80044919 7.42666408 -23.13579178 7.40913773 C-21.43258635 7.40352206 -19.72935516 7.40306777 -18.02614784 7.40807533 C-15.70611348 7.41418274 -13.38687471 7.40204765 -11.06690979 7.38526917 C-9.11706602 7.38225217 -9.11706602 7.38225217 -7.12783146 7.37917423 C-4.05899583 7.24914758 -4.05899583 7.24914758 -2.12081814 5.72592068 C-0.70892096 3.75642355 -0.70892096 3.75642355 0 0 Z M-172.17887402 19.06593895 C-174.40295205 22.649206 -174.69493513 25.4562114 -174.62145996 29.55297852 C-174.62784878 30.30509645 -174.6342376 31.05721437 -174.64082003 31.83212376 C-174.65606097 34.348262 -174.63561628 36.86282325 -174.61523438 39.37890625 C-174.61873586 41.1843213 -174.62439475 42.98973328 -174.63204956 44.7951355 C-174.64630324 49.69605004 -174.62923027 54.59640391 -174.60576439 59.49726486 C-174.58566508 64.62520901 -174.59153447 69.75312966 -174.59387207 74.88110352 C-174.59381849 83.49276991 -174.57405561 92.10421696 -174.54199219 100.71582031 C-174.50509899 110.67302577 -174.49631655 120.62994387 -174.5032897 130.58720875 C-174.50959425 140.16445103 -174.49884127 149.74159474 -174.47932434 159.31881714 C-174.47114811 163.39526778 -174.46844121 167.47166806 -174.47001648 171.54812622 C-174.47089522 176.34822021 -174.45668196 181.14804098 -174.43078995 185.9480629 C-174.42362585 187.71009115 -174.4215457 189.47214847 -174.42490768 191.23418808 C-174.4286206 193.6387626 -174.41388213 196.04253897 -174.39440918 198.44702148 C-174.39973711 199.14498116 -174.40506503 199.84294085 -174.41055441 200.56205082 C-174.35045862 204.86066979 -173.62246837 207.57442952 -171 211 C-168.56276131 212.21861935 -167.00770478 212.12642545 -164.28289223 212.12863445 C-163.2816424 212.1318589 -162.28039256 212.13508335 -161.24880183 212.1384055 C-159.58657983 212.1360826 -159.58657983 212.1360826 -157.89077759 212.13371277 C-156.71991147 212.13597833 -155.54904536 212.13824388 -154.34269845 212.14057809 C-151.08267741 212.1458306 -147.82269085 212.14656003 -144.56266689 212.14538372 C-141.05065957 212.14518024 -137.53866058 212.1506934 -134.0266571 212.15544128 C-127.14209894 212.16376004 -120.25754934 212.16649668 -113.37298657 212.16705366 C-107.77857768 212.16752826 -102.18417163 212.1695802 -96.58976364 212.17275429 C-80.7399705 212.18156436 -64.89018414 212.18617314 -49.04038854 212.18542381 C-48.18530251 212.18538386 -47.33021648 212.1853439 -46.44921875 212.18530273 C-45.59309256 212.18526185 -44.73696636 212.18522097 -43.85489695 212.18517885 C-29.97731566 212.18477233 -16.09976151 212.19434262 -2.22218807 212.2084411 C12.01605275 212.22279222 26.25428032 212.22971198 40.49252856 212.22884732 C48.49069083 212.22851491 56.48882467 212.23128149 64.48698044 212.24202538 C71.29658324 212.2511138 78.10614473 212.25331934 84.91575097 212.24651595 C88.3916467 212.24324227 91.86746309 212.24322445 95.34335136 212.2518692 C99.10790955 212.25953489 102.87225697 212.25498033 106.6368103 212.24723816 C108.29234014 212.2549535 108.29234014 212.2549535 109.98131502 212.26282471 C110.98778034 212.25822592 111.99424567 212.25362712 113.03120995 212.24888897 C113.9004448 212.24910634 114.76967965 212.24932371 115.66525495 212.24954766 C118.2193577 211.9765541 119.82230182 211.34169392 122 210 C124.55937649 206.54921736 124.28575082 202.72908299 124.26742554 198.60523987 C124.27422221 197.48446994 124.27422221 197.48446994 124.28115618 196.34105819 C124.29382165 193.83611469 124.29217845 191.33138801 124.29052734 188.82641602 C124.2965112 187.03100301 124.30331641 185.23559258 124.31088257 183.44018555 C124.32856284 178.56212935 124.33323876 173.6841433 124.33451414 168.80605817 C124.3364125 164.73535352 124.34376918 160.66466525 124.35085833 156.5939669 C124.36714705 146.99159125 124.37202678 137.38925311 124.37060547 127.78686523 C124.36940341 117.87681283 124.39051703 107.966978 124.4220928 98.05698067 C124.44822884 89.55157398 124.45897391 81.04623848 124.45769465 72.54079193 C124.4571843 67.45953122 124.46290817 62.37846388 124.48405075 57.29724312 C124.50338855 52.51931658 124.50358824 47.7417688 124.48901749 42.96382904 C124.48692284 41.20984533 124.49166918 39.45583819 124.5037384 37.70189476 C124.51914462 35.3080636 124.50991461 32.91554606 124.49447632 30.52174377 C124.50990701 29.4796175 124.50990701 29.4796175 124.52564943 28.41643816 C124.45832657 23.69565127 123.32367431 21.32096944 120 18 C117.56532547 16.78266273 116.0076507 16.87029119 113.28568554 16.86298561 C112.28505241 16.85791107 111.28441927 16.85283653 110.25346392 16.84760821 C109.14599804 16.84711045 108.03853217 16.84661269 106.89750671 16.84609985 C105.72734617 16.8417176 104.55718562 16.83733535 103.35156566 16.8328203 C100.09348155 16.82173902 96.83542459 16.81520269 93.57732594 16.81063914 C90.06733864 16.80468913 86.55736912 16.79307787 83.0473938 16.78234863 C74.56612139 16.75781197 66.0848431 16.74319622 57.60354611 16.73028857 C55.20905652 16.72657775 52.81456752 16.72260443 50.42007852 16.7185359 C35.55817094 16.69330201 20.69626247 16.67124375 5.83433819 16.65880775 C2.39094222 16.65587795 -1.05245371 16.6529163 -4.49584961 16.64990234 C-5.35171349 16.64915629 -6.20757738 16.64841024 -7.08937653 16.64764158 C-20.95986671 16.63498271 -34.83022884 16.60175317 -48.70065913 16.56010051 C-62.93325365 16.51770974 -77.16578257 16.49411609 -91.39844006 16.48888719 C-99.39279756 16.48546996 -107.38695492 16.47367819 -115.38125038 16.44078445 C-122.18831284 16.41282202 -128.99513415 16.40176776 -135.80224959 16.41297992 C-139.27640778 16.41817635 -142.75006069 16.41521721 -146.22414589 16.39051437 C-149.98870915 16.36797626 -153.75198797 16.37604817 -157.51655579 16.39199829 C-158.6173295 16.3781162 -159.71810321 16.36423412 -160.85223371 16.34993136 C-165.52582835 16.39892601 -168.19864195 16.47920024 -172.17887402 19.06593895 Z " fill="#E5E5CC" transform="translate(364,224)"/>
<path d="M0 0 C4.08375338 1.62262588 6.82165625 4.54692682 9.85424805 7.61132812 C10.42868652 8.18386826 11.003125 8.75640839 11.5949707 9.34629822 C13.48880517 11.23643364 15.37535282 13.13366316 17.26171875 15.03125 C18.57603595 16.34675943 19.89072316 17.66189929 21.20576477 18.97668457 C23.95840198 21.73088505 26.70764868 24.48841088 29.4543457 27.24853516 C32.98013555 30.79133959 36.5124975 34.32750048 40.04718304 37.86142731 C42.76086948 40.57538525 45.47194508 43.29193834 48.18213844 46.00938416 C49.48413727 47.31457076 50.7867476 48.61914764 52.08997154 49.92311096 C53.90716074 51.74246113 55.72102287 53.5650616 57.53393555 55.38867188 C58.07574966 55.93003281 58.61756378 56.47139374 59.17579651 57.02915955 C63.94790154 61.84262992 63.94790154 61.84262992 64.11352539 65.52197266 C64.10567017 67.07730713 64.10567017 67.07730713 64.09765625 68.6640625 C64.09282227 70.34628906 64.09282227 70.34628906 64.08789062 72.0625 C64.07532227 73.8259375 64.07532227 73.8259375 64.0625 75.625 C64.05798828 76.80835938 64.05347656 77.99171875 64.04882812 79.2109375 C64.03701467 82.14067507 64.02054258 85.07031272 64 88 C52.13432321 88.34920942 40.26988873 88.61489052 28.40009975 88.77718258 C22.88669949 88.85512284 17.37684044 88.96061327 11.86547852 89.1315918 C6.53533368 89.29589301 1.20856871 89.38452249 -4.12391472 89.42315865 C-6.14676038 89.45064773 -8.16944294 89.50433375 -10.19082832 89.58595085 C-26.78976946 90.22884077 -26.78976946 90.22884077 -33.5451355 84.72122192 C-37.40147416 81.10561451 -40.72876 77.14088653 -44 73 C-45.34655746 71.47242532 -46.69795057 69.94902448 -48.0625 68.4375 C-48.56007813 67.84839844 -49.05765625 67.25929688 -49.5703125 66.65234375 C-51.90443349 63.95471212 -54.4476141 61.49013258 -57 59 C-55.35009794 54.70402861 -52.18257193 51.99482354 -48.9375 48.875 C-43.58855615 44.16392935 -43.58855615 44.16392935 -41.9375 37.5625 C-41.958125 36.386875 -41.97875 35.21125 -42 34 C-42 30.22089522 -41.00296038 29.53893899 -38.5 26.8125 C-37.8503125 26.09707031 -37.200625 25.38164062 -36.53125 24.64453125 C-36.0259375 24.10183594 -35.520625 23.55914062 -35 23 C-34.2265625 23.5259375 -34.2265625 23.5259375 -33.4375 24.0625 C-29.89747207 25.4240492 -27.67159573 24.88155903 -24 24 C-21.7502059 22.26139782 -19.9863629 20.69392804 -18.06640625 18.65234375 C-17.5436058 18.12105362 -17.02080536 17.58976349 -16.48216248 17.04237366 C-14.82756603 15.35438609 -13.19514093 13.64670483 -11.5625 11.9375 C-10.43955563 10.78443772 -9.31521955 9.63272906 -8.18945312 8.48242188 C-5.44328221 5.67035712 -2.71679473 2.84044392 0 0 Z " fill="#9FC562" transform="translate(408,332)"/>
<path d="M0 0 C1.63751575 -0.00391162 1.63751575 -0.00391162 3.30811262 -0.00790226 C5.1295204 -0.00455618 5.1295204 -0.00455618 6.9877243 -0.0011425 C8.90517543 -0.00348249 8.90517543 -0.00348249 10.86136293 -0.00586975 C14.42587438 -0.01006751 17.99035926 -0.00797038 21.55487084 -0.00488353 C25.39267427 -0.00263146 29.23047295 -0.00610807 33.06827545 -0.00886345 C40.59298989 -0.01332222 48.11769437 -0.01234421 55.64240921 -0.00945081 C61.75507875 -0.00719719 67.8677455 -0.00688407 73.98041534 -0.00797462 C75.28281113 -0.00820447 75.28281113 -0.00820447 76.61151794 -0.00843897 C78.37509167 -0.00875868 80.13866541 -0.00908289 81.90223914 -0.00941156 C98.45952421 -0.01226666 115.01680376 -0.00897885 131.57408792 -0.00361119 C145.79705249 0.00085687 160.0200089 0.00008095 174.24297333 -0.00452995 C190.73890871 -0.00987518 207.23483923 -0.01199197 223.73077536 -0.00891769 C225.48805078 -0.00859912 227.2453262 -0.00828475 229.00260162 -0.00797462 C229.86733244 -0.00782035 230.73206325 -0.00766607 231.62299803 -0.00750712 C237.73200648 -0.00664181 243.84101186 -0.00810515 249.95001984 -0.01045418 C257.38957213 -0.01325181 264.82911388 -0.01251471 272.26866496 -0.00717343 C276.06820166 -0.00453591 279.86772072 -0.00353221 283.66725731 -0.00682259 C287.77661795 -0.01032758 291.88593362 -0.00615741 295.99529266 -0.0011425 C297.20956452 -0.00337322 298.42383637 -0.00560395 299.67490435 -0.00790226 C300.76658151 -0.00529452 301.85825868 -0.00268677 302.98301697 0 C303.93291488 0.00016235 304.8828128 0.0003247 305.86149549 0.00049198 C307.99150848 0.12584114 307.99150848 0.12584114 308.99150848 1.12584114 C309.08576444 3.27327663 309.10893496 5.4238514 309.10503387 7.57335091 C309.1051799 8.2464933 309.10532593 8.9196357 309.10547638 9.61317635 C309.10477727 11.84789898 309.09698501 14.08253924 309.08916473 16.31724739 C309.08730055 17.86281476 309.08587665 19.40838271 309.08487701 20.95395088 C309.08105189 25.02941191 309.07122165 29.10483751 309.06017303 33.1802845 C309.0499588 37.33595996 309.04537937 41.49164113 309.04033661 45.64732552 C309.02959937 53.80684701 309.01252302 61.96633967 308.99150848 70.12584114 C306.02150848 70.12584114 303.05150848 70.12584114 299.99150848 70.12584114 C299.98270912 69.06468338 299.98270912 69.06468338 299.97373199 67.98208809 C299.91583747 61.31639182 299.84377995 54.65101697 299.75579357 47.98564625 C299.71105821 44.55885035 299.6718096 41.13217419 299.64507294 37.70518684 C299.61409802 33.76571804 299.55930751 29.82675463 299.50322723 25.88755989 C299.49364235 24.04057755 299.49364235 24.04057755 299.48386383 22.15628242 C299.46406967 21.01532616 299.44427551 19.87436989 299.42388153 18.69883919 C299.41277847 17.69290215 299.40167542 16.6869651 299.3902359 15.65054512 C299.16968616 13.16662733 299.16968616 13.16662733 297.9529314 11.49185658 C294.92151183 9.38065155 291.77359167 9.71317068 288.21001434 9.74489021 C287.4091915 9.74021024 286.60836866 9.73553027 285.78327847 9.73070848 C283.09080293 9.71871021 280.39883185 9.72823443 277.70635223 9.73765755 C275.77976432 9.73359399 273.85317874 9.72825333 271.9265976 9.72172737 C266.68701364 9.70802231 261.4476064 9.71336558 256.20801926 9.72286463 C250.73211684 9.73044472 245.25622984 9.72342022 239.78032684 9.71870613 C230.5834404 9.71324376 221.38662616 9.72045283 212.18975067 9.73472786 C201.54751137 9.75105527 190.90544447 9.7457671 180.26320934 9.72924864 C171.13619858 9.7156475 162.0092398 9.7137074 152.88222218 9.72156465 C147.42658727 9.72624872 141.97103348 9.72684591 136.51540375 9.71695518 C131.38706492 9.70830774 126.25894899 9.71426669 121.13063431 9.73163795 C119.24520361 9.7356147 117.35975425 9.73444855 115.4743309 9.72784996 C112.90696569 9.71969116 110.34032149 9.72988692 107.77300262 9.74489021 C107.02116164 9.73819805 106.26932066 9.73150588 105.49469662 9.72461092 C101.58393699 9.75370854 101.58393699 9.75370854 98.1301651 11.39965057 C96.73522621 13.43975992 96.73522621 13.43975992 94.99150848 17.12584114 C90.37150848 17.12584114 85.75150848 17.12584114 80.99150848 17.12584114 C80.00150848 15.14584114 79.01150848 13.16584114 77.99150848 11.12584114 C75.13619404 9.69818392 72.6858997 9.97482361 69.49394989 9.94883919 C68.49365501 9.93898239 68.49365501 9.93898239 67.47315216 9.92892647 C65.26312399 9.90919223 63.05316375 9.89753138 60.84307098 9.88755989 C59.71144091 9.8814466 59.71144091 9.8814466 58.55694962 9.87520981 C54.56476108 9.85434963 50.57260693 9.8400471 46.58037567 9.83067513 C42.45529354 9.81960394 38.33074986 9.78519641 34.20585823 9.74550343 C31.03512818 9.71937118 27.86452716 9.71098641 24.69369888 9.70739365 C23.1730345 9.70251971 21.65237619 9.69088269 20.13181686 9.67235565 C18.00339436 9.64803198 15.87637479 9.64891559 13.74785614 9.65587044 C12.53699341 9.6500042 11.32613068 9.64413795 10.07857513 9.63809395 C6.24189072 10.24427848 5.31606072 11.04948962 2.99150848 14.12584114 C2.59620908 16.74354775 2.44608714 18.9426448 2.47684479 21.55856514 C2.46989926 22.30982864 2.46295373 23.06109215 2.45579773 23.83512121 C2.4374918 26.35412289 2.44780155 28.87218658 2.45806122 31.391222 C2.45100452 33.19649143 2.44226056 35.00175494 2.43195343 36.80700874 C2.40942128 41.71200651 2.41240814 46.6166822 2.4212749 51.52171206 C2.42637941 55.61479947 2.41909657 59.70782605 2.41180283 63.80090719 C2.39479155 73.45606603 2.39838191 83.11106687 2.41509247 92.766222 C2.43201555 102.73087704 2.41617941 112.69509409 2.38386959 122.65970129 C2.35718897 131.21183929 2.34989354 139.76384081 2.35838467 148.31601626 C2.36331829 153.42524373 2.36107474 158.53420761 2.34059715 163.6434021 C2.32226405 168.44769327 2.32816964 173.25135356 2.35279655 178.05561066 C2.35781199 179.81926088 2.35429569 181.58295897 2.3416481 183.34657097 C2.32574989 185.75382001 2.34063512 188.15898337 2.3633194 190.5661335 C2.3455658 191.6140962 2.3455658 191.6140962 2.32745355 192.68322986 C2.39808714 196.37031937 2.95088932 198.07123449 5.17287064 201.05837059 C8.37057531 203.40388662 9.80241153 203.75415064 13.71790314 203.76507759 C14.86068726 203.78036507 16.00347137 203.79565254 17.18088531 203.81140327 C18.42525864 203.80277763 19.66963196 203.79415199 20.95171356 203.78526497 C22.26917572 203.79574867 23.58663788 203.80623238 24.94402313 203.81703377 C28.54915688 203.84516064 32.15369527 203.84271227 35.75890565 203.83473992 C39.52929335 203.83161341 43.2994919 203.85665336 47.06980133 203.87869453 C54.20598623 203.91613857 61.34198057 203.92828272 68.47825402 203.93131894 C76.60406288 203.9360094 84.72968081 203.96893224 92.85540545 204.00421679 C109.56742839 204.07615386 126.27933373 204.11266844 142.99150848 204.12584114 C142.99150848 206.76584114 142.99150848 209.40584114 142.99150848 212.12584114 C123.71197819 212.14916881 104.43245074 212.16681967 85.15290928 212.17765331 C76.20172467 212.18281655 67.25054881 212.18985977 58.29936981 212.20128059 C50.5004046 212.21122659 42.70144572 212.21769437 34.90247434 212.21992964 C30.77038663 212.22123689 26.63831704 212.22432365 22.50623512 212.2315712 C18.62149322 212.23833008 14.73677702 212.24045837 10.8520298 212.23894882 C9.42211009 212.23922521 7.99218958 212.24123112 6.56227493 212.24504662 C4.61832797 212.24998173 2.67436739 212.24823919 0.73041534 212.24609566 C-0.36006576 212.24701745 -1.45054686 212.24793924 -2.57407284 212.24888897 C-5.00849152 212.12584114 -5.00849152 212.12584114 -6.00849152 211.12584114 C-6.10856142 208.42221096 -6.14289025 205.7440561 -6.13547516 203.03990364 C-6.13703515 202.18220879 -6.13859514 201.32451393 -6.1402024 200.44082832 C-6.14421616 197.54414886 -6.14102131 194.64752107 -6.13788605 191.75084114 C-6.13923992 189.68337663 -6.14101978 187.61591237 -6.14319611 185.54844856 C-6.14777208 179.91638287 -6.14598021 174.2843354 -6.14281702 168.65226936 C-6.14029426 162.77236569 -6.14263072 156.89246362 -6.14420319 151.01255989 C-6.14602513 141.13625494 -6.14361792 131.25995746 -6.13886261 121.38365364 C-6.13341994 109.947353 -6.13518258 98.51107018 -6.14068902 87.07476997 C-6.14521944 77.27523839 -6.14587104 67.47571218 -6.14325035 57.67617989 C-6.14168718 51.81483353 -6.14149488 45.95349556 -6.14478683 40.09214973 C-6.14766453 34.58307748 -6.14569174 29.07402832 -6.13989258 23.56495857 C-6.13856443 21.53678107 -6.13896001 19.50860163 -6.14115524 17.48042488 C-6.14386461 14.72418276 -6.14048825 11.96801589 -6.13547516 9.21177864 C-6.13770588 8.39827446 -6.1399366 7.58477028 -6.14223492 6.74661446 C-6.11823296 0.0010457 -6.11823296 0.0010457 0 0 Z " fill="#D1D0D1" transform="translate(22.00849151611328,146.87415885925293)"/>
<path d="M0 0 C3.21114758 1.41228249 5.33335616 3.09765777 7.78710938 5.59179688 C8.51466431 6.32595825 9.24221924 7.06011963 9.99182129 7.81652832 C10.76795776 8.60926147 11.54409424 9.40199463 12.34375 10.21875 C13.14985718 11.03243042 13.95596436 11.84611084 14.78649902 12.68444824 C18.23516937 16.1658343 21.67191916 19.65890536 25.10986328 23.15087891 C27.62126684 25.69838359 30.13858689 28.23993386 32.65625 30.78125 C33.82045471 31.97034973 33.82045471 31.97034973 35.00817871 33.18347168 C35.73573364 33.91763306 36.46328857 34.65179443 37.21289062 35.40820312 C37.84924438 36.05503052 38.48559814 36.70185791 39.14123535 37.36828613 C41.61188421 39.53714167 43.78938721 40.87029149 47.078125 41.22265625 C58.53145033 40.3780765 66.23308744 28.81202506 73.640625 20.96875 C74.7853125 19.793125 74.7853125 19.793125 75.953125 18.59375 C76.63536133 17.87896484 77.31759766 17.16417969 78.02050781 16.42773438 C80 15 80 15 81.92619324 15.19395447 C84.48318398 16.18780356 85.44823171 17.33699864 87.16040039 19.46899414 C91.31328055 24.43269014 95.83708822 28.94506075 100.43359375 33.49609375 C101.31153091 34.37024429 102.18946808 35.24439484 103.0940094 36.14503479 C105.8727478 38.91164106 108.65471961 41.67495976 111.4375 44.4375 C115.12668014 48.09987497 118.812295 51.76580569 122.49609375 55.43359375 C123.77558144 56.70063393 123.77558144 56.70063393 125.08091736 57.99327087 C125.85915359 58.76820389 126.63738983 59.5431369 127.43920898 60.34155273 C128.12869125 61.02579819 128.81817352 61.71004364 129.52854919 62.4150238 C131 64 131 64 131 65 C81.17 65 31.34 65 -20 65 C-20 20 -20 20 -10 7.1875 C-6.63099766 4.55546692 -3.5908576 2.1941477 0 0 Z " fill="#638B39" transform="translate(226,355)"/>
<path d="M0 0 C1.63751575 -0.00391162 1.63751575 -0.00391162 3.30811262 -0.00790226 C5.1295204 -0.00455618 5.1295204 -0.00455618 6.9877243 -0.0011425 C8.90517543 -0.00348249 8.90517543 -0.00348249 10.86136293 -0.00586975 C14.42587438 -0.01006751 17.99035926 -0.00797038 21.55487084 -0.00488353 C25.39267427 -0.00263146 29.23047295 -0.00610807 33.06827545 -0.00886345 C40.59298989 -0.01332222 48.11769437 -0.01234421 55.64240921 -0.00945081 C61.75507875 -0.00719719 67.8677455 -0.00688407 73.98041534 -0.00797462 C75.28281113 -0.00820447 75.28281113 -0.00820447 76.61151794 -0.00843897 C78.37509167 -0.00875868 80.13866541 -0.00908289 81.90223914 -0.00941156 C98.45952421 -0.01226666 115.01680376 -0.00897885 131.57408792 -0.00361119 C145.79705249 0.00085687 160.0200089 0.00008095 174.24297333 -0.00452995 C190.73890871 -0.00987518 207.23483923 -0.01199197 223.73077536 -0.00891769 C225.48805078 -0.00859912 227.2453262 -0.00828475 229.00260162 -0.00797462 C229.86733244 -0.00782035 230.73206325 -0.00766607 231.62299803 -0.00750712 C237.73200648 -0.00664181 243.84101186 -0.00810515 249.95001984 -0.01045418 C257.38957213 -0.01325181 264.82911388 -0.01251471 272.26866496 -0.00717343 C276.06820166 -0.00453591 279.86772072 -0.00353221 283.66725731 -0.00682259 C287.77661795 -0.01032758 291.88593362 -0.00615741 295.99529266 -0.0011425 C297.20956452 -0.00337322 298.42383637 -0.00560395 299.67490435 -0.00790226 C300.76658151 -0.00529452 301.85825868 -0.00268677 302.98301697 0 C303.93291488 0.00016235 304.8828128 0.0003247 305.86149549 0.00049198 C307.99150848 0.12584114 307.99150848 0.12584114 308.99150848 1.12584114 C309.09932866 3.03734298 309.13778412 4.95279011 309.14922333 6.86729622 C309.16461655 8.7097467 309.16461655 8.7097467 309.18032074 10.58941841 C309.18375866 11.25009127 309.18719658 11.91076412 309.19073868 12.59145737 C309.20250222 14.65523793 309.22194919 16.7188068 309.24385834 18.78250313 C309.30555214 24.65151602 309.3594901 30.52050972 309.39287567 36.38975716 C309.41383119 39.97670006 309.449145 43.56326145 309.49363327 47.14998627 C309.50779149 48.5170581 309.51651533 49.88419749 309.51968765 51.25133896 C309.52460038 53.16637593 309.54937542 55.0813307 309.57500458 56.99620247 C309.58309143 58.08572716 309.59117828 59.17525185 309.59951019 60.29779243 C310.04941478 63.54360275 310.65589963 64.84850381 312.99150848 67.12584114 C314.64150848 67.78584114 316.29150848 68.44584114 317.99150848 69.12584114 C317.99150848 74.73584114 317.99150848 80.34584114 317.99150848 86.12584114 C318.65150848 86.45584114 319.31150848 86.78584114 319.99150848 87.12584114 C319.35342255 87.23541145 318.71533661 87.34498177 318.05791473 87.45787239 C317.23162567 87.61642708 316.40533661 87.77498177 315.55400848 87.93834114 C314.73029755 88.08916145 313.90658661 88.23998177 313.05791473 88.39537239 C312.37600067 88.63642708 311.69408661 88.87748177 310.99150848 89.12584114 C309.95023924 92.24964887 309.83598517 94.51101968 309.78618622 97.79063606 C309.766241 98.95161308 309.74629578 100.1125901 309.72574615 101.30874825 C309.70903366 102.56194359 309.69232117 103.81513893 309.67510223 105.10630989 C309.64393059 107.03099854 309.64393059 107.03099854 309.61212921 108.99456978 C309.55698942 112.40246929 309.5075446 115.81042855 309.45928192 119.21843147 C309.4090077 122.69738762 309.35335257 126.17625721 309.29814911 129.65513802 C309.1906666 136.47863065 309.08919972 143.3022015 308.99150848 150.12584114 C306.35150848 150.12584114 303.71150848 150.12584114 300.99150848 150.12584114 C300.99096372 149.43469625 300.99041895 148.74355135 300.98985767 148.03146267 C300.97489005 131.21397054 300.93244428 114.3967951 300.85941792 97.57945919 C300.82476538 89.44669597 300.79941206 81.3141023 300.79595184 73.18126106 C300.79291229 66.09261205 300.77242338 59.00426495 300.73098391 51.91573256 C300.70965096 48.16234602 300.69705454 44.40938872 300.70535469 40.65594101 C300.7142941 36.46555265 300.68427634 32.27631145 300.65093231 28.08604622 C300.65955795 26.8416729 300.66818359 25.59729958 300.67707062 24.31521797 C300.66178314 23.17243385 300.64649567 22.02964973 300.63074493 20.85223579 C300.62797956 19.86130834 300.62521418 18.87038088 300.622365 17.84942532 C299.6832165 13.79485836 298.43500051 12.4877052 294.99150848 10.12584114 C291.15376648 9.39394296 287.37371697 9.46019511 283.47682953 9.50438118 C281.70950177 9.49479795 281.70950177 9.49479795 279.90647042 9.48502111 C276.63956745 9.47239971 273.37361855 9.48221102 270.10677648 9.50153589 C266.58254488 9.51695853 263.05840745 9.50356232 259.53417206 9.49379158 C252.63220711 9.47926089 245.73053618 9.49150243 238.82859908 9.51290482 C230.79452306 9.53690464 222.76051455 9.53520114 214.72641064 9.53259891 C200.39495635 9.52890829 186.06364072 9.54973947 171.73223114 9.58384895 C157.818133 9.61695302 143.90418037 9.63110523 129.99004364 9.62486458 C114.84397689 9.61810482 99.69797111 9.62054803 84.55191338 9.64022398 C83.75149156 9.64126347 82.95106973 9.64230295 82.1263927 9.64337394 C80.51869506 9.64546486 78.91099745 9.64757583 77.30329987 9.64970711 C71.69962749 9.65660985 66.09597387 9.65727085 60.49229813 9.65582466 C53.66732824 9.65438691 46.84247718 9.66404026 40.01754676 9.68777102 C36.53363309 9.69965329 33.04988531 9.70674146 29.5659523 9.70093346 C25.794516 9.69724263 22.02359691 9.71188309 18.25222015 9.73143196 C16.58955417 9.72344007 16.58955417 9.72344007 14.89329898 9.71528673 C13.88719141 9.72434337 12.88108383 9.73340001 11.84448814 9.74273109 C10.97346203 9.7443023 10.10243591 9.7458735 9.20501506 9.74749231 C6.50870479 10.2083655 5.62166787 10.96457097 3.99150848 13.12584114 C3.51988513 15.48180348 3.51988513 15.48180348 3.55913544 18.14805794 C3.53934128 19.16888969 3.51954712 20.18972145 3.49915314 21.2414875 C3.48956825 22.89160583 3.48956825 22.89160583 3.47978973 24.57505989 C3.46183853 25.70281334 3.44388733 26.83056679 3.42539215 27.99249458 C3.37114996 31.59940524 3.33734814 35.20618252 3.30400848 38.81334114 C3.27084778 41.25671913 3.2363593 43.70007949 3.20049286 46.14341927 C3.11541549 52.1374403 3.04712456 58.1314783 2.99150848 64.12584114 C0.02150848 64.12584114 -2.94849152 64.12584114 -6.00849152 64.12584114 C-6.03161862 55.92893553 -6.04940847 47.73204346 -6.06030369 39.53511333 C-6.06553172 35.72932537 -6.0726279 31.92355966 -6.08393097 28.1177845 C-6.09476272 24.4479157 -6.10076896 20.77806836 -6.10336876 17.10818481 C-6.10522249 15.70509122 -6.10884212 14.30199885 -6.11422157 12.89891434 C-6.12143571 10.94014434 -6.1218996 8.98135294 -6.12201691 7.02256966 C-6.12423752 5.90560204 -6.12645813 4.78863441 -6.12874603 3.63781929 C-5.91611065 -0.80388852 -3.95023417 0.00067516 0 0 Z " fill="#E7E7CE" transform="translate(115.00849151611328,66.87415885925293)"/>
<path d="M0 0 C8.2658716 4.82175843 12.7974241 11.70867854 15.765625 20.61328125 C16.72986765 32.0261205 14.5266865 39.87703662 7.46875 48.82421875 C2.45389773 54.09211402 -4.13864855 57.17133335 -11.34765625 57.94921875 C-21.90949367 58.07817891 -28.6900492 55.75362019 -36.4453125 48.5390625 C-42.72663465 41.77772665 -45.69632617 34.42644959 -45.48828125 25.203125 C-44.54311755 15.56245527 -39.77316852 8.32908858 -32.42578125 2.2265625 C-22.22452815 -5.28345092 -11.34397259 -5.27108674 0 0 Z " fill="#030403" transform="translate(301.234375,272.38671875)"/>
<path d="M0 0 C18.81 0 37.62 0 57 0 C57 0.33 57 0.66 57 1 C46.44 1 35.88 1 25 1 C25 36.31 25 71.62 25 108 C12.625 108.495 12.625 108.495 0 109 C0 73.03 0 37.06 0 0 Z " fill="#0076A4" transform="translate(40,171)"/>
<path d="M0 0 C8.25 0 16.5 0 25 0 C25 26.73 25 53.46 25 81 C20.05 81.99 20.05 81.99 15 83 C12.5132825 84.38180802 12.5132825 84.38180802 10.8125 86.25 C7.29625875 89.71067987 3.81235461 92.73226748 0 96 C0 64.32 0 32.64 0 0 Z " fill="#82BACE" transform="translate(206,257)"/>
<path d="M0 0 C3.16115776 1.36983503 3.9927092 1.9890638 6 5 C6.20254517 7.63859558 6.20254517 7.63859558 6.13525391 10.84838867 C6.11508209 12.0494072 6.09491028 13.25042572 6.0741272 14.48783875 C6.02583267 16.4332531 6.02583267 16.4332531 5.9765625 18.41796875 C5.95038982 19.75887872 5.92512325 21.09980666 5.90072632 22.44075012 C5.83412927 25.96730311 5.75522538 29.49347752 5.67376709 33.01971436 C5.592794 36.61911506 5.52344696 40.21873761 5.453125 43.81835938 C5.31346937 50.87917369 5.15973882 57.93960733 5 65 C-3.25 65 -11.5 65 -20 65 C-23.29644668 22.14619313 -23.29644668 22.14619313 -15.546875 12.55859375 C-10.92279014 7.63348347 -5.76194182 3.52076099 0 0 Z " fill="#597D33" transform="translate(226,355)"/>
<path d="M0 0 C6.6 0 13.2 0 20 0 C20 12.87 20 25.74 20 39 C13.4 39 6.8 39 0 39 C0 26.13 0 13.26 0 0 Z " fill="#E68C44" transform="translate(134,92)"/>
<path d="M0 0 C4.69994029 1.71728588 7.20959499 3.86606666 10 8 C11.24115911 11.72347734 11.5420862 15.13214172 11 19 C8.46579412 23.6314797 6.06902315 27.31032562 1 29 C-3.26494847 29.58904009 -7.27124317 29.94009039 -11.140625 27.8359375 C-14.54601078 25.0458105 -17.05711596 22.40012554 -18 18 C-18.45122245 13.2621643 -18.50652977 11.01305955 -16.375 6.75 C-11.55431751 1.16815712 -7.28148559 -1.19416364 0 0 Z " fill="#F9D13A" transform="translate(290,285)"/>
<path d="M0 0 C-0.433125 0.78310547 -0.433125 0.78310547 -0.875 1.58203125 C-3.98989353 7.75774029 -5.02382425 13.11871968 -4 20 C-2.93635234 23.16801953 -1.61620172 26.07784956 0 29 C-3.06112396 29.44796936 -5.20505506 29.48881708 -7.88671875 27.83984375 C-11.3714383 24.98339649 -14.02858236 22.53328231 -15 18 C-15.45122245 13.2621643 -15.50652977 11.01305955 -13.375 6.75 C-9.54320538 2.31318517 -6.08137556 -0.71545595 0 0 Z " fill="#DEBA34" transform="translate(287,285)"/>
</svg>
