<?xml version="1.0" encoding="UTF-8"?>
<svg version="1.1" xmlns="http://www.w3.org/2000/svg" width="512" height="512">
<path d="M0 0 C1.99954603 1.20613186 3.87448598 2.34878193 5.6328125 3.88671875 C5.6328125 4.54671875 5.6328125 5.20671875 5.6328125 5.88671875 C6.2928125 5.88671875 6.9528125 5.88671875 7.6328125 5.88671875 C7.6328125 6.54671875 7.6328125 7.20671875 7.6328125 7.88671875 C8.2928125 7.88671875 8.9528125 7.88671875 9.6328125 7.88671875 C9.6328125 8.54671875 9.6328125 9.20671875 9.6328125 9.88671875 C10.2928125 9.88671875 10.9528125 9.88671875 11.6328125 9.88671875 C11.6328125 10.54671875 11.6328125 11.20671875 11.6328125 11.88671875 C12.2928125 11.88671875 12.9528125 11.88671875 13.6328125 11.88671875 C13.6328125 12.54671875 13.6328125 13.20671875 13.6328125 13.88671875 C14.2928125 13.88671875 14.9528125 13.88671875 15.6328125 13.88671875 C20.11342045 18.78738369 22.13102173 23.03486944 21.953125 29.76953125 C21.04623501 35.76385292 17.38536095 40.32216927 13.6328125 44.88671875 C14.51324219 45.22445312 15.39367187 45.5621875 16.30078125 45.91015625 C17.46222656 46.35617188 18.62367188 46.8021875 19.8203125 47.26171875 C20.96886719 47.70257813 22.11742187 48.1434375 23.30078125 48.59765625 C26.08617244 49.67524018 28.86278971 50.77036305 31.6328125 51.88671875 C31.6328125 51.22671875 31.6328125 50.56671875 31.6328125 49.88671875 C32.2928125 49.88671875 32.9528125 49.88671875 33.6328125 49.88671875 C33.6328125 49.22671875 33.6328125 48.56671875 33.6328125 47.88671875 C34.2928125 47.88671875 34.9528125 47.88671875 35.6328125 47.88671875 C35.6328125 47.22671875 35.6328125 46.56671875 35.6328125 45.88671875 C36.2928125 45.88671875 36.9528125 45.88671875 37.6328125 45.88671875 C37.6328125 45.22671875 37.6328125 44.56671875 37.6328125 43.88671875 C38.2928125 43.88671875 38.9528125 43.88671875 39.6328125 43.88671875 C39.6328125 43.22671875 39.6328125 42.56671875 39.6328125 41.88671875 C40.2928125 41.88671875 40.9528125 41.88671875 41.6328125 41.88671875 C41.6328125 41.22671875 41.6328125 40.56671875 41.6328125 39.88671875 C42.2928125 39.88671875 42.9528125 39.88671875 43.6328125 39.88671875 C43.6328125 39.22671875 43.6328125 38.56671875 43.6328125 37.88671875 C44.2928125 37.88671875 44.9528125 37.88671875 45.6328125 37.88671875 C45.6328125 37.22671875 45.6328125 36.56671875 45.6328125 35.88671875 C50.48940049 31.44640973 54.82362536 29.32713645 61.515625 29.50390625 C67.73973866 30.62929949 72.49209143 35.41026354 76.6328125 39.88671875 C77.839375 41.09328125 77.839375 41.09328125 79.0703125 42.32421875 C79.9159375 43.16984375 80.7615625 44.01546875 81.6328125 44.88671875 C82.15359375 45.37269531 82.674375 45.85867187 83.2109375 46.359375 C87.64708563 50.56940878 89.39413699 53.46018435 90.0078125 59.69921875 C89.90952265 64.40819613 87.96586835 67.89522561 85.6328125 71.88671875 C85.3028125 72.54671875 84.9728125 73.20671875 84.6328125 73.88671875 C88.69374469 75.61958322 92.75684798 77.34730175 96.8203125 79.07421875 C98.51704102 79.79834961 98.51704102 79.79834961 100.24804688 80.53710938 C107.98513054 83.82151241 115.7685206 86.92061301 123.6328125 89.88671875 C123.91890381 89.27844238 124.20499512 88.67016602 124.49975586 88.04345703 C125.99844928 85.19074045 128.00418376 83.11814934 130.1953125 80.76171875 C133.27000436 77.57164366 133.27000436 77.57164366 135.6328125 73.88671875 C136.2928125 73.88671875 136.9528125 73.88671875 137.6328125 73.88671875 C137.84421875 73.35949219 138.055625 72.83226563 138.2734375 72.2890625 C140.18864068 68.9044362 142.73299275 66.27677031 145.3828125 63.44921875 C146.15238281 62.60907227 146.15238281 62.60907227 146.9375 61.75195312 C150.28675818 58.14603068 153.71891949 54.87805127 157.6328125 51.88671875 C158.2928125 51.88671875 158.9528125 51.88671875 159.6328125 51.88671875 C159.6328125 51.22671875 159.6328125 50.56671875 159.6328125 49.88671875 C161.03125 48.60913086 161.03125 48.60913086 163.0078125 47.1640625 C163.73782471 46.62982666 164.46783691 46.09559082 165.2199707 45.54516602 C166.0162085 44.97725342 166.81244629 44.40934082 167.6328125 43.82421875 C168.44645264 43.24148193 169.26009277 42.65874512 170.09838867 42.05834961 C177.6472594 36.73581314 185.4330721 32.12265646 193.6328125 27.88671875 C194.64859375 27.34660156 195.664375 26.80648438 196.7109375 26.25 C211.48726984 18.88117458 228.36908811 14.43577931 244.6328125 11.88671875 C245.27766602 11.78520508 245.92251953 11.68369141 246.58691406 11.57910156 C262.1552788 9.19611189 276.98660107 7.42880889 290.4453125 17.07421875 C297.70710186 23.17983771 301.85536128 30.6051219 303.6328125 39.88671875 C305.7706638 70.85430743 295.08806463 101.80793957 280.5078125 128.57421875 C280.11239258 129.30471436 279.71697266 130.03520996 279.30957031 130.7878418 C276.6937381 135.44857335 273.83496332 140.48835487 269.6328125 143.88671875 C267.43530273 144.1953125 267.43530273 144.1953125 265.3203125 144.13671875 C261.75435624 144.22737865 260.79759299 144.73246162 258.125 147.234375 C251.64995418 154.62784233 251.64995418 154.62784233 249.8828125 163.76171875 C249.97122357 166.38458055 249.865422 167.54430601 248.375 169.73828125 C246.85776357 171.28483626 245.42142507 172.66341896 243.6328125 173.88671875 C242.9728125 173.88671875 242.3128125 173.88671875 241.6328125 173.88671875 C241.6328125 174.54671875 241.6328125 175.20671875 241.6328125 175.88671875 C239.91329276 177.42523641 238.13093753 178.89403634 236.3203125 180.32421875 C232.46814248 183.33907444 232.46814248 183.33907444 228.90234375 186.671875 C227.6328125 187.88671875 227.6328125 187.88671875 225.6328125 187.88671875 C225.6328125 188.54671875 225.6328125 189.20671875 225.6328125 189.88671875 C224.9728125 189.88671875 224.3128125 189.88671875 223.6328125 189.88671875 C224.10589844 190.93085938 224.57898438 191.975 225.06640625 193.05078125 C229.06764974 201.93697844 232.92656599 210.87321042 236.6328125 219.88671875 C237.03040771 220.84787598 237.42800293 221.8090332 237.83764648 222.79931641 C238.20317627 223.69440918 238.56870605 224.58950195 238.9453125 225.51171875 C239.27144531 226.30835938 239.59757812 227.105 239.93359375 227.92578125 C240.6328125 229.88671875 240.6328125 229.88671875 240.6328125 231.88671875 C241.48552734 231.45359375 241.48552734 231.45359375 242.35546875 231.01171875 C247.28521721 228.64148911 251.06121873 227.07630511 256.6328125 227.88671875 C263.07614125 230.27162662 267.62592312 234.23464316 272.3828125 239.07421875 C273.02863281 239.69619141 273.67445313 240.31816406 274.33984375 240.95898438 C279.04060998 245.67422935 283.30484385 251.17844088 283.78442383 258.06323242 C283.5362605 263.31545628 281.0095877 267.93136836 277.6328125 271.88671875 C276.9728125 271.88671875 276.3128125 271.88671875 275.6328125 271.88671875 C275.6328125 272.54671875 275.6328125 273.20671875 275.6328125 273.88671875 C274.9728125 273.88671875 274.3128125 273.88671875 273.6328125 273.88671875 C273.6328125 274.54671875 273.6328125 275.20671875 273.6328125 275.88671875 C272.9728125 275.88671875 272.3128125 275.88671875 271.6328125 275.88671875 C271.6328125 276.54671875 271.6328125 277.20671875 271.6328125 277.88671875 C270.9728125 277.88671875 270.3128125 277.88671875 269.6328125 277.88671875 C269.6328125 278.54671875 269.6328125 279.20671875 269.6328125 279.88671875 C268.9728125 279.88671875 268.3128125 279.88671875 267.6328125 279.88671875 C267.6328125 280.54671875 267.6328125 281.20671875 267.6328125 281.88671875 C266.9728125 281.88671875 266.3128125 281.88671875 265.6328125 281.88671875 C265.6328125 282.54671875 265.6328125 283.20671875 265.6328125 283.88671875 C264.9728125 283.88671875 264.3128125 283.88671875 263.6328125 283.88671875 C264.56413257 286.45161642 265.50259757 289.01351081 266.4453125 291.57421875 C266.83686523 292.65606445 266.83686523 292.65606445 267.23632812 293.75976562 C268.70810755 297.73902111 270.28918608 301.31849475 272.6328125 304.88671875 C273.6228125 304.55671875 274.6128125 304.22671875 275.6328125 303.88671875 C275.6328125 303.22671875 275.6328125 302.56671875 275.6328125 301.88671875 C276.2928125 301.88671875 276.9528125 301.88671875 277.6328125 301.88671875 C277.6328125 301.22671875 277.6328125 300.56671875 277.6328125 299.88671875 C283.1895447 296.5763251 287.14208269 295.15389442 293.6328125 295.88671875 C297.34716588 297.38674608 300.62439713 299.22542823 303.6328125 301.88671875 C303.6328125 302.54671875 303.6328125 303.20671875 303.6328125 303.88671875 C304.2928125 303.88671875 304.9528125 303.88671875 305.6328125 303.88671875 C305.6328125 304.54671875 305.6328125 305.20671875 305.6328125 305.88671875 C306.2928125 305.88671875 306.9528125 305.88671875 307.6328125 305.88671875 C307.6328125 306.54671875 307.6328125 307.20671875 307.6328125 307.88671875 C308.2928125 307.88671875 308.9528125 307.88671875 309.6328125 307.88671875 C309.6328125 308.54671875 309.6328125 309.20671875 309.6328125 309.88671875 C310.2928125 309.88671875 310.9528125 309.88671875 311.6328125 309.88671875 C311.6328125 310.54671875 311.6328125 311.20671875 311.6328125 311.88671875 C312.2928125 311.88671875 312.9528125 311.88671875 313.6328125 311.88671875 C317.77775476 316.53407825 318.83223576 319.92029563 319.0703125 326.07421875 C319.13089844 327.16089844 319.19148437 328.24757813 319.25390625 329.3671875 C317.71286933 338.09973003 309.33069631 344.439748 303.2578125 350.38671875 C302.42636719 351.20914062 301.59492188 352.0315625 300.73828125 352.87890625 C298.70765268 354.88619426 296.67248083 356.88862409 294.6328125 358.88671875 C296.62536146 365.40289238 299.4874963 371.53934864 302.26757812 377.74804688 C307.77930636 390.33973219 311.5759265 404.1044789 307.5078125 417.76171875 C302.82231935 428.54162957 295.92521871 436.22709927 287.65673828 444.38427734 C285.75454125 446.26495299 283.87477189 448.16617404 281.99609375 450.0703125 C280.77471848 451.28904553 279.5521035 452.50653769 278.328125 453.72265625 C277.77577179 454.28310638 277.22341858 454.84355652 276.65432739 455.42098999 C271.04926055 460.89533006 265.14896281 464.46608657 257.1328125 464.38671875 C248.74654657 464.05822446 244.26245451 461.86343097 238.5078125 455.82421875 C233.1253992 449.53093551 228.31988112 442.79570287 223.453125 436.1015625 C219.5303532 430.71818418 215.49659957 425.42372288 211.4453125 420.13671875 C206.4219324 413.57195884 201.45203812 406.97660964 196.58666992 400.29394531 C192.70408758 394.9643055 188.75065448 389.68952869 184.77832031 384.42651367 C183.39050461 382.58429101 182.00972635 380.73710119 180.6328125 378.88671875 C180.15038086 378.2421875 179.66794922 377.59765625 179.17089844 376.93359375 C175.6328125 372.1200067 175.6328125 372.1200067 175.6328125 369.88671875 C174.9728125 369.88671875 174.3128125 369.88671875 173.6328125 369.88671875 C172.328125 368.26171875 172.328125 368.26171875 170.7578125 365.88671875 C167.60305614 361.24929222 164.32128546 356.73857607 160.9453125 352.26171875 C160.43033203 351.57762939 159.91535156 350.89354004 159.38476562 350.1887207 C158.32523011 348.78215791 157.26516788 347.37599173 156.20458984 345.97021484 C148.77038665 336.11568081 141.38749349 326.22576446 134.0859375 316.27246094 C130.89180843 311.92568329 127.66983511 307.60258485 124.41015625 303.3046875 C123.71704346 302.38913086 123.02393066 301.47357422 122.30981445 300.53027344 C120.96217033 298.75308278 119.61056276 296.97888929 118.25463867 295.20800781 C117.64982666 294.40975586 117.04501465 293.61150391 116.421875 292.7890625 C115.88256348 292.08257568 115.34325195 291.37608887 114.78759766 290.64819336 C113.6328125 288.88671875 113.6328125 288.88671875 113.6328125 286.88671875 C113.0140625 287.38171875 112.3953125 287.87671875 111.7578125 288.38671875 C109.6328125 289.88671875 109.6328125 289.88671875 107.6328125 289.88671875 C107.6328125 290.54671875 107.6328125 291.20671875 107.6328125 291.88671875 C105.91329276 293.42523641 104.13093753 294.89403634 102.3203125 296.32421875 C98.46814248 299.33907444 98.46814248 299.33907444 94.90234375 302.671875 C93.6328125 303.88671875 93.6328125 303.88671875 91.6328125 303.88671875 C91.6328125 304.54671875 91.6328125 305.20671875 91.6328125 305.88671875 C89.91948496 307.47205577 88.13592203 308.9821309 86.3203125 310.44921875 C85.33417969 311.25488281 84.34804688 312.06054688 83.33203125 312.890625 C80.6328125 314.88671875 80.6328125 314.88671875 77.6328125 315.88671875 C77.6328125 316.54671875 77.6328125 317.20671875 77.6328125 317.88671875 C76.08040909 319.27997829 74.46251265 320.60052003 72.8203125 321.88671875 C68.69144077 325.18555957 64.71713571 328.56106228 60.8203125 332.13671875 C50.18947138 341.88671875 50.18947138 341.88671875 47.6328125 341.88671875 C47.6328125 342.54671875 47.6328125 343.20671875 47.6328125 343.88671875 C46.05994566 345.30110281 44.42141254 346.64276276 42.7578125 347.94921875 C37.98790196 351.76022975 33.4185641 355.71551871 28.921875 359.84375 C22.15097694 365.88671875 22.15097694 365.88671875 19.6328125 365.88671875 C19.6328125 366.54671875 19.6328125 367.20671875 19.6328125 367.88671875 C18.18334961 369.21191406 18.18334961 369.21191406 16.16015625 370.71484375 C15.42474609 371.26785156 14.68933594 371.82085937 13.93164062 372.390625 C13.15240234 372.96683594 12.37316406 373.54304688 11.5703125 374.13671875 C6.09097517 378.22157178 0.77395392 382.38053902 -4.3671875 386.88671875 C3.55015424 405.02325366 3.55015424 405.02325366 11.8125 423.00390625 C14.18800375 428.05083365 16.50462006 433.12463713 18.8203125 438.19921875 C19.23676025 439.10696045 19.65320801 440.01470215 20.08227539 440.94995117 C21.28387889 443.58789337 22.46326501 446.23442292 23.6328125 448.88671875 C24.21095703 450.17255859 24.21095703 450.17255859 24.80078125 451.484375 C27.0994889 456.83707996 28.35386791 461.42721641 28.2578125 467.26171875 C28.2472583 467.99285889 28.2367041 468.72399902 28.22583008 469.47729492 C27.65710674 482.53787597 19.45687729 491.15309093 10.6328125 499.88671875 C9.98957031 500.551875 9.34632813 501.21703125 8.68359375 501.90234375 C4.58994529 505.83377304 0.36338693 507.74447045 -5.3671875 507.88671875 C-17.87576646 504.34262138 -27.60370743 488.33601902 -34.3671875 477.88671875 C-34.3671875 477.22671875 -34.3671875 476.56671875 -34.3671875 475.88671875 C-35.0271875 475.88671875 -35.6871875 475.88671875 -36.3671875 475.88671875 C-40.3671875 470.47495404 -40.3671875 470.47495404 -40.3671875 467.88671875 C-41.0271875 467.88671875 -41.6871875 467.88671875 -42.3671875 467.88671875 C-43.95037495 465.85597639 -45.41752691 463.82270819 -46.8671875 461.69921875 C-50.30073152 456.77487636 -53.80337279 451.9356166 -57.4921875 447.19921875 C-60.69956634 443.06229284 -63.87938801 438.9080744 -66.9921875 434.69921875 C-67.64445312 433.81878906 -68.29671875 432.93835938 -68.96875 432.03125 C-70.3671875 429.88671875 -70.3671875 429.88671875 -70.3671875 427.88671875 C-71.37136719 428.31984375 -72.37554687 428.75296875 -73.41015625 429.19921875 C-83.6647823 433.44729371 -93.44524254 436.59729396 -104.3046875 432.19921875 C-112.05060248 428.11423804 -116.8511905 422.94946105 -120.3671875 414.88671875 C-122.5912258 405.52234697 -120.79127689 398.00467823 -116.26953125 389.74609375 C-115.33071045 387.81155391 -114.81728098 385.98406156 -114.3671875 383.88671875 C-115.45193359 383.51546875 -115.45193359 383.51546875 -116.55859375 383.13671875 C-119.66210974 381.75545989 -121.73573755 380.10337819 -124.3046875 377.88671875 C-128.49737611 374.36936254 -132.76510333 371.094759 -137.2421875 367.94921875 C-143.02282404 363.87978335 -148.6453316 359.64502267 -154.23046875 355.3125 C-160.5660477 350.41288041 -167.00175971 345.64466088 -173.4296875 340.8671875 C-174.84636109 339.81120721 -176.26302781 338.7552177 -177.6796875 337.69921875 C-178.33751221 337.21211426 -178.99533691 336.72500977 -179.6730957 336.22314453 C-191.67779775 327.26549826 -191.67779775 327.26549826 -193.3671875 323.88671875 C-193.54174445 321.97517705 -193.63433896 320.05567819 -193.6796875 318.13671875 C-193.71707031 317.110625 -193.75445312 316.08453125 -193.79296875 315.02734375 C-192.89078788 308.37272525 -187.70199804 303.86443255 -183.1171875 299.32421875 C-182.54162109 298.7521167 -181.96605469 298.18001465 -181.37304688 297.59057617 C-177.3230412 293.64341155 -173.41766738 290.50214583 -168.3671875 287.88671875 C-167.5834375 287.47421875 -166.7996875 287.06171875 -165.9921875 286.63671875 C-154.00255873 283.21111053 -143.18713385 286.0627179 -132.1171875 291.07421875 C-131.20751221 291.47495605 -130.29783691 291.87569336 -129.3605957 292.28857422 C-122.85624312 295.16908141 -116.40491674 298.16128263 -109.9765625 301.20703125 C-105.45591594 303.31079534 -100.88391223 305.28277287 -96.30029297 307.24462891 C-92.94511252 308.69763385 -89.66090928 310.22017898 -86.421875 311.91796875 C-85.47646851 312.41200195 -85.47646851 312.41200195 -84.51196289 312.91601562 C-82.78599274 313.83040035 -81.07034684 314.76419709 -79.35546875 315.69921875 C-76.49590163 317.04375449 -76.49590163 317.04375449 -73.73828125 316.91015625 C-70.40763346 315.47254551 -69.17615456 313.47815648 -67.1171875 310.51171875 C-66.33664324 309.41783536 -65.55403682 308.32542093 -64.76953125 307.234375 C-64.37362793 306.67766113 -63.97772461 306.12094727 -63.56982422 305.54736328 C-53.53693416 291.69358371 -53.53693416 291.69358371 -47.3671875 287.88671875 C-44.56138465 287.5085231 -42.2176896 287.64098581 -39.3671875 287.88671875 C-39.0371875 287.22671875 -38.7071875 286.56671875 -38.3671875 285.88671875 C-37.7071875 285.88671875 -37.0471875 285.88671875 -36.3671875 285.88671875 C-36.026875 285.08234375 -36.026875 285.08234375 -35.6796875 284.26171875 C-33.93336694 281.10171012 -31.7269026 278.61902045 -29.3671875 275.88671875 C-29.6971875 275.22671875 -30.0271875 274.56671875 -30.3671875 273.88671875 C-30.94874139 270.63001696 -31.19733879 269.01138757 -30.3671875 265.88671875 C-28.24931168 263.00976269 -25.94465191 260.52684709 -23.43359375 257.98828125 C-21.32557549 256.06034039 -21.32557549 256.06034039 -20.3671875 253.88671875 C-19.7071875 253.88671875 -19.0471875 253.88671875 -18.3671875 253.88671875 C-18.12097656 253.32082031 -17.87476563 252.75492188 -17.62109375 252.171875 C-16.15182526 249.49423617 -14.38966315 247.55628263 -12.3046875 245.32421875 C-6.64517632 239.15352591 -1.28304316 232.74076563 3.76953125 226.0625 C4.38441406 225.34449219 4.99929687 224.62648437 5.6328125 223.88671875 C6.2928125 223.88671875 6.9528125 223.88671875 7.6328125 223.88671875 C7.87515625 223.32597656 8.1175 222.76523438 8.3671875 222.1875 C9.8863226 219.42586242 11.74176507 217.38640433 13.8828125 215.07421875 C14.67945313 214.19894531 15.47609375 213.32367188 16.296875 212.421875 C17.71893774 210.87853266 19.14916495 209.34259436 20.59375 207.8203125 C22.4529032 205.85642478 22.4529032 205.85642478 24.6328125 202.88671875 C24.45521085 200.34211585 24.01765865 199.25300113 22.16503906 197.48974609 C21.54081055 197.07160645 20.91658203 196.6534668 20.2734375 196.22265625 C19.57629639 195.74546143 18.87915527 195.2682666 18.16088867 194.77661133 C17.03324097 194.0267395 17.03324097 194.0267395 15.8828125 193.26171875 C14.32008019 192.19234301 12.75889642 191.12070102 11.19921875 190.046875 C10.42336426 189.51465332 9.64750977 188.98243164 8.84814453 188.43408203 C5.76536143 186.28082225 2.78383779 184.01272768 -0.1796875 181.69921875 C-0.70643066 181.28945801 -1.23317383 180.87969727 -1.77587891 180.45751953 C-2.29456543 180.05388184 -2.81325195 179.65024414 -3.34765625 179.234375 C-9.68593526 174.30642457 -16.13274719 169.52278079 -22.60546875 164.7734375 C-31.08404066 158.55139002 -39.51536742 152.27826035 -47.8671875 145.88671875 C-55.37078404 140.1446499 -62.93027634 134.48841534 -70.5480957 128.89892578 C-75.57070034 125.21325829 -80.5736196 121.50333725 -85.5546875 117.76171875 C-86.19841309 117.27848145 -86.84213867 116.79524414 -87.50537109 116.29736328 C-90.87533066 113.76544047 -94.24019725 111.22691402 -97.6015625 108.68359375 C-99.00229911 107.62589797 -100.40333583 106.5685995 -101.8046875 105.51171875 C-102.47137451 105.00833984 -103.13806152 104.50496094 -103.82495117 103.98632812 C-108.08778393 100.78799937 -112.41984095 97.76848062 -116.9609375 94.97265625 C-117.425 94.61429687 -117.8890625 94.2559375 -118.3671875 93.88671875 C-118.3671875 93.22671875 -118.3671875 92.56671875 -118.3671875 91.88671875 C-119.44033203 91.52320312 -119.44033203 91.52320312 -120.53515625 91.15234375 C-123.75697526 89.71252394 -125.99465077 87.92152569 -128.6796875 85.63671875 C-131.96642896 82.87196315 -135.24928819 80.1979342 -138.7421875 77.69921875 C-144.04749068 73.75285594 -147.98228888 69.55941211 -149.3671875 62.88671875 C-150.02149097 55.17528502 -149.62400866 49.04689177 -144.76171875 42.8359375 C-142.38299092 40.09833004 -139.89748268 37.48290309 -137.3671875 34.88671875 C-136.69091309 34.18998047 -136.01463867 33.49324219 -135.31787109 32.77539062 C-133.03088355 30.42838888 -130.73282668 28.09286843 -128.4296875 25.76171875 C-127.67155762 24.99037598 -126.91342773 24.2190332 -126.13232422 23.42431641 C-125.41705566 22.70808105 -124.70178711 21.9918457 -123.96484375 21.25390625 C-123.32039307 20.60534668 -122.67594238 19.95678711 -122.01196289 19.28857422 C-120.3671875 17.88671875 -120.3671875 17.88671875 -118.3671875 17.88671875 C-118.3671875 17.22671875 -118.3671875 16.56671875 -118.3671875 15.88671875 C-109.40643942 7.96686565 -98.05713937 5.00657861 -86.3203125 5.38671875 C-78.88271322 6.32744277 -72.2518764 9.01842791 -65.3671875 11.88671875 C-63.85922607 12.51320313 -63.85922607 12.51320313 -62.32080078 13.15234375 C-53.51779145 16.82059371 -53.51779145 16.82059371 -49.30102539 18.63427734 C-48.31481201 19.05531738 -47.32859863 19.47635742 -46.3125 19.91015625 C-44.99016357 20.4812915 -44.99016357 20.4812915 -43.64111328 21.06396484 C-41.30004959 22.05683618 -41.30004959 22.05683618 -38.3671875 21.88671875 C-38.3671875 21.22671875 -38.3671875 20.56671875 -38.3671875 19.88671875 C-37.7071875 19.88671875 -37.0471875 19.88671875 -36.3671875 19.88671875 C-36.3671875 19.22671875 -36.3671875 18.56671875 -36.3671875 17.88671875 C-35.7071875 17.88671875 -35.0471875 17.88671875 -34.3671875 17.88671875 C-34.3671875 17.22671875 -34.3671875 16.56671875 -34.3671875 15.88671875 C-33.7071875 15.88671875 -33.0471875 15.88671875 -32.3671875 15.88671875 C-32.3671875 15.22671875 -32.3671875 14.56671875 -32.3671875 13.88671875 C-31.7071875 13.88671875 -31.0471875 13.88671875 -30.3671875 13.88671875 C-30.3671875 13.22671875 -30.3671875 12.56671875 -30.3671875 11.88671875 C-29.7071875 11.88671875 -29.0471875 11.88671875 -28.3671875 11.88671875 C-28.3671875 11.22671875 -28.3671875 10.56671875 -28.3671875 9.88671875 C-27.7071875 9.88671875 -27.0471875 9.88671875 -26.3671875 9.88671875 C-26.3671875 9.22671875 -26.3671875 8.56671875 -26.3671875 7.88671875 C-25.7071875 7.88671875 -25.0471875 7.88671875 -24.3671875 7.88671875 C-24.3671875 7.22671875 -24.3671875 6.56671875 -24.3671875 5.88671875 C-23.7071875 5.88671875 -23.0471875 5.88671875 -22.3671875 5.88671875 C-22.3671875 5.22671875 -22.3671875 4.56671875 -22.3671875 3.88671875 C-20.72265625 2.6328125 -20.72265625 2.6328125 -18.5546875 1.32421875 C-17.84699219 0.88980469 -17.13929688 0.45539062 -16.41015625 0.0078125 C-11.01487081 -2.95288907 -5.51122493 -2.59191272 0 0 Z " fill="#60AEF5" transform="translate(193.3671875,3.11328125)"/>
<path d="M0 0 C2.4375 1 2.4375 1 4 3 C5.05985944 9.46514258 5.05985944 9.46514258 2.71875 12.85546875 C1.21305642 14.40913786 -0.213848 15.77838309 -2 17 C-2.66 17 -3.32 17 -4 17 C-4 17.66 -4 18.32 -4 19 C-5.71951974 20.53851766 -7.50187497 22.00731759 -9.3125 23.4375 C-13.16467002 26.45235569 -13.16467002 26.45235569 -16.73046875 29.78515625 C-18 31 -18 31 -20 31 C-20 31.66 -20 32.32 -20 33 C-20.66 33 -21.32 33 -22 33 C-21.52691406 34.04414063 -21.05382812 35.08828125 -20.56640625 36.1640625 C-16.56516276 45.05025969 -12.70624651 53.98649167 -9 63 C-8.60240479 63.96115723 -8.20480957 64.92231445 -7.79516602 65.91259766 C-7.24687134 67.25523682 -7.24687134 67.25523682 -6.6875 68.625 C-6.36136719 69.42164063 -6.03523438 70.21828125 -5.69921875 71.0390625 C-5 73 -5 73 -5 75 C-4.43152344 74.71125 -3.86304688 74.4225 -3.27734375 74.125 C1.65240471 71.75477036 5.42840623 70.18958636 11 71 C17.44332875 73.38490787 21.99311062 77.34792441 26.75 82.1875 C27.39582031 82.80947266 28.04164063 83.43144531 28.70703125 84.07226562 C33.40779748 88.7875106 37.67203135 94.29172213 38.15161133 101.17651367 C37.903448 106.42873753 35.3767752 111.04464961 32 115 C31.34 115 30.68 115 30 115 C30 115.66 30 116.32 30 117 C29.34 117 28.68 117 28 117 C28 117.66 28 118.32 28 119 C27.34 119 26.68 119 26 119 C26 119.66 26 120.32 26 121 C25.34 121 24.68 121 24 121 C24 121.66 24 122.32 24 123 C23.34 123 22.68 123 22 123 C22 123.66 22 124.32 22 125 C21.34 125 20.68 125 20 125 C20 125.66 20 126.32 20 127 C19.34 127 18.68 127 18 127 C18.93132007 129.56489767 19.86978507 132.12679206 20.8125 134.6875 C21.07353516 135.40873047 21.33457031 136.12996094 21.60351562 136.87304688 C23.07529505 140.85230236 24.65637358 144.431776 27 148 C27.99 147.67 28.98 147.34 30 147 C30 146.34 30 145.68 30 145 C30.66 145 31.32 145 32 145 C32 144.34 32 143.68 32 143 C37.5567322 139.68960635 41.50927019 138.26717567 48 139 C51.71435338 140.50002733 54.99158463 142.33870948 58 145 C58 145.66 58 146.32 58 147 C58.66 147 59.32 147 60 147 C60 147.66 60 148.32 60 149 C60.66 149 61.32 149 62 149 C62 149.66 62 150.32 62 151 C62.66 151 63.32 151 64 151 C64 151.66 64 152.32 64 153 C64.66 153 65.32 153 66 153 C66 153.66 66 154.32 66 155 C66.66 155 67.32 155 68 155 C72.14494226 159.6473595 73.19942326 163.03357688 73.4375 169.1875 C73.49808594 170.27417969 73.55867187 171.36085938 73.62109375 172.48046875 C72.08005683 181.21301128 63.69788381 187.55302925 57.625 193.5 C56.79355469 194.32242188 55.96210938 195.14484375 55.10546875 195.9921875 C53.07484018 197.99947551 51.03966833 200.00190534 49 202 C50.99254896 208.51617363 53.8546838 214.65262989 56.63476562 220.86132812 C62.14649386 233.45301344 65.943114 247.21776015 61.875 260.875 C57.18950685 271.65491082 50.29240621 279.34038052 42.02392578 287.49755859 C40.12172875 289.37823424 38.24195939 291.27945529 36.36328125 293.18359375 C35.14190598 294.40232678 33.919291 295.61981894 32.6953125 296.8359375 C32.14295929 297.39638763 31.59060608 297.95683777 31.02151489 298.53427124 C25.41644805 304.00861131 19.51615031 307.57936782 11.5 307.5 C3.11373407 307.17150571 -1.37035799 304.97671222 -7.125 298.9375 C-12.5074133 292.64421676 -17.31293138 285.90898412 -22.1796875 279.21484375 C-26.1024593 273.83146543 -30.13621293 268.53700413 -34.1875 263.25 C-39.2108801 256.68524009 -44.18077438 250.08989089 -49.04614258 243.40722656 C-52.92872492 238.07758675 -56.88215802 232.80280994 -60.85449219 227.53979492 C-62.24230789 225.69757226 -63.62308615 223.85038244 -65 222 C-65.48243164 221.35546875 -65.96486328 220.7109375 -66.46191406 220.046875 C-70 215.23328795 -70 215.23328795 -70 213 C-70.66 213 -71.32 213 -72 213 C-73.3046875 211.375 -73.3046875 211.375 -74.875 209 C-78.02975636 204.36257347 -81.31152704 199.85185732 -84.6875 195.375 C-85.20248047 194.69091064 -85.71746094 194.00682129 -86.24804688 193.30200195 C-87.30758239 191.89543916 -88.36764462 190.48927298 -89.42822266 189.08349609 C-96.86242585 179.22896206 -104.24531901 169.33904571 -111.546875 159.38574219 C-114.74100407 155.03896454 -117.96297739 150.7158661 -121.22265625 146.41796875 C-122.26232544 145.04463379 -122.26232544 145.04463379 -123.32299805 143.64355469 C-124.67064217 141.86636403 -126.02224974 140.09217054 -127.37817383 138.32128906 C-127.98298584 137.52303711 -128.58779785 136.72478516 -129.2109375 135.90234375 C-129.75024902 135.19585693 -130.28956055 134.48937012 -130.84521484 133.76147461 C-132 132 -132 132 -132 130 C-132.61875 130.495 -133.2375 130.99 -133.875 131.5 C-136 133 -136 133 -138 133 C-138 133.66 -138 134.32 -138 135 C-139.71951974 136.53851766 -141.50187497 138.00731759 -143.3125 139.4375 C-147.16467002 142.45235569 -147.16467002 142.45235569 -150.73046875 145.78515625 C-152 147 -152 147 -154 147 C-154 147.66 -154 148.32 -154 149 C-155.71332754 150.58533702 -157.49689047 152.09541215 -159.3125 153.5625 C-160.29863281 154.36816406 -161.28476562 155.17382812 -162.30078125 156.00390625 C-165 158 -165 158 -168 159 C-168 159.66 -168 160.32 -168 161 C-169.55240341 162.39325954 -171.17029985 163.71380128 -172.8125 165 C-176.94137173 168.29884082 -180.91567679 171.67434353 -184.8125 175.25 C-195.44334112 185 -195.44334112 185 -198 185 C-198 185.66 -198 186.32 -198 187 C-199.57286684 188.41438406 -201.21139996 189.75604401 -202.875 191.0625 C-207.64491054 194.873511 -212.2142484 198.82879996 -216.7109375 202.95703125 C-223.48183556 209 -223.48183556 209 -226 209 C-226 209.66 -226 210.32 -226 211 C-227.44946289 212.32519531 -227.44946289 212.32519531 -229.47265625 213.828125 C-230.20806641 214.38113281 -230.94347656 214.93414062 -231.70117188 215.50390625 C-232.48041016 216.08011719 -233.25964844 216.65632812 -234.0625 217.25 C-239.54183733 221.33485303 -244.85885858 225.49382027 -250 230 C-242.08265826 248.13653491 -242.08265826 248.13653491 -233.8203125 266.1171875 C-231.44480875 271.1641149 -229.12819244 276.23791838 -226.8125 281.3125 C-226.39605225 282.2202417 -225.97960449 283.1279834 -225.55053711 284.06323242 C-224.34893361 286.70117462 -223.16954749 289.34770417 -222 292 C-221.42185547 293.28583984 -221.42185547 293.28583984 -220.83203125 294.59765625 C-218.5333236 299.95036121 -217.27894459 304.54049766 -217.375 310.375 C-217.3855542 311.10614014 -217.3961084 311.83728027 -217.40698242 312.59057617 C-217.97570576 325.65115722 -226.17593521 334.26637218 -235 343 C-235.64324219 343.66515625 -236.28648437 344.3303125 -236.94921875 345.015625 C-241.04286721 348.94705429 -245.26942557 350.8577517 -251 351 C-263.50857896 347.45590263 -273.23651993 331.44930027 -280 321 C-280 320.34 -280 319.68 -280 319 C-280.66 319 -281.32 319 -282 319 C-286 313.58823529 -286 313.58823529 -286 311 C-286.66 311 -287.32 311 -288 311 C-289.58318745 308.96925764 -291.05033941 306.93598944 -292.5 304.8125 C-295.93354402 299.88815761 -299.43618529 295.04889785 -303.125 290.3125 C-306.33237884 286.17557409 -309.51220051 282.02135565 -312.625 277.8125 C-313.27726562 276.93207031 -313.92953125 276.05164063 -314.6015625 275.14453125 C-316 273 -316 273 -316 271 C-317.00417969 271.433125 -318.00835937 271.86625 -319.04296875 272.3125 C-329.2975948 276.56057496 -339.07805504 279.71057521 -349.9375 275.3125 C-357.68341498 271.22751929 -362.484003 266.0627423 -366 258 C-368.2240383 248.63562822 -366.42408939 241.11795948 -361.90234375 232.859375 C-360.96352295 230.92483516 -360.45009348 229.09734281 -360 227 C-361.08474609 226.62875 -361.08474609 226.62875 -362.19140625 226.25 C-365.29492224 224.86874114 -367.36855005 223.21665944 -369.9375 221 C-374.13018861 217.48264379 -378.39791583 214.20804025 -382.875 211.0625 C-388.65563654 206.9930646 -394.2781441 202.75830392 -399.86328125 198.42578125 C-406.1988602 193.52616166 -412.63457221 188.75794213 -419.0625 183.98046875 C-420.47917359 182.92448846 -421.89584031 181.86849895 -423.3125 180.8125 C-423.97032471 180.32539551 -424.62814941 179.83829102 -425.3059082 179.33642578 C-437.31061025 170.37877951 -437.31061025 170.37877951 -439 167 C-439.17455695 165.0884583 -439.26715146 163.16895944 -439.3125 161.25 C-439.34988281 160.22390625 -439.38726562 159.1978125 -439.42578125 158.140625 C-438.52360038 151.4860065 -433.33481054 146.9777138 -428.75 142.4375 C-428.17443359 141.86539795 -427.59886719 141.2932959 -427.00585938 140.70385742 C-422.9558537 136.7566928 -419.05047988 133.61542708 -414 131 C-413.21625 130.5875 -412.4325 130.175 -411.625 129.75 C-399.63537123 126.32439178 -388.81994635 129.17599915 -377.75 134.1875 C-376.84032471 134.5882373 -375.93064941 134.98897461 -374.9934082 135.40185547 C-368.48905562 138.28236266 -362.03772924 141.27456388 -355.609375 144.3203125 C-351.08872844 146.42407659 -346.51672473 148.39605412 -341.93310547 150.35791016 C-338.57792502 151.8109151 -335.29372178 153.33346023 -332.0546875 155.03125 C-331.4244165 155.36060547 -330.79414551 155.68996094 -330.14477539 156.02929688 C-328.41880524 156.9436816 -326.70315934 157.87747834 -324.98828125 158.8125 C-322.12871413 160.15703574 -322.12871413 160.15703574 -319.37109375 160.0234375 C-316.04044596 158.58582676 -314.80896706 156.59143773 -312.75 153.625 C-311.96945574 152.53111661 -311.18684932 151.43870218 -310.40234375 150.34765625 C-310.00644043 149.79094238 -309.61053711 149.23422852 -309.20263672 148.66064453 C-299.10322123 134.71500423 -299.10322123 134.71500423 -293 131 C-289.25 130.9375 -289.25 130.9375 -286 132 C-283.93752871 134.33148929 -283.9856451 136.13661905 -283.66015625 139.234375 C-284.08001074 143.88655579 -285.92120593 146.22762274 -288.875 149.625 C-289.8952292 150.86010089 -290.91474594 152.09579059 -291.93359375 153.33203125 C-292.70872314 154.25556396 -292.70872314 154.25556396 -293.49951172 155.19775391 C-311.6191273 176.96134034 -326.6137929 201.10548724 -340 226 C-340.63542725 227.17828369 -340.63542725 227.17828369 -341.28369141 228.38037109 C-342.54822566 230.73015061 -343.80713525 233.08281023 -345.0625 235.4375 C-345.4450293 236.15389648 -345.82755859 236.87029297 -346.22167969 237.60839844 C-349.09407113 243.04457729 -350.42756096 246.80036611 -350 253 C-348.34860695 256.5386994 -347.28394771 257.81070153 -344 260 C-336.30683378 261.10184668 -330.49736745 259.55349744 -323.8125 255.875 C-322.96719727 255.42979004 -322.12189453 254.98458008 -321.25097656 254.52587891 C-318.48211756 253.04878479 -315.73943125 251.53092847 -313 250 C-312.05366699 249.47535156 -311.10733398 248.95070313 -310.13232422 248.41015625 C-284.57037983 234.13824889 -260.5004151 217.71625438 -238 199 C-236.14613548 197.49962659 -234.29196546 195.99963059 -232.4375 194.5 C-228.00463466 190.8782547 -223.75273972 187.09792359 -219.5234375 183.2421875 C-216.94917642 180.95484096 -214.30710511 178.78451729 -211.625 176.625 C-207.07219493 172.94428153 -202.76582589 169.07351352 -198.4831543 165.08862305 C-194.37239043 161.28614986 -190.07733477 157.75736701 -185.71484375 154.24609375 C-182.89326505 151.9116941 -180.19409288 149.48009402 -177.5 147 C-173.05272888 142.90648909 -168.45282537 139.07557501 -163.75 135.28125 C-159.96094593 132.13805742 -156.36730648 128.79841405 -152.74609375 125.46484375 C-150.08124834 123.07292703 -147.35168175 120.80745116 -144.5625 118.5625 C-140.56776014 115.34056899 -136.75445651 111.99344505 -133 108.5 C-128.38995664 104.21044887 -123.62217044 100.19589328 -118.71484375 96.24609375 C-115.89326505 93.9116941 -113.19409288 91.48009402 -110.5 89 C-106.94329756 85.72581577 -103.32838189 82.59357567 -99.5625 79.5625 C-95.56776014 76.34056899 -91.75445651 72.99344505 -88 69.5 C-83.38995664 65.21044887 -78.62217044 61.19589328 -73.71484375 57.24609375 C-70.89326505 54.9116941 -68.19409288 52.48009402 -65.5 50 C-61.94329756 46.72581577 -58.32838189 43.59357567 -54.5625 40.5625 C-50.56776014 37.34056899 -46.75445651 33.99344505 -43 30.5 C-38.39395981 26.21417374 -33.63171506 22.20172479 -28.7265625 18.2578125 C-25.8337687 15.86234715 -23.0724275 13.35954053 -20.3125 10.8125 C-7.10543634 -1.22978706 -7.10543634 -1.22978706 0 0 Z " fill="#010101" transform="translate(439,160)"/>
<path d="M0 0 C1.99954603 1.20613186 3.87448598 2.34878193 5.6328125 3.88671875 C5.6328125 4.54671875 5.6328125 5.20671875 5.6328125 5.88671875 C6.2928125 5.88671875 6.9528125 5.88671875 7.6328125 5.88671875 C7.6328125 6.54671875 7.6328125 7.20671875 7.6328125 7.88671875 C8.2928125 7.88671875 8.9528125 7.88671875 9.6328125 7.88671875 C9.6328125 8.54671875 9.6328125 9.20671875 9.6328125 9.88671875 C10.2928125 9.88671875 10.9528125 9.88671875 11.6328125 9.88671875 C11.6328125 10.54671875 11.6328125 11.20671875 11.6328125 11.88671875 C12.2928125 11.88671875 12.9528125 11.88671875 13.6328125 11.88671875 C13.6328125 12.54671875 13.6328125 13.20671875 13.6328125 13.88671875 C14.2928125 13.88671875 14.9528125 13.88671875 15.6328125 13.88671875 C20.11342045 18.78738369 22.13102173 23.03486944 21.953125 29.76953125 C21.04623501 35.76385292 17.38536095 40.32216927 13.6328125 44.88671875 C14.51324219 45.22445312 15.39367187 45.5621875 16.30078125 45.91015625 C17.46222656 46.35617188 18.62367188 46.8021875 19.8203125 47.26171875 C20.96886719 47.70257813 22.11742187 48.1434375 23.30078125 48.59765625 C26.08617244 49.67524018 28.86278971 50.77036305 31.6328125 51.88671875 C31.6328125 51.22671875 31.6328125 50.56671875 31.6328125 49.88671875 C32.2928125 49.88671875 32.9528125 49.88671875 33.6328125 49.88671875 C33.6328125 49.22671875 33.6328125 48.56671875 33.6328125 47.88671875 C34.2928125 47.88671875 34.9528125 47.88671875 35.6328125 47.88671875 C35.6328125 47.22671875 35.6328125 46.56671875 35.6328125 45.88671875 C36.2928125 45.88671875 36.9528125 45.88671875 37.6328125 45.88671875 C37.6328125 45.22671875 37.6328125 44.56671875 37.6328125 43.88671875 C38.2928125 43.88671875 38.9528125 43.88671875 39.6328125 43.88671875 C39.6328125 43.22671875 39.6328125 42.56671875 39.6328125 41.88671875 C40.2928125 41.88671875 40.9528125 41.88671875 41.6328125 41.88671875 C41.6328125 41.22671875 41.6328125 40.56671875 41.6328125 39.88671875 C42.2928125 39.88671875 42.9528125 39.88671875 43.6328125 39.88671875 C43.6328125 39.22671875 43.6328125 38.56671875 43.6328125 37.88671875 C44.2928125 37.88671875 44.9528125 37.88671875 45.6328125 37.88671875 C45.6328125 37.22671875 45.6328125 36.56671875 45.6328125 35.88671875 C50.48940049 31.44640973 54.82362536 29.32713645 61.515625 29.50390625 C67.73973866 30.62929949 72.49209143 35.41026354 76.6328125 39.88671875 C77.839375 41.09328125 77.839375 41.09328125 79.0703125 42.32421875 C79.9159375 43.16984375 80.7615625 44.01546875 81.6328125 44.88671875 C82.41398437 45.61568359 82.41398437 45.61568359 83.2109375 46.359375 C87.64708563 50.56940878 89.39413699 53.46018435 90.0078125 59.69921875 C89.90952265 64.40819613 87.96586835 67.89522561 85.6328125 71.88671875 C85.3028125 72.54671875 84.9728125 73.20671875 84.6328125 73.88671875 C88.69374469 75.61958322 92.75684798 77.34730175 96.8203125 79.07421875 C97.95146484 79.55697266 99.08261719 80.03972656 100.24804688 80.53710938 C107.98513054 83.82151241 115.7685206 86.92061301 123.6328125 89.88671875 C123.91890381 89.27844238 124.20499512 88.67016602 124.49975586 88.04345703 C125.99844928 85.19074045 128.00418376 83.11814934 130.1953125 80.76171875 C133.27000436 77.57164366 133.27000436 77.57164366 135.6328125 73.88671875 C136.2928125 73.88671875 136.9528125 73.88671875 137.6328125 73.88671875 C137.84421875 73.35949219 138.055625 72.83226563 138.2734375 72.2890625 C140.18864068 68.9044362 142.73299275 66.27677031 145.3828125 63.44921875 C146.15238281 62.60907227 146.15238281 62.60907227 146.9375 61.75195312 C150.28675818 58.14603068 153.71891949 54.87805127 157.6328125 51.88671875 C158.2928125 51.88671875 158.9528125 51.88671875 159.6328125 51.88671875 C159.6328125 51.22671875 159.6328125 50.56671875 159.6328125 49.88671875 C161.03125 48.60913086 161.03125 48.60913086 163.0078125 47.1640625 C163.73782471 46.62982666 164.46783691 46.09559082 165.2199707 45.54516602 C166.0162085 44.97725342 166.81244629 44.40934082 167.6328125 43.82421875 C168.44645264 43.24148193 169.26009277 42.65874512 170.09838867 42.05834961 C177.6472594 36.73581314 185.4330721 32.12265646 193.6328125 27.88671875 C194.64859375 27.34660156 195.664375 26.80648438 196.7109375 26.25 C211.48726984 18.88117458 228.36908811 14.43577931 244.6328125 11.88671875 C245.27766602 11.78520508 245.92251953 11.68369141 246.58691406 11.57910156 C262.1552788 9.19611189 276.98660107 7.42880889 290.4453125 17.07421875 C297.70710186 23.17983771 301.85536128 30.6051219 303.6328125 39.88671875 C305.7706638 70.85430743 295.08806463 101.80793957 280.5078125 128.57421875 C280.11239258 129.30471436 279.71697266 130.03520996 279.30957031 130.7878418 C276.65824815 135.5118072 273.74761592 140.29197703 269.6328125 143.88671875 C265.55607247 144.65989358 263.6900491 144.56443452 260.1953125 142.32421875 C258.02613089 138.94029544 258.26282542 136.8702463 258.6328125 132.88671875 C259.89744574 130.36318758 261.13861629 128.20678883 262.6953125 125.88671875 C278.07833228 101.52976668 288.86799869 70.02541874 286.6328125 40.88671875 C285.30477943 35.14585138 281.83228065 30.94043141 276.8984375 27.7734375 C257.81076553 20.30291761 225.22622435 32.29303949 207.42749023 39.75463867 C194.34687839 45.4954115 182.89201163 53.11071285 171.6328125 61.88671875 C170.73304688 62.56863281 169.83328125 63.25054687 168.90625 63.953125 C164.30879777 67.50191365 160.31294833 71.10223933 156.6015625 75.56640625 C154.08204993 78.53583178 151.419007 81.35710608 148.7578125 84.19921875 C144.24330712 89.04707074 139.99251747 94.03979379 135.84375 99.20703125 C133.523463 102.0192519 131.10210116 104.70469138 128.6328125 107.38671875 C125.33949551 110.96464338 122.18629929 114.60211541 119.1328125 118.38671875 C115.29445836 123.14411543 111.23658891 127.64455793 107.09765625 132.140625 C104.70573953 134.80547041 102.44026366 137.535037 100.1953125 140.32421875 C96.53774986 144.85908036 92.68664223 149.14208058 88.72119141 153.40380859 C84.91882443 157.51451151 81.39010658 161.80947459 77.87890625 166.171875 C74.75114071 169.95239161 71.42007367 173.5315275 68.09765625 177.140625 C65.70573953 179.80547041 63.44026366 182.535037 61.1953125 185.32421875 C57.53774986 189.85908036 53.68664223 194.14208058 49.72119141 198.40380859 C45.91882443 202.51451151 42.39010658 206.80947459 38.87890625 211.171875 C35.75114071 214.95239161 32.42007367 218.5315275 29.09765625 222.140625 C26.70573953 224.80547041 24.44026366 227.535037 22.1953125 230.32421875 C18.53774986 234.85908036 14.68664223 239.14208058 10.72119141 243.40380859 C6.9232645 247.5097114 3.3985532 251.79962949 -0.109375 256.15625 C-3.30170719 260.01687318 -6.67668596 263.69378027 -10.08984375 267.359375 C-12.04194403 269.52577103 -13.75697035 271.73708346 -15.4921875 274.07421875 C-17.11215002 275.99332207 -17.92545543 276.77024643 -20.3671875 277.4140625 C-23.44729882 277.55561173 -26.01732768 277.02666268 -28.8671875 275.88671875 C-30.72832803 273.40519804 -31.21644451 271.31482012 -31.1015625 268.21875 C-29.75717841 263.94961543 -26.52388088 261.11242129 -23.43359375 257.98828125 C-21.32557549 256.06034039 -21.32557549 256.06034039 -20.3671875 253.88671875 C-19.7071875 253.88671875 -19.0471875 253.88671875 -18.3671875 253.88671875 C-18.12097656 253.32082031 -17.87476563 252.75492188 -17.62109375 252.171875 C-16.15182526 249.49423617 -14.38966315 247.55628263 -12.3046875 245.32421875 C-6.64517632 239.15352591 -1.28304316 232.74076563 3.76953125 226.0625 C4.38441406 225.34449219 4.99929687 224.62648437 5.6328125 223.88671875 C6.2928125 223.88671875 6.9528125 223.88671875 7.6328125 223.88671875 C7.87515625 223.32597656 8.1175 222.76523438 8.3671875 222.1875 C9.8863226 219.42586242 11.74176507 217.38640433 13.8828125 215.07421875 C14.67945313 214.19894531 15.47609375 213.32367188 16.296875 212.421875 C17.71893774 210.87853266 19.14916495 209.34259436 20.59375 207.8203125 C22.4529032 205.85642478 22.4529032 205.85642478 24.6328125 202.88671875 C24.45521085 200.34211585 24.01765865 199.25300113 22.16503906 197.48974609 C21.54081055 197.07160645 20.91658203 196.6534668 20.2734375 196.22265625 C19.57629639 195.74546143 18.87915527 195.2682666 18.16088867 194.77661133 C17.03324097 194.0267395 17.03324097 194.0267395 15.8828125 193.26171875 C14.32008019 192.19234301 12.75889642 191.12070102 11.19921875 190.046875 C10.42336426 189.51465332 9.64750977 188.98243164 8.84814453 188.43408203 C5.76536143 186.28082225 2.78383779 184.01272768 -0.1796875 181.69921875 C-0.70643066 181.28945801 -1.23317383 180.87969727 -1.77587891 180.45751953 C-2.29456543 180.05388184 -2.81325195 179.65024414 -3.34765625 179.234375 C-9.68593526 174.30642457 -16.13274719 169.52278079 -22.60546875 164.7734375 C-31.08404066 158.55139002 -39.51536742 152.27826035 -47.8671875 145.88671875 C-55.37078404 140.1446499 -62.93027634 134.48841534 -70.5480957 128.89892578 C-75.57070034 125.21325829 -80.5736196 121.50333725 -85.5546875 117.76171875 C-86.19841309 117.27848145 -86.84213867 116.79524414 -87.50537109 116.29736328 C-90.87533066 113.76544047 -94.24019725 111.22691402 -97.6015625 108.68359375 C-99.00229911 107.62589797 -100.40333583 106.5685995 -101.8046875 105.51171875 C-102.47137451 105.00833984 -103.13806152 104.50496094 -103.82495117 103.98632812 C-108.08778393 100.78799937 -112.41984095 97.76848062 -116.9609375 94.97265625 C-117.425 94.61429687 -117.8890625 94.2559375 -118.3671875 93.88671875 C-118.3671875 93.22671875 -118.3671875 92.56671875 -118.3671875 91.88671875 C-119.08261719 91.644375 -119.79804687 91.40203125 -120.53515625 91.15234375 C-123.75697526 89.71252394 -125.99465077 87.92152569 -128.6796875 85.63671875 C-131.96642896 82.87196315 -135.24928819 80.1979342 -138.7421875 77.69921875 C-144.04749068 73.75285594 -147.98228888 69.55941211 -149.3671875 62.88671875 C-150.02149097 55.17528502 -149.62400866 49.04689177 -144.76171875 42.8359375 C-142.38299092 40.09833004 -139.89748268 37.48290309 -137.3671875 34.88671875 C-136.69091309 34.18998047 -136.01463867 33.49324219 -135.31787109 32.77539062 C-133.03088355 30.42838888 -130.73282668 28.09286843 -128.4296875 25.76171875 C-127.29249268 24.60470459 -127.29249268 24.60470459 -126.13232422 23.42431641 C-125.41705566 22.70808105 -124.70178711 21.9918457 -123.96484375 21.25390625 C-123.32039307 20.60534668 -122.67594238 19.95678711 -122.01196289 19.28857422 C-120.3671875 17.88671875 -120.3671875 17.88671875 -118.3671875 17.88671875 C-118.3671875 17.22671875 -118.3671875 16.56671875 -118.3671875 15.88671875 C-109.40643942 7.96686565 -98.05713937 5.00657861 -86.3203125 5.38671875 C-78.88271322 6.32744277 -72.2518764 9.01842791 -65.3671875 11.88671875 C-63.85922607 12.51320313 -63.85922607 12.51320313 -62.32080078 13.15234375 C-53.51779145 16.82059371 -53.51779145 16.82059371 -49.30102539 18.63427734 C-48.31481201 19.05531738 -47.32859863 19.47635742 -46.3125 19.91015625 C-44.99016357 20.4812915 -44.99016357 20.4812915 -43.64111328 21.06396484 C-41.30004959 22.05683618 -41.30004959 22.05683618 -38.3671875 21.88671875 C-38.3671875 21.22671875 -38.3671875 20.56671875 -38.3671875 19.88671875 C-37.7071875 19.88671875 -37.0471875 19.88671875 -36.3671875 19.88671875 C-36.3671875 19.22671875 -36.3671875 18.56671875 -36.3671875 17.88671875 C-35.7071875 17.88671875 -35.0471875 17.88671875 -34.3671875 17.88671875 C-34.3671875 17.22671875 -34.3671875 16.56671875 -34.3671875 15.88671875 C-33.7071875 15.88671875 -33.0471875 15.88671875 -32.3671875 15.88671875 C-32.3671875 15.22671875 -32.3671875 14.56671875 -32.3671875 13.88671875 C-31.7071875 13.88671875 -31.0471875 13.88671875 -30.3671875 13.88671875 C-30.3671875 13.22671875 -30.3671875 12.56671875 -30.3671875 11.88671875 C-29.7071875 11.88671875 -29.0471875 11.88671875 -28.3671875 11.88671875 C-28.3671875 11.22671875 -28.3671875 10.56671875 -28.3671875 9.88671875 C-27.7071875 9.88671875 -27.0471875 9.88671875 -26.3671875 9.88671875 C-26.3671875 9.22671875 -26.3671875 8.56671875 -26.3671875 7.88671875 C-25.7071875 7.88671875 -25.0471875 7.88671875 -24.3671875 7.88671875 C-24.3671875 7.22671875 -24.3671875 6.56671875 -24.3671875 5.88671875 C-23.7071875 5.88671875 -23.0471875 5.88671875 -22.3671875 5.88671875 C-22.3671875 5.22671875 -22.3671875 4.56671875 -22.3671875 3.88671875 C-20.72265625 2.6328125 -20.72265625 2.6328125 -18.5546875 1.32421875 C-17.84699219 0.88980469 -17.13929688 0.45539062 -16.41015625 0.0078125 C-11.01487081 -2.95288907 -5.51122493 -2.59191272 0 0 Z " fill="#010102" transform="translate(193.3671875,3.11328125)"/>
<path d="M0 0 C4.27359564 3.45957743 6.58751345 6.92945953 7.6875 12.3125 C8.19933286 20.6833154 7.31570073 28.80694121 6 37.0625 C5.82065918 38.19921143 5.64131836 39.33592285 5.45654297 40.50708008 C3.96874725 49.47401337 1.86723715 57.79601102 -1.3125 66.3125 C-1.97378906 68.14554688 -1.97378906 68.14554688 -2.6484375 70.015625 C-6.79769908 80.97334343 -11.90889991 91.90238996 -18.55859375 101.58203125 C-20.81326436 105.09208638 -20.84389189 107.2131911 -20.3125 111.3125 C-18.95364884 113.71333438 -18.95364884 113.71333438 -17.3125 115.3125 C-17.951875 115.93125 -18.59125 116.55 -19.25 117.1875 C-23.45918062 121.38451536 -27.35906399 125.87672757 -31.3125 130.3125 C-32.3025 129.9825 -33.2925 129.6525 -34.3125 129.3125 C-38.31419625 128.94447438 -40.5705671 128.86480012 -44.05078125 130.96484375 C-44.90027344 131.71894531 -45.74976563 132.47304687 -46.625 133.25 C-47.56988281 134.07371094 -48.51476562 134.89742187 -49.48828125 135.74609375 C-50.88626953 137.01646484 -50.88626953 137.01646484 -52.3125 138.3125 C-53.15167969 139.06660156 -53.99085938 139.82070312 -54.85546875 140.59765625 C-56.50284495 142.08265196 -58.14603981 143.57229853 -59.78515625 145.06640625 C-62.38212393 147.37437598 -65.04654013 149.56805863 -67.75 151.75 C-72.52534402 155.61191675 -77.04917685 159.68924224 -81.56640625 163.84765625 C-84.23125166 166.23957297 -86.96081825 168.50504884 -89.75 170.75 C-93.74473986 173.97193101 -97.55804349 177.31905495 -101.3125 180.8125 C-105.92254336 185.10205113 -110.69032956 189.11660672 -115.59765625 193.06640625 C-118.41923495 195.4008059 -121.11840712 197.83240598 -123.8125 200.3125 C-127.36920244 203.58668423 -130.98411811 206.71892433 -134.75 209.75 C-138.74473986 212.97193101 -142.55804349 216.31905495 -146.3125 219.8125 C-150.92254336 224.10205113 -155.69032956 228.11660672 -160.59765625 232.06640625 C-163.41923495 234.4008059 -166.11840712 236.83240598 -168.8125 239.3125 C-173.25977112 243.40601091 -177.85967463 247.23692499 -182.5625 251.03125 C-186.35155407 254.17444258 -189.94519352 257.51408595 -193.56640625 260.84765625 C-196.23125166 263.23957297 -198.96081825 265.50504884 -201.75 267.75 C-205.74473986 270.97193101 -209.55804349 274.31905495 -213.3125 277.8125 C-217.92254336 282.10205113 -222.69032956 286.11660672 -227.59765625 290.06640625 C-230.41923495 292.4008059 -233.11840712 294.83240598 -235.8125 297.3125 C-239.36920244 300.58668423 -242.98411811 303.71892433 -246.75 306.75 C-250.76851589 309.98999999 -254.59944546 313.36055633 -258.375 316.875 C-263.48944589 321.6278184 -268.81284711 326.01505508 -274.3125 330.3125 C-275.79168499 331.5208109 -277.27085096 332.72914509 -278.75 333.9375 C-292.04409006 344.54360006 -305.86938547 354.3404244 -320.3125 363.3125 C-320.9194873 363.69180664 -321.52647461 364.07111328 -322.15185547 364.46191406 C-333.58561321 371.57472033 -345.4181757 378.00775532 -357.3125 384.3125 C-358.6418457 385.03070923 -358.6418457 385.03070923 -359.99804688 385.76342773 C-366.26864761 389.05619558 -371.18129565 390.64444395 -378.3125 389.3125 C-381 387.3125 -381 387.3125 -382.3125 385.3125 C-381.22388672 384.71695313 -381.22388672 384.71695313 -380.11328125 384.109375 C-377.13008176 382.19546738 -374.95317951 380.11475784 -372.5 377.5625 C-369.62531948 374.62459337 -366.77121307 371.76974243 -363.625 369.125 C-359.46433918 365.57445645 -355.65835902 361.69590707 -351.8125 357.8125 C-347.48922218 353.44717717 -343.16573149 349.20636023 -338.46484375 345.24609375 C-334.63291767 341.80361932 -331.06748084 338.08583598 -327.44506836 334.42553711 C-323.91771622 330.87547365 -320.32368184 327.5116019 -316.5 324.28125 C-313.31429232 321.41411308 -310.32665455 318.35817924 -307.3125 315.3125 C-300.03145711 307.95538509 -300.03145711 307.95538509 -296.375 304.875 C-292.28628849 301.42211404 -288.57515302 297.61172802 -284.8125 293.8125 C-280.48921345 289.4471888 -276.16573169 285.20636039 -271.46484375 281.24609375 C-267.63291767 277.80361932 -264.06748084 274.08583598 -260.44506836 270.42553711 C-256.91771622 266.87547365 -253.32368184 263.5116019 -249.5 260.28125 C-246.31429232 257.41411308 -243.32665455 254.35817924 -240.3125 251.3125 C-233.03145711 243.95538509 -233.03145711 243.95538509 -229.375 240.875 C-225.28628849 237.42211404 -221.57515302 233.61172802 -217.8125 229.8125 C-213.48921345 225.4471888 -209.16573169 221.20636039 -204.46484375 217.24609375 C-200.63291767 213.80361932 -197.06748084 210.08583598 -193.44506836 206.42553711 C-189.91771622 202.87547365 -186.32368184 199.5116019 -182.5 196.28125 C-179.31429232 193.41411308 -176.32665455 190.35817924 -173.3125 187.3125 C-166.03145711 179.95538509 -166.03145711 179.95538509 -162.375 176.875 C-158.28628849 173.42211404 -154.57515302 169.61172802 -150.8125 165.8125 C-146.48921345 161.4471888 -142.16573169 157.20636039 -137.46484375 153.24609375 C-133.63291767 149.80361932 -130.06748084 146.08583598 -126.44506836 142.42553711 C-122.91771622 138.87547365 -119.32368184 135.5116019 -115.5 132.28125 C-112.31429249 129.41411324 -109.32665242 126.35818121 -106.3125 123.3125 C-102.16741669 119.12405808 -98.00333641 115.08579283 -93.5 111.28125 C-89.6619423 107.82699807 -86.08310049 104.1059229 -82.45629883 100.43237305 C-79.40355324 97.35412278 -76.34316626 94.39198931 -73 91.625 C-68.09213305 87.43459665 -64.23821603 82.40349916 -60.3125 77.3125 C-59.57652588 76.37301514 -59.57652588 76.37301514 -58.82568359 75.41455078 C-57.26388863 73.41293719 -55.72317712 71.39670064 -54.1875 69.375 C-53.68951904 68.73626953 -53.19153809 68.09753906 -52.6784668 67.43945312 C-50.01627538 64.18001221 -50.01627538 64.18001221 -49.59716797 60.20703125 C-50.49276635 57.83507103 -51.60571793 56.84520278 -53.5625 55.25 C-54.14515625 54.76402344 -54.7278125 54.27804688 -55.328125 53.77734375 C-61.06050886 49.54576118 -66.19676377 48.26386803 -73.07421875 46.93945312 C-77.72414322 45.95597353 -80.91136781 44.85948971 -84.3125 41.3125 C-84.94984462 37.34680012 -84.93249672 35.27969488 -82.75 31.875 C-78.60027647 29.21492081 -74.39055647 30.1038815 -69.69921875 31.01171875 C-59.21744879 33.81202266 -50.53996008 37.11347243 -42.3125 44.3125 C-41.6525 44.3125 -40.9925 44.3125 -40.3125 44.3125 C-36.65204296 36.7867338 -33.88626301 29.30092048 -31.625 21.25 C-31.33044922 20.23873047 -31.03589844 19.22746094 -30.73242188 18.18554688 C-28.94365872 11.94296446 -27.47280267 5.70166472 -26.3125 -0.6875 C-26.9725 -1.0175 -27.6325 -1.3475 -28.3125 -1.6875 C-7.69444873 -4.92747948 -7.69444873 -4.92747948 0 0 Z " fill="#3899E8" transform="translate(473.3125,31.6875)"/>
<path d="M0 0 C19.19970705 46.30517583 19.19970705 46.30517583 20.26457214 48.87338257 C20.96501923 50.56269433 21.66546885 52.25200504 22.36592102 53.9413147 C24.11908849 58.16951054 25.87221012 62.39772539 27.62524414 66.62597656 C31.14241672 75.10912884 34.66031008 83.59198093 38.1796875 92.07421875 C44.09500501 106.33196023 50.00520834 120.59181217 55.90625 134.85546875 C56.31792923 135.8502977 56.72960846 136.84512665 57.15376282 137.87010193 C59.20594901 142.83130496 61.2540168 147.79414101 63.29370117 152.76049805 C67.96373994 164.14577563 67.96373994 164.14577563 72.79443359 175.46340942 C73.61449528 177.3451413 74.4251687 179.23062789 75.23291016 181.11767578 C76.15331477 183.25787141 77.09216035 185.39031052 78.05615234 187.51123047 C81.66370767 195.98730517 82.5252638 205.26773321 80.0625 214.25 C77.53966935 219.68204077 73.1542892 223.79119257 69 228 C67.94498291 229.07556152 67.94498291 229.07556152 66.86865234 230.17285156 C62.90273987 234.20695768 58.92039807 238.22477572 54.9140625 242.21875 C54.2329541 242.89873047 53.5518457 243.57871094 52.85009766 244.27929688 C50.07785969 246.85764646 48.59750105 247.97701919 44.75 248.125 C36.90934281 245.77280284 32.09286662 236.61041946 27.4375 230.1875 C26.20446032 228.50127778 24.97138646 226.81508055 23.73828125 225.12890625 C23.11646973 224.27570801 22.4946582 223.42250977 21.85400391 222.54345703 C18.95329097 218.56404864 16.04202177 214.5924659 13.125 210.625 C12.55322021 209.84729248 11.98144043 209.06958496 11.39233398 208.26831055 C6.98906995 202.29851828 2.5069807 196.39174673 -2 190.5 C-10.04102314 179.98837925 -17.89059941 169.34369567 -25.70898438 158.66601562 C-33.05188811 148.64383116 -40.48735999 138.70274282 -48.03857422 128.83642578 C-52.99837004 122.3450163 -57.85973322 115.78747092 -62.68676758 109.19702148 C-69.14427085 100.40207743 -75.77617102 91.74042594 -82.4128418 83.08032227 C-82.936604 82.39381592 -83.46036621 81.70730957 -84 81 C-84.56388428 80.29198242 -85.12776855 79.58396484 -85.70874023 78.85449219 C-87 77 -87 77 -86.9609375 75.01171875 C-85.65240902 72.2723197 -83.91870417 70.79868863 -81.625 68.8125 C-80.7175 68.02230469 -79.81 67.23210937 -78.875 66.41796875 C-75.2379724 63.35910994 -71.54711197 60.37048207 -67.8515625 57.3828125 C-64.28233968 54.40031124 -60.88737034 51.25613841 -57.4831543 48.08862305 C-53.37239043 44.28614986 -49.07733477 40.75736701 -44.71484375 37.24609375 C-41.89326505 34.9116941 -39.19409288 32.48009402 -36.5 30 C-32.94329756 26.72581577 -29.32838189 23.59357567 -25.5625 20.5625 C-20.44581563 16.43543224 -15.62762444 12.0604299 -10.82421875 7.578125 C-2.52272727 0 -2.52272727 0 0 0 Z " fill="#CBDEEC" transform="translate(405,204)"/>
<path d="M0 0 C2.13662108 0.89471482 4.27342417 1.78899509 6.41040039 2.68286133 C9.67454349 4.04825242 12.93858381 5.41388259 16.20207214 6.78083801 C26.33297463 11.02411322 36.47710598 15.2350582 46.625 19.4375 C48.30381009 20.13309513 49.9826024 20.82873317 51.66137695 21.52441406 C54.99927003 22.90757993 58.33724979 24.29053627 61.67529297 25.67333984 C66.75397969 27.77735834 71.83213658 29.88265342 76.91015625 31.98828125 C77.75886795 32.34019028 78.60757965 32.6920993 79.48200989 33.05467224 C83.73756961 34.81925019 87.9930135 36.58410686 92.24829102 38.34936523 C100.21149956 41.65247749 108.17575018 44.95300738 116.14361572 48.24487305 C119.88382392 49.79029043 123.62345159 51.33710977 127.36303711 52.8840332 C129.13602302 53.61699138 130.90928923 54.34927196 132.68286133 55.08081055 C141.75478995 58.82286147 150.79993589 62.58248318 159.6875 66.75 C157.97627436 70.38401577 155.88816113 72.87637103 153.125 75.8125 C149.6921517 79.50363459 146.40811908 83.25410259 143.25 87.1875 C139.59243736 91.72236161 135.74132973 96.00536183 131.77587891 100.26708984 C127.97351193 104.37779276 124.44479408 108.67275584 120.93359375 113.03515625 C118.5991941 115.85673495 116.16759402 118.55590712 113.6875 121.25 C109.60212361 125.68843361 105.77755397 130.27799356 101.9921875 134.97265625 C98.7438142 138.88722137 95.31161211 142.61067917 91.8515625 146.33984375 C89.99529022 148.40720836 88.3083858 150.49644587 86.6875 152.75 C83.49849253 152.13888772 81.47078416 151.08982214 78.87890625 149.15234375 C78.142771 148.60634521 77.40663574 148.06034668 76.64819336 147.49780273 C75.85678955 146.90040283 75.06538574 146.30300293 74.25 145.6875 C73.41670166 145.06625244 72.58340332 144.44500488 71.72485352 143.80493164 C64.59359442 138.47357712 57.52593929 133.05818371 50.45727539 127.64428711 C44.9296291 123.4219989 39.34526621 119.29593876 33.6875 115.25 C26.20323347 109.89790822 18.87677035 104.35856487 11.57421875 98.76171875 C5.06108299 93.77659138 -1.51937317 88.89297281 -8.13720703 84.0480957 C-14.19006241 79.60525697 -20.16488871 75.06628325 -26.125 70.5 C-32.31623694 65.75815668 -38.5426059 61.10230616 -44.92260742 56.6184082 C-52.20967381 51.46195039 -59.25386187 45.97798297 -66.33984375 40.55078125 C-71.27135439 36.7739111 -76.23989475 33.04987056 -81.23046875 29.3515625 C-85.2311747 26.27409639 -85.2311747 26.27409639 -85.875 22.125 C-85.77614396 18.3993368 -84.81010209 16.72975201 -82.30078125 14.015625 C-81.66487061 13.3232373 -81.02895996 12.63084961 -80.3737793 11.91748047 C-79.69355713 11.20221191 -79.01333496 10.48694336 -78.3125 9.75 C-77.64452393 9.04375488 -76.97654785 8.33750977 -76.28833008 7.60986328 C-74.19298806 5.42594375 -72.06982969 3.27278136 -69.9375 1.125 C-69.23367187 0.40054688 -68.52984375 -0.32390625 -67.8046875 -1.0703125 C-45.83356257 -23.2018106 -24.99624906 -10.50579874 0 0 Z " fill="#CBDEEC" transform="translate(145.3125,39.25)"/>
<path d="M0 0 C0.66 0.33 1.32 0.66 2 1 C1.34 1.66 0.68 2.32 0 3 C0.55071004 7.49641911 3.49364497 10.59562939 6.1875 14.0625 C7.29128916 15.50710652 8.39411528 16.95244927 9.49609375 18.3984375 C10.07343262 19.15350586 10.65077148 19.90857422 11.24560547 20.68652344 C14.12692342 24.48604597 16.9343127 28.33924693 19.75 32.1875 C24.76064848 39.0150053 29.85350182 45.77439227 35 52.5 C43.04120094 63.01148104 50.89060271 73.65630884 58.70898438 84.33398438 C65.54975663 93.67081948 72.44308319 102.96500335 79.4375 112.1875 C80.0876709 113.04843262 80.7378418 113.90936523 81.40771484 114.79638672 C88.87544273 125.99998703 88.87544273 125.99998703 100 132 C110.47661633 132 116.55876751 124.69347353 123.6171875 117.65625 C124.48601562 116.7796875 125.35484375 115.903125 126.25 115 C127.13429688 114.1234375 128.01859375 113.246875 128.9296875 112.34375 C134.37908642 106.87788764 138.58430623 101.92718909 142 95 C144.16877889 99.99972749 146.30310561 105.01239418 148.40869141 110.0390625 C149.12726167 111.7417686 149.85459529 113.44080715 150.59130859 115.13574219 C155.71777185 126.9510194 159.48119477 137.24976157 156.0625 150.25 C153.53966935 155.68204077 149.1542892 159.79119257 145 164 C143.94498291 165.07556152 143.94498291 165.07556152 142.86865234 166.17285156 C138.90273987 170.20695768 134.92039807 174.22477572 130.9140625 178.21875 C130.2329541 178.89873047 129.5518457 179.57871094 128.85009766 180.27929688 C126.07785969 182.85764646 124.59750105 183.97701919 120.75 184.125 C112.90934281 181.77280284 108.09286662 172.61041946 103.4375 166.1875 C102.20446032 164.50127778 100.97138646 162.81508055 99.73828125 161.12890625 C99.11646973 160.27570801 98.4946582 159.42250977 97.85400391 158.54345703 C94.95329097 154.56404864 92.04202177 150.5924659 89.125 146.625 C88.55322021 145.84729248 87.98144043 145.06958496 87.39233398 144.26831055 C82.98906995 138.29851828 78.5069807 132.39174673 74 126.5 C65.95897686 115.98837925 58.10940059 105.34369567 50.29101562 94.66601562 C42.94811189 84.64383116 35.51264001 74.70274282 27.96142578 64.83642578 C23.00162996 58.3450163 18.14026678 51.78747092 13.31323242 45.19702148 C6.85572915 36.40207743 0.22382898 27.74042594 -6.4128418 19.08032227 C-6.936604 18.39381592 -7.46036621 17.70730957 -8 17 C-8.56299805 16.29125732 -9.12599609 15.58251465 -9.70605469 14.85229492 C-11 13 -11 13 -11.00390625 11.046875 C-9.54884524 8.08013582 -7.43025666 6.39566396 -4.9375 4.25 C-4.01839844 3.45078125 -3.09929687 2.6515625 -2.15234375 1.828125 C-1.44207031 1.22484375 -0.73179687 0.6215625 0 0 Z " fill="#B8D3E3" transform="translate(329,268)"/>
<path d="M0 0 C0.86874756 0.38583252 1.73749512 0.77166504 2.63256836 1.16918945 C5.82559488 2.59549269 9.00621615 4.04769386 12.1875 5.5 C13.58763431 6.13386725 14.98803982 6.7671357 16.38867188 7.39990234 C46.40074974 20.96126845 46.40074974 20.96126845 59.1875 27.5 C57.95459797 30.77798498 56.58090321 33.67581315 54.68359375 36.6171875 C54.19407227 37.38248779 53.70455078 38.14778809 53.20019531 38.9362793 C52.68038086 39.74105713 52.16056641 40.54583496 51.625 41.375 C46.32621299 49.66299054 41.198048 58.03521057 36.1875 66.5 C32.59058291 65.20425785 29.82318731 63.67448581 26.80859375 61.33203125 C25.98037109 60.69394531 25.15214844 60.05585938 24.29882812 59.3984375 C23.41646484 58.71007812 22.53410156 58.02171875 21.625 57.3125 C19.72842151 55.84953813 17.83127255 54.38731557 15.93359375 52.92578125 C14.97308105 52.18408691 14.01256836 51.44239258 13.02294922 50.67822266 C8.77321043 47.41352751 4.48205887 44.20536848 0.1875 41 C-7.86396523 34.98249609 -15.86565509 28.9020003 -23.8359375 22.77734375 C-28.07565851 19.53130735 -32.32119792 16.38935557 -36.8125 13.5 C-26.10805315 0.32529618 -16.6972709 -7.67727409 0 0 Z " fill="#CADDEB" transform="translate(51.8125,307.5)"/>
<path d="M0 0 C2.94087348 3.52104196 4.74632148 7.46030637 6.625 11.60546875 C6.96878189 12.35384003 7.31256378 13.1022113 7.66676331 13.8732605 C8.78352084 16.30879195 9.89261665 18.74769317 11 21.1875 C11.37728241 22.01724335 11.75456482 22.84698669 12.14328003 23.70187378 C13.67581458 27.07288015 15.20757047 30.44422381 16.7341156 33.81794739 C18.97212758 38.7601062 21.25072509 43.67970897 23.56640625 48.5859375 C24.56568943 50.74452082 25.56443431 52.90335348 26.5625 55.0625 C27.02076172 56.00955811 27.47902344 56.95661621 27.95117188 57.93237305 C31.46019774 65.65015768 32.60503753 73.16799228 29.88671875 81.3515625 C27.48896623 84.71735174 24.79660287 87.52797606 21.8125 90.375 C20.97428711 91.19291016 20.97428711 91.19291016 20.11914062 92.02734375 C18.75288448 93.35856769 17.37737443 94.6802831 16 96 C11.770483 91.9823512 8.23365403 87.62469146 4.6875 83 C4.08357422 82.2174585 3.47964844 81.43491699 2.85742188 80.62866211 C0.90051955 78.0891457 -1.05022646 75.54499275 -3 73 C-3.98299072 71.72020264 -3.98299072 71.72020264 -4.98583984 70.41455078 C-12.2767174 60.91766964 -19.50709389 51.3773507 -26.625 41.75 C-27.18058594 41.00049072 -27.73617187 40.25098145 -28.30859375 39.47875977 C-32.03074554 34.42023323 -35.55822215 29.25299608 -39 24 C-38.52393311 23.72961914 -38.04786621 23.45923828 -37.55737305 23.18066406 C-28.04483745 17.76309396 -18.62700464 12.22847226 -9.375 6.375 C-8.55217529 5.85454102 -7.72935059 5.33408203 -6.8815918 4.79785156 C-3.25524369 2.63934129 -3.25524369 2.63934129 0 0 Z " fill="#B8D2E2" transform="translate(174,398)"/>
<path d="M0 0 C0.66 0.33 1.32 0.66 2 1 C-4.6 7.6 -11.2 14.2 -18 21 C-10.75577005 27.08935271 -3.313568 32.7702771 4.32348633 38.35205078 C10.43896648 42.82916938 16.48309858 47.39141602 22.5 52 C29.11927656 57.06676416 35.77503508 62.0743568 42.5 67 C50.12740017 72.5866242 57.65644565 78.29276338 65.1640625 84.0390625 C70.89902727 88.42064326 76.67759563 92.73542958 82.5 97 C90.12740017 102.5866242 97.65644565 108.29276338 105.1640625 114.0390625 C110.89903161 118.42064657 116.67772433 122.73524861 122.5 127 C129.5723098 132.18310543 136.58465199 137.44035336 143.5625 142.75 C144.47386719 143.44222656 145.38523438 144.13445312 146.32421875 144.84765625 C147.16726562 145.49089844 148.0103125 146.13414062 148.87890625 146.796875 C149.6272876 147.36760742 150.37566895 147.93833984 151.14672852 148.52636719 C153 150 153 150 155 152 C152.69 154.64 150.38 157.28 148 160 C144.37432455 159.09358114 143.03558636 158.52842286 140.19140625 156.40234375 C139.455271 155.85634521 138.71913574 155.31034668 137.96069336 154.74780273 C137.16928955 154.15040283 136.37788574 153.55300293 135.5625 152.9375 C134.72920166 152.31625244 133.89590332 151.69500488 133.03735352 151.05493164 C125.90609442 145.72357712 118.83843929 140.30818371 111.76977539 134.89428711 C106.2421291 130.6719989 100.65776621 126.54593876 95 122.5 C87.51573347 117.14790822 80.18927035 111.60856487 72.88671875 106.01171875 C66.37358299 101.02659138 59.79312683 96.14297281 53.17529297 91.2980957 C47.12243759 86.85525697 41.14761129 82.31628325 35.1875 77.75 C28.99626306 73.00815668 22.7698941 68.35230616 16.38989258 63.8684082 C9.10282619 58.71195039 2.05863813 53.22798297 -5.02734375 47.80078125 C-9.95885439 44.0239111 -14.92739475 40.29987056 -19.91796875 36.6015625 C-23.9186747 33.52409639 -23.9186747 33.52409639 -24.5625 29.375 C-24.46048626 25.66850084 -23.51622868 23.99464422 -21.0234375 21.2890625 C-20.38897705 20.5976416 -19.7545166 19.9062207 -19.10083008 19.19384766 C-15.47485741 15.40732931 -11.79025301 11.68622706 -8.0625 8 C-7.28326172 7.22527344 -6.50402344 6.45054688 -5.70117188 5.65234375 C-3.8030758 3.76589243 -1.90266851 1.88183755 0 0 Z " fill="#B7D2E2" transform="translate(84,32)"/>
<path d="M0 0 C15.88367931 4.24347504 27.65276531 10.51528703 36.88671875 24.73828125 C40.16019248 30.44845117 42.25468472 35.82666926 43.38671875 42.30078125 C43.57363281 43.2753125 43.76054687 44.24984375 43.953125 45.25390625 C44.65989518 50.01664585 45.00048917 52.35222697 42.32421875 56.48828125 C38.88770029 58.60868625 37.34063216 59.14203942 33.38671875 58.30078125 C29.77217061 54.63911609 28.79354216 51.69531418 28.01171875 46.67578125 C25.61137569 34.41734475 20.22861582 26.84681427 10.171875 19.734375 C5.8784346 17.52442742 1.33875855 16.8354789 -3.375 15.92773438 C-8.02492447 14.94425478 -11.21214906 13.84777096 -14.61328125 10.30078125 C-15.25062587 6.33508137 -15.23327797 4.26797613 -13.05078125 0.86328125 C-8.90105772 -1.79679794 -4.69133772 -0.90783725 0 0 Z " fill="#010304" transform="translate(403.61328125,62.69921875)"/>
<path d="M0 0 C3.63726779 4.55896426 5.78556586 9.65735661 8.1875 14.9375 C8.65091797 15.92685547 9.11433594 16.91621094 9.59179688 17.93554688 C10.02943359 18.89396484 10.46707031 19.85238281 10.91796875 20.83984375 C11.31781982 21.70988037 11.7176709 22.57991699 12.12963867 23.47631836 C13.0639521 26.18543419 13.277496 28.15581714 13 31 C8.79548857 36.35119637 2.62374107 40.22937649 -4.0859375 41.34765625 C-10.57903431 41.79192077 -15.84640268 39.91985736 -21 36 C-23.05023876 33.9259863 -24.88776649 31.73059059 -26.6875 29.4375 C-27.35736938 28.58828979 -27.35736938 28.58828979 -28.04077148 27.72192383 C-31.02828642 23.65194997 -31.02828642 23.65194997 -30.91381836 21.01367188 C-29.60544749 18.13057198 -27.83350684 17.30929138 -25.1171875 15.72265625 C-24.11429688 15.12646484 -23.11140625 14.53027344 -22.078125 13.91601562 C-21.02109375 13.30435547 -19.9640625 12.69269531 -18.875 12.0625 C-16.80842531 10.84754992 -14.74328643 9.63015383 -12.6796875 8.41015625 C-11.21354004 7.54414795 -11.21354004 7.54414795 -9.71777344 6.66064453 C-6.3423591 4.59816085 -3.16874923 2.36534114 0 0 Z " fill="#CADDEB" transform="translate(174,398)"/>
<path d="M0 0 C0.66 0.33 1.32 0.66 2 1 C0.02 3.31 -1.96 5.62 -4 8 C-2.68 8.66 -1.36 9.32 0 10 C1.32441006 10.89330901 2.62822386 11.81763662 3.9140625 12.765625 C4.66558594 13.31863281 5.41710937 13.87164062 6.19140625 14.44140625 C6.99449219 15.03824219 7.79757813 15.63507813 8.625 16.25 C9.46675781 16.87261719 10.30851562 17.49523437 11.17578125 18.13671875 C17.59579759 22.90614793 23.9152291 27.79534565 30.20727539 32.73168945 C36.50261329 37.65460365 42.91169756 42.41138577 49.36914062 47.11914062 C54.65879637 50.98091384 59.85097 54.9526512 65 59 C64.01 60.98 63.02 62.96 62 65 C58.40308291 63.70425785 55.63568731 62.17448581 52.62109375 59.83203125 C51.37875977 58.87490234 51.37875977 58.87490234 50.11132812 57.8984375 C49.22896484 57.21007812 48.34660156 56.52171875 47.4375 55.8125 C45.54092151 54.34953813 43.64377255 52.88731557 41.74609375 51.42578125 C40.78558105 50.68408691 39.82506836 49.94239258 38.83544922 49.17822266 C34.58571043 45.91352751 30.29455887 42.70536848 26 39.5 C17.94853477 33.48249609 9.94684491 27.4020003 1.9765625 21.27734375 C-2.26315851 18.03130735 -6.50869792 14.88935557 -11 12 C-7.49102731 7.81576108 -3.91939465 3.80411834 0 0 Z " fill="#B6D0E0" transform="translate(26,309)"/>
<path d="M0 0 C3.99432781 1.62061033 6.79558321 4.39339173 9.8125 7.375 C10.5849707 8.09816406 10.5849707 8.09816406 11.37304688 8.8359375 C12.83203125 10.2734375 12.83203125 10.2734375 15 13 C14.71441359 16.51456955 13.13053241 18.24465957 10.69140625 20.671875 C9.69463867 21.66767578 9.69463867 21.66767578 8.67773438 22.68359375 C7.97970703 23.36550781 7.28167969 24.04742187 6.5625 24.75 C5.86833984 25.44738281 5.17417969 26.14476562 4.45898438 26.86328125 C-0.73302195 32 -0.73302195 32 -3 32 C-4.14982806 29.08489248 -5.29415488 26.16765566 -6.4375 23.25 C-6.76298828 22.425 -7.08847656 21.6 -7.42382812 20.75 C-7.73642578 19.95078125 -8.04902344 19.1515625 -8.37109375 18.328125 C-8.65911865 17.5949707 -8.94714355 16.86181641 -9.24389648 16.10644531 C-9.96864625 14.0873491 -10.5189991 12.08915413 -11 10 C-10.45730469 9.52949219 -9.91460937 9.05898438 -9.35546875 8.57421875 C-8.64003906 7.95160156 -7.92460937 7.32898438 -7.1875 6.6875 C-6.47980469 6.07261719 -5.77210938 5.45773437 -5.04296875 4.82421875 C-3.29863261 3.26665665 -1.63221959 1.67341125 0 0 Z " fill="#3B6383" transform="translate(482,315)"/>
<path d="M0 0 C3.99432781 1.62061033 6.79558321 4.39339173 9.8125 7.375 C10.5849707 8.09816406 10.5849707 8.09816406 11.37304688 8.8359375 C14.97703579 12.38685563 14.97703579 12.38685563 15.078125 15.0859375 C13.6814379 17.56556314 11.99731013 19.28827607 9.9375 21.25 C9.20402344 21.95640625 8.47054687 22.6628125 7.71484375 23.390625 C7.14894531 23.92171875 6.58304688 24.4528125 6 25 C-1.18216433 22.72564796 -8.0758202 19.96415819 -15 17 C-13.67879172 14.06769807 -12.25361803 12.01335101 -9.9609375 9.765625 C-9.38085938 9.19199219 -8.80078125 8.61835938 -8.203125 8.02734375 C-7.59984375 7.44082031 -6.9965625 6.85429687 -6.375 6.25 C-5.76398438 5.64800781 -5.15296875 5.04601562 -4.5234375 4.42578125 C-3.02011376 2.94594695 -1.51065144 1.47235324 0 0 Z " fill="#3B6484" transform="translate(184,17)"/>
<path d="M0 0 C3.99432781 1.62061033 6.79558321 4.39339173 9.8125 7.375 C10.5849707 8.09816406 10.5849707 8.09816406 11.37304688 8.8359375 C12.83203125 10.2734375 12.83203125 10.2734375 15 13 C14.94726533 16.26369031 13.84498613 17.19376733 11.75 19.8125 C9 22 9 22 6.87890625 21.859375 C2.86037895 20.65981461 -0.9533184 19.0711016 -4.8125 17.4375 C-5.60076172 17.10814453 -6.38902344 16.77878906 -7.20117188 16.43945312 C-9.13583796 15.63041094 -11.06815753 14.81576148 -13 14 C-8.88380164 9.08064098 -4.59589638 4.47352044 0 0 Z " fill="#3B6383" transform="translate(252,49)"/>
<path d="M0 0 C2.3197047 0.82462076 3.39649684 1.70549436 5.09863281 3.46313477 C5.62714844 4.00131836 6.15566406 4.53950195 6.70019531 5.09399414 C7.23902344 5.65795898 7.77785156 6.22192383 8.33300781 6.80297852 C8.88730469 7.37081055 9.44160156 7.93864258 10.01269531 8.52368164 C11.37634995 9.92260321 12.73061198 11.33066965 14.08300781 12.74047852 C12.54656929 16.42117739 10.30149836 18.72823055 7.45800781 21.49047852 C6.64074219 22.28969727 5.82347656 23.08891602 4.98144531 23.91235352 C4.35496094 24.51563477 3.72847656 25.11891602 3.08300781 25.74047852 C0.29000555 22.36700289 -1.4084559 18.80236808 -3.16699219 14.80297852 C-3.44800781 14.19518555 -3.72902344 13.58739258 -4.01855469 12.96118164 C-5.67550869 9.15921044 -6.28871163 6.69927504 -4.91699219 2.74047852 C-2.73908593 -0.37081614 -2.73908593 -0.37081614 0 0 Z " fill="#3B6382" transform="translate(446.9169921875,247.259521484375)"/>
</svg>
