<?xml version="1.0" encoding="UTF-8"?>
<svg version="1.1" xmlns="http://www.w3.org/2000/svg" width="512" height="512">
<path d="M0 0 C0.99 0.66 1.98 1.32 3 2 C3 2.66 3 3.32 3 4 C3.59603027 4.27223389 4.19206055 4.54446777 4.80615234 4.82495117 C8.31959792 6.70679109 10.83763628 9.49909673 13.625 12.3125 C14.5543335 13.24920532 14.5543335 13.24920532 15.50244141 14.20483398 C43.43802745 42.84476956 58.59533304 82.20560131 59.25 122 C58.4402758 165.52267551 41.27156068 205.45578499 10.26123047 236.09204102 C2.61820262 243.44462964 -5.92137928 249.31015233 -14.75 255.125 C-27.69730557 263.67256214 -38.02316557 274.06492974 -41.64453125 289.7265625 C-42.08188814 292.52372414 -42.21798258 295.29868644 -42.375 298.125 C-42.74160921 303.13743279 -43.4898733 306.19736274 -47 310 C-51.50333208 313.51555566 -55.42891018 313.43368998 -60.90185547 313.40405273 C-62.23207733 313.41434761 -62.23207733 313.41434761 -63.58917236 313.42485046 C-66.51534116 313.4431238 -69.44097398 313.43927973 -72.3671875 313.43359375 C-74.40593642 313.43815573 -76.44468381 313.44346136 -78.48342896 313.44947815 C-82.755455 313.45841065 -87.02729412 313.45598501 -91.29931641 313.44604492 C-96.76585808 313.43456315 -102.23175304 313.45475412 -107.69820976 313.48396206 C-111.90878377 313.5023366 -116.11920323 313.50202893 -120.32980728 313.49632454 C-122.34477774 313.49617144 -124.35975875 313.50220668 -126.37469101 313.51461601 C-129.19665435 313.52954536 -132.01742854 313.51883411 -134.83935547 313.50170898 C-135.66660126 313.51137695 -136.49384705 313.52104492 -137.34616089 313.53100586 C-143.01420804 313.45922167 -146.32626518 312.24325252 -151 309 C-153.8534157 304.99853992 -153.34287347 300.54897526 -153.3125 295.8125 C-153.30831055 294.92336914 -153.30412109 294.03423828 -153.29980469 293.11816406 C-153.15564986 284.51488101 -151.88994947 276.3749135 -150 268 C-149.85014648 267.31421875 -149.70029297 266.6284375 -149.54589844 265.921875 C-143.93298543 240.56247184 -132.08911131 215.72654286 -115 196 C-114.34 196 -113.68 196 -113 196 C-112.79375 195.46890625 -112.5875 194.9378125 -112.375 194.390625 C-110.42038808 190.99226564 -107.77876283 188.48944072 -105 185.75 C-104.4534375 185.19570312 -103.906875 184.64140625 -103.34375 184.0703125 C-99.2533867 180 -99.2533867 180 -97 180 C-97 179.34 -97 178.68 -97 178 C-95.16167834 176.38459774 -93.32736422 174.90469587 -91.375 173.4375 C-90.5099585 172.78019897 -90.5099585 172.78019897 -89.62744141 172.10961914 C-85.3190946 168.88212609 -80.897898 165.85547946 -76.375 162.9375 C-75.78380371 162.55585693 -75.19260742 162.17421387 -74.58349609 161.78100586 C-72.06784446 160.18931495 -69.83759102 158.94586367 -67 158 C-67 157.34 -67 156.68 -67 156 C-66.34 156 -65.68 156 -65 156 C-65 155.34 -65 154.68 -65 154 C-64.34 154 -63.68 154 -63 154 C-62.71898437 153.40832031 -62.43796875 152.81664062 -62.1484375 152.20703125 C-61.10399682 150.19985784 -59.94530173 148.51658043 -58.625 146.6875 C-52.98462236 137.74992831 -50.51501388 125.71050487 -52.5078125 115.36328125 C-55.68747542 102.26087715 -62.26875524 91.65907245 -73.25 83.625 C-84.29744352 76.89714512 -97.09554326 74.94658118 -109.67578125 77.84765625 C-121.06880088 81.52081558 -130.71929886 87.66099967 -137 98 C-137.44988281 98.67933594 -137.89976562 99.35867187 -138.36328125 100.05859375 C-142.12264114 106.45726826 -143.05434659 113.051474 -143.92456055 120.31176758 C-144.49359977 124.82498002 -144.96672114 128.41702213 -148 132 C-153.05901666 135.18272097 -157.14188917 135.43585723 -162.92358398 135.40405273 C-163.80079102 135.41091599 -164.67799805 135.41777924 -165.58178711 135.42485046 C-168.47005583 135.44309239 -171.35778 135.43928467 -174.24609375 135.43359375 C-176.2609932 135.4381568 -178.2758911 135.44346274 -180.29078674 135.44947815 C-184.50975881 135.45840414 -188.72854154 135.4559919 -192.94750977 135.44604492 C-198.34564435 135.43455607 -203.74312471 135.45476827 -209.14117336 135.48396206 C-213.30113352 135.50233585 -217.46093725 135.50202922 -221.62092781 135.49632454 C-223.61077861 135.49617147 -225.6006401 135.50220396 -227.59045219 135.51461601 C-230.37638902 135.52954635 -233.16112153 135.51883398 -235.94702148 135.50170898 C-236.76334549 135.51137695 -237.57966949 135.52104492 -238.42073059 135.53100586 C-244.06257569 135.4586346 -247.34860729 134.22901168 -252 131 C-257.20280769 124.45453226 -255.36004597 114.96448314 -254.49609375 107.15234375 C-250.75347582 76.83286938 -240.22757713 51.21097579 -222.20166016 26.66308594 C-221.09740724 25.13481067 -220.04587097 23.56880646 -219 22 C-218.34 22 -217.68 22 -217 22 C-216.59164917 21.10595459 -216.59164917 21.10595459 -216.17504883 20.19384766 C-214.29320891 16.68040208 -211.50090327 14.16236372 -208.6875 11.375 C-208.06302979 10.75544434 -207.43855957 10.13588867 -206.79516602 9.49755859 C-149.71973979 -46.17419654 -62.25318349 -46.44426888 0 0 Z " fill="#E61441" transform="translate(354,53)"/>
<path d="M0 0 C0.99 0.66 1.98 1.32 3 2 C3 2.66 3 3.32 3 4 C3.59603027 4.27223389 4.19206055 4.54446777 4.80615234 4.82495117 C8.31959792 6.70679109 10.83763628 9.49909673 13.625 12.3125 C14.5543335 13.24920532 14.5543335 13.24920532 15.50244141 14.20483398 C43.43802745 42.84476956 58.59533304 82.20560131 59.25 122 C58.4402758 165.52267551 41.27156068 205.45578499 10.26123047 236.09204102 C2.61820262 243.44462964 -5.92137928 249.31015233 -14.75 255.125 C-27.69730557 263.67256214 -38.02316557 274.06492974 -41.64453125 289.7265625 C-42.08188814 292.52372414 -42.21798258 295.29868644 -42.375 298.125 C-42.74160921 303.13743279 -43.4898733 306.19736274 -47 310 C-51.50333208 313.51555566 -55.42891018 313.43368998 -60.90185547 313.40405273 C-62.23207733 313.41434761 -62.23207733 313.41434761 -63.58917236 313.42485046 C-66.51534116 313.4431238 -69.44097398 313.43927973 -72.3671875 313.43359375 C-74.40593642 313.43815573 -76.44468381 313.44346136 -78.48342896 313.44947815 C-82.755455 313.45841065 -87.02729412 313.45598501 -91.29931641 313.44604492 C-96.76585808 313.43456315 -102.23175304 313.45475412 -107.69820976 313.48396206 C-111.90878377 313.5023366 -116.11920323 313.50202893 -120.32980728 313.49632454 C-122.34477774 313.49617144 -124.35975875 313.50220668 -126.37469101 313.51461601 C-129.19665435 313.52954536 -132.01742854 313.51883411 -134.83935547 313.50170898 C-135.66660126 313.51137695 -136.49384705 313.52104492 -137.34616089 313.53100586 C-143.01420804 313.45922167 -146.32626518 312.24325252 -151 309 C-153.8534157 304.99853992 -153.34287347 300.54897526 -153.3125 295.8125 C-153.30831055 294.92336914 -153.30412109 294.03423828 -153.29980469 293.11816406 C-153.15564986 284.51488101 -151.88994947 276.3749135 -150 268 C-149.85014648 267.31421875 -149.70029297 266.6284375 -149.54589844 265.921875 C-143.93298543 240.56247184 -132.08911131 215.72654286 -115 196 C-114.34 196 -113.68 196 -113 196 C-112.79375 195.46890625 -112.5875 194.9378125 -112.375 194.390625 C-110.42038808 190.99226564 -107.77876283 188.48944072 -105 185.75 C-104.4534375 185.19570312 -103.906875 184.64140625 -103.34375 184.0703125 C-99.2533867 180 -99.2533867 180 -97 180 C-97 179.34 -97 178.68 -97 178 C-95.16167834 176.38459774 -93.32736422 174.90469587 -91.375 173.4375 C-90.5099585 172.78019897 -90.5099585 172.78019897 -89.62744141 172.10961914 C-85.3190946 168.88212609 -80.897898 165.85547946 -76.375 162.9375 C-75.78380371 162.55585693 -75.19260742 162.17421387 -74.58349609 161.78100586 C-72.06784446 160.18931495 -69.83759102 158.94586367 -67 158 C-67 157.34 -67 156.68 -67 156 C-66.34 156 -65.68 156 -65 156 C-65 155.34 -65 154.68 -65 154 C-64.34 154 -63.68 154 -63 154 C-62.71898437 153.40832031 -62.43796875 152.81664062 -62.1484375 152.20703125 C-61.10399682 150.19985784 -59.94530173 148.51658043 -58.625 146.6875 C-52.98462236 137.74992831 -50.51501388 125.71050487 -52.5078125 115.36328125 C-55.68747542 102.26087715 -62.26875524 91.65907245 -73.25 83.625 C-84.29744352 76.89714512 -97.09554326 74.94658118 -109.67578125 77.84765625 C-121.06880088 81.52081558 -130.71929886 87.66099967 -137 98 C-137.44988281 98.67933594 -137.89976562 99.35867187 -138.36328125 100.05859375 C-142.12264114 106.45726826 -143.05434659 113.051474 -143.92456055 120.31176758 C-144.49359977 124.82498002 -144.96672114 128.41702213 -148 132 C-153.05901666 135.18272097 -157.14188917 135.43585723 -162.92358398 135.40405273 C-163.80079102 135.41091599 -164.67799805 135.41777924 -165.58178711 135.42485046 C-168.47005583 135.44309239 -171.35778 135.43928467 -174.24609375 135.43359375 C-176.2609932 135.4381568 -178.2758911 135.44346274 -180.29078674 135.44947815 C-184.50975881 135.45840414 -188.72854154 135.4559919 -192.94750977 135.44604492 C-198.34564435 135.43455607 -203.74312471 135.45476827 -209.14117336 135.48396206 C-213.30113352 135.50233585 -217.46093725 135.50202922 -221.62092781 135.49632454 C-223.61077861 135.49617147 -225.6006401 135.50220396 -227.59045219 135.51461601 C-230.37638902 135.52954635 -233.16112153 135.51883398 -235.94702148 135.50170898 C-236.76334549 135.51137695 -237.57966949 135.52104492 -238.42073059 135.53100586 C-244.06257569 135.4586346 -247.34860729 134.22901168 -252 131 C-257.20280769 124.45453226 -255.36004597 114.96448314 -254.49609375 107.15234375 C-250.75347582 76.83286938 -240.22757713 51.21097579 -222.20166016 26.66308594 C-221.09740724 25.13481067 -220.04587097 23.56880646 -219 22 C-218.34 22 -217.68 22 -217 22 C-216.59164917 21.10595459 -216.59164917 21.10595459 -216.17504883 20.19384766 C-214.29320891 16.68040208 -211.50090327 14.16236372 -208.6875 11.375 C-208.06302979 10.75544434 -207.43855957 10.13588867 -206.79516602 9.49755859 C-149.71973979 -46.17419654 -62.25318349 -46.44426888 0 0 Z M-198.125 36.25 C-215.84435289 56.32248296 -229 83.94002357 -229 111 C-208.87 111 -188.74 111 -168 111 C-166.68 106.38 -165.36 101.76 -164 97 C-157.10556586 79.6381038 -145.09441459 66.58777365 -128.3125 58.5625 C-110.1295038 50.79798775 -91.38854785 49.50128354 -72.82666016 56.86181641 C-53.84630533 65.14767846 -40.55628169 78.11858992 -32 97 C-24.74671849 115.68727389 -26.88824167 135.19753328 -34.3515625 153.2734375 C-40.80126487 167.2898298 -51.07036173 176.49411845 -63.75 184.8125 C-92.14291049 203.46131396 -114.51557602 230.60961104 -123.17578125 263.87890625 C-123.98843018 266.95618821 -124.99351788 269.98055365 -126 273 C-126.99 280.92 -126.99 280.92 -128 289 C-107.87 289 -87.74 289 -67 289 C-65.35 283.39 -63.7 277.78 -62 272 C-53.03315023 254.50729307 -42.13603877 242.4011882 -24.921875 232.74609375 C-8.44079798 222.89710789 5.09222666 207.21272001 15 191 C15.36673828 190.41347656 15.73347656 189.82695312 16.11132812 189.22265625 C34.9444961 158.63176462 37.32171232 123.34647135 30 89 C24.53389212 66.04622012 10.80677769 46.03365755 -5 29 C-5.52851563 28.40574219 -6.05703125 27.81148437 -6.6015625 27.19921875 C-26.56160899 5.75496368 -58.99700035 -7.79791486 -88.01025391 -9.13916016 C-131.89112322 -10.46099076 -167.83557608 4.35145043 -198.125 36.25 Z " fill="#000000" transform="translate(354,53)"/>
<path d="M0 0 C1.16789062 0.84498047 1.16789062 0.84498047 2.359375 1.70703125 C3.41125 2.44953125 4.463125 3.19203125 5.546875 3.95703125 C17.28877414 15.4379993 23.24353067 29.32279425 23.671875 45.58203125 C23.44680706 58.55157131 19.23640077 70.38541127 11.359375 80.70703125 C10.699375 80.70703125 10.039375 80.70703125 9.359375 80.70703125 C9.111875 81.32578125 8.864375 81.94453125 8.609375 82.58203125 C7.15308861 85.05771812 5.98124994 85.65828127 3.359375 86.70703125 C3.359375 87.36703125 3.359375 88.02703125 3.359375 88.70703125 C1.13249524 90.00277996 -1.09695675 91.29370433 -3.328125 92.58203125 C-4.26688477 93.12923828 -4.26688477 93.12923828 -5.22460938 93.6875 C-18.4491343 101.30371854 -32.02183501 102.32316659 -46.6730957 98.54125977 C-61.37350741 94.41040758 -73.02213069 84.93273738 -80.640625 71.70703125 C-82.22282129 68.43848155 -83.49811558 65.15178328 -84.640625 61.70703125 C-85.053125 60.51078125 -85.465625 59.31453125 -85.890625 58.08203125 C-88.20293817 47.81202769 -87.26043848 36.50089889 -83.640625 26.70703125 C-83.37378906 25.95292969 -83.10695312 25.19882812 -82.83203125 24.421875 C-77.08335823 9.93521898 -66.36068445 0.7094984 -52.6953125 -6.06640625 C-35.27443858 -13.06148862 -15.3261938 -10.52014748 0 0 Z " fill="#000000" transform="translate(287.640625,392.29296875)"/>
<path d="M0 0 C2.16619772 1.19894814 4.05536738 2.48160155 5.98828125 4.0234375 C6.87515625 4.5803125 7.76203125 5.1371875 8.67578125 5.7109375 C14.80523228 11.84038853 18.12139617 18.98489497 18.30078125 27.5859375 C18.20214746 37.16327888 15.64038345 44.24997094 9.05078125 51.265625 C1.82862796 57.42086928 -6.65401358 59.5389157 -15.96875 59.42578125 C-24.22136299 58.33461419 -31.55296679 53.74698221 -36.609375 47.20703125 C-41.76650044 39.17685543 -43.15364393 31.50840788 -42.01171875 22.0234375 C-39.85942465 13.34171186 -35.31271668 6.97130497 -27.82421875 2.1484375 C-20.14983784 -2.42288999 -8.503165 -2.7571871 0 0 Z " fill="#E61441" transform="translate(268.01171875,408.9765625)"/>
</svg>
