<?xml version="1.0" encoding="UTF-8"?>
<svg version="1.1" xmlns="http://www.w3.org/2000/svg" width="512" height="512">
<path d="M0 0 C2.3359375 2.0546875 2.3359375 2.0546875 4.375 4.875 C7.29116018 8.7401479 10.21537777 12.44070553 13.5 16 C17.40960737 20.28970809 21.07507635 24.73700132 24.72265625 29.25 C27.75224659 32.90837324 30.93601783 36.41196999 34.15234375 39.90625 C36 42 36 42 38 45 C46.9871335 46.81236594 61.9607834 47.92732198 70.39648438 43.83837891 C74.1042031 40.86255046 76.44511082 37.0618955 78.79003906 32.97558594 C80.81787678 29.66459668 83.41742745 26.88406411 86 24 C86.98974183 22.85002822 87.9767185 21.69767086 88.9609375 20.54296875 C91.08665091 18.06250696 93.21771312 15.58674675 95.3515625 13.11328125 C95.89941406 12.47712891 96.44726562 11.84097656 97.01171875 11.18554688 C98.06244955 9.96563061 99.11446891 8.74682264 100.16796875 7.52929688 C102.27054576 5.08583886 104.2091802 2.6862297 106 0 C112.47993108 -0.83950524 118.49853285 1.22329239 124.6875 3 C126.34700684 3.47312622 126.34700684 3.47312622 128.04003906 3.95581055 C144.86423224 8.88082077 160.81705609 15.8443639 176.45605469 23.7265625 C178.15417517 24.57660055 179.8607408 25.40996983 181.57519531 26.2265625 C184.01473507 27.3958819 186.41373955 28.62455793 188.8125 29.875 C189.90727661 30.38135986 189.90727661 30.38135986 191.02416992 30.89794922 C193.19135976 32.08641672 194.52280161 33.01238754 196 35 C196.84107732 39.04878085 196.39338096 42.90817263 196 47 C195.89431064 48.36764156 195.79132555 49.73549409 195.69067383 51.10351562 C195.279636 56.45665022 194.78156447 61.80127191 194.28173828 67.14672852 C193.79243512 72.42754123 193.36469565 77.70913501 193 83 C192.91874374 84.06403549 192.91874374 84.06403549 192.83584595 85.14956665 C192.10332057 92.89427638 192.10332057 92.89427638 194.14404297 100.19506836 C195.71259321 101.92821335 197.27670621 103.22061569 199.1875 104.5625 C200.35064562 105.476678 201.51083924 106.39462512 202.66796875 107.31640625 C203.53881104 107.96246826 203.53881104 107.96246826 204.42724609 108.62158203 C206 110 206 110 207.98828125 113.33984375 C209.9054338 115.72155045 210.89689188 115.98515466 213.98608398 116.42993164 C218.01908758 116.47277001 221.97982719 116.29451815 226 116 C226.73742432 115.95069336 227.47484863 115.90138672 228.23461914 115.85058594 C233.74661192 115.47440529 239.24781246 114.9973666 244.75 114.5 C264.6201277 112.71969391 264.6201277 112.71969391 274 113 C277.02764726 118.318066 280.02616391 123.65165265 283 129 C283.38961914 129.69963867 283.77923828 130.39927734 284.18066406 131.12011719 C313.41528693 183.95286752 313.41528693 183.95286752 309 203 C307.0018376 205.71200406 304.531272 207.64057879 301.875 209.6875 C301.20984375 210.22955078 300.5446875 210.77160156 299.859375 211.33007812 C298.54647791 212.3971288 297.22465 213.45329752 295.89355469 214.49755859 C294.09926038 215.92124183 292.36562704 217.39714774 290.6328125 218.89453125 C288 221 288 221 286 221 C286 221.66 286 222.32 286 223 C284.28667246 224.58533702 282.50310953 226.09541215 280.6875 227.5625 C279.70136719 228.36816406 278.71523438 229.17382812 277.69921875 230.00390625 C275 232 275 232 272 233 C272 233.66 272 234.32 272 235 C266.52380952 240 266.52380952 240 264 240 C261.52283737 258.6185283 261.52283737 258.6185283 266.8359375 275.51953125 C269.68048062 278.17323396 272.82710474 280.20778081 276.24707031 282.04638672 C278.63662811 283.34633279 280.7314138 284.95733637 282.875 286.625 C283.90625 287.40875 284.9375 288.1925 286 289 C286 289.66 286 290.32 286 291 C286.55171875 291.2475 287.1034375 291.495 287.671875 291.75 C290.45136707 293.24234474 292.7814707 295.03672523 295.25 297 C296.14203125 297.70125 297.0340625 298.4025 297.953125 299.125 C298.62859375 299.74375 299.3040625 300.3625 300 301 C300 301.66 300 302.32 300 303 C300.8353125 303.37125 300.8353125 303.37125 301.6875 303.75 C304.54767125 305.29603851 306.71880901 306.65544259 309 309 C309.73473872 315.52517956 307.78894122 321.45450726 306 327.6875 C305.68603271 328.7909375 305.37206543 329.894375 305.04858398 331.03125 C302.04064009 341.32131108 298.32402501 351.19666026 294 361 C293.6685498 361.75249023 293.33709961 362.50498047 292.99560547 363.28027344 C288.572541 373.20677962 283.59614938 382.68527641 278 392 C277.58363281 392.79921875 277.16726563 393.5984375 276.73828125 394.421875 C275.625 396.375 275.625 396.375 273 399 C263.5547403 400.60033442 252.5641427 398.17158763 243.03857422 397.28173828 C238.43973422 396.85557975 233.84118761 396.47233031 229.23327637 396.15792847 C227.75393299 396.05331516 226.27538538 395.93670317 224.79797363 395.80764771 C217.62708978 395.20865584 211.52161385 394.82965383 205.5 399.33984375 C203.95837462 400.83051711 202.45755913 402.36452916 201 403.9375 C199.82050781 405.01161133 199.82050781 405.01161133 198.6171875 406.10742188 C193.85942127 410.97708678 192.33252632 415.18551054 192.40625 421.9375 C192.52090655 424.96699118 192.74934235 427.97909262 193 431 C193.10586088 432.56767623 193.21001516 434.13546859 193.3125 435.70336914 C193.64634037 440.49565619 194.06696734 445.2783125 194.5 450.0625 C194.71672838 452.50493674 194.9312576 454.94752419 195.14196777 457.39048767 C195.27171955 458.89013913 195.40497594 460.38949371 195.54260254 461.88844299 C196.70554409 475.15726678 196.70554409 475.15726678 194.453125 477.84765625 C193.72609375 478.24855469 192.9990625 478.64945312 192.25 479.0625 C190.99509766 479.78373047 190.99509766 479.78373047 189.71484375 480.51953125 C188.81894531 481.00808594 187.92304688 481.49664062 187 482 C186.17628906 482.51949219 185.35257812 483.03898437 184.50390625 483.57421875 C166.03807589 495.07181124 128.20689295 516.36206826 106 512 C103.53903521 509.95803568 101.63982233 507.74546011 100 505 C100 504.34 100 503.68 100 503 C99.34 503 98.68 503 98 503 C96.41466298 501.28667246 94.90458785 499.50310953 93.4375 497.6875 C92.63183594 496.70136719 91.82617188 495.71523438 90.99609375 494.69921875 C89 492 89 492 88 489 C87.34 489 86.68 489 86 489 C84.41466298 487.28667246 82.90458785 485.50310953 81.4375 483.6875 C80.63183594 482.70136719 79.82617188 481.71523438 78.99609375 480.69921875 C77 478 77 478 76 475 C75.34 475 74.68 475 74 475 C73.25475442 473.69656251 72.52903238 472.38193989 71.8125 471.0625 C69.60789913 468.03384929 68.48141086 467.11859146 64.796875 466.2109375 C61.53456548 465.97206546 58.32955162 465.87571177 55.05957031 465.95703125 C53.00107296 465.99997761 50.95650585 465.95743104 48.8984375 465.90625 C41.83742414 465.76278015 41.83742414 465.76278015 35.796875 468.8515625 C34.15692655 471.00278602 34.15692655 471.00278602 32.98046875 473.28515625 C32.65691406 473.85105469 32.33335937 474.41695313 32 475 C31.34 475 30.68 475 30 475 C29.7525 475.55171875 29.505 476.1034375 29.25 476.671875 C27.75765526 479.45136707 25.96327477 481.7814707 24 484.25 C23.29875 485.14203125 22.5975 486.0340625 21.875 486.953125 C20.946875 487.96632813 20.946875 487.96632813 20 489 C19.34 489 18.68 489 18 489 C17.72526855 489.59240479 17.45053711 490.18480957 17.16748047 490.79516602 C16.05026428 492.90507388 14.8862591 494.48680246 13.3203125 496.27734375 C12.54494141 497.17163086 12.54494141 497.17163086 11.75390625 498.08398438 C11.21636719 498.69564453 10.67882812 499.30730469 10.125 499.9375 C9.06434446 501.1542861 8.00443424 502.37172235 6.9453125 503.58984375 C6.4287207 504.16589355 5.91212891 504.74194336 5.37988281 505.33544922 C3.810222 507.12875517 3.810222 507.12875517 2.3046875 510.00390625 C-0.52000301 512.45037549 -1.33768396 512.26341463 -4.9765625 512.03125 C-11.29188279 511.13534112 -17.3058484 509.42671479 -23.375 507.5 C-24.50405762 507.14615234 -25.63311523 506.79230469 -26.79638672 506.42773438 C-37.51982116 502.98053884 -47.80642911 498.77690351 -58 494 C-58.72896484 493.6596875 -59.45792969 493.319375 -60.20898438 492.96875 C-84.48849258 481.51150742 -84.48849258 481.51150742 -90 476 C-89.98079036 473.23381161 -89.88771095 470.50991093 -89.734375 467.75 C-89.66751495 466.47648682 -89.66751495 466.47648682 -89.5993042 465.17724609 C-89.22566732 458.93769566 -88.4736667 452.80815419 -87.578125 446.625 C-84.11670457 426.7176855 -84.11670457 426.7176855 -89.47265625 408.0546875 C-94.80386986 401.74381596 -100.15648972 396.62216861 -108.59594727 395.53808594 C-112.77098742 395.47268467 -116.84179379 395.66693515 -121 396 C-122.49209498 396.10286355 -123.98420126 396.20556322 -125.47631836 396.30810547 C-130.09396023 396.64794946 -134.70270569 397.0679677 -139.3125 397.5 C-158.52444928 399.28002722 -158.52444928 399.28002722 -168 399 C-171.02766121 393.6819095 -174.02179872 388.34592836 -177 383 C-177.38961914 382.30567871 -177.77923828 381.61135742 -178.18066406 380.89599609 C-188.2561527 362.85595025 -195.22045933 343.80858084 -201 324 C-201.31565918 322.92588867 -201.31565918 322.92588867 -201.63769531 321.83007812 C-202.83778452 317.45427123 -203.59310988 313.51841887 -203 309 C-200.9453125 306.6640625 -200.9453125 306.6640625 -198.125 304.625 C-194.2598521 301.70883982 -190.55929447 298.78462223 -187 295.5 C-182.71029191 291.59039263 -178.26299868 287.92492365 -173.75 284.27734375 C-170.09162676 281.24775341 -166.58803001 278.06398217 -163.09375 274.84765625 C-161 273 -161 273 -158 271 C-157.39164226 266.9293086 -157.48514876 262.84599751 -157.49902344 258.73364258 C-157.49999192 256.70443073 -157.45848034 254.67905191 -157.4140625 252.65039062 C-157.41148437 251.36712891 -157.40890625 250.08386719 -157.40625 248.76171875 C-157.39916016 247.58569092 -157.39207031 246.40966309 -157.38476562 245.19799805 C-158.17905992 241.06924371 -159.81106998 239.64990215 -163 237 C-163.99 236.34 -164.98 235.68 -166 235 C-166 234.34 -166 233.68 -166 233 C-166.82757813 232.62875 -166.82757813 232.62875 -167.671875 232.25 C-170.45136707 230.75765526 -172.7814707 228.96327477 -175.25 227 C-176.14203125 226.29875 -177.0340625 225.5975 -177.953125 224.875 C-178.96632812 223.946875 -178.96632812 223.946875 -180 223 C-180 222.34 -180 221.68 -180 221 C-180.82757813 220.62875 -180.82757813 220.62875 -181.671875 220.25 C-184.45136707 218.75765526 -186.7814707 216.96327477 -189.25 215 C-190.14203125 214.29875 -191.0340625 213.5975 -191.953125 212.875 C-192.96632812 211.946875 -192.96632812 211.946875 -194 211 C-194 210.34 -194 209.68 -194 209 C-194.8353125 208.62875 -194.8353125 208.62875 -195.6875 208.25 C-198.54767125 206.70396149 -200.71880901 205.34455741 -203 203 C-203.73473872 196.47482044 -201.78894122 190.54549274 -200 184.3125 C-199.68603271 183.2090625 -199.37206543 182.105625 -199.04858398 180.96875 C-196.04064009 170.67868892 -192.32402501 160.80333974 -188 151 C-187.6685498 150.24750977 -187.33709961 149.49501953 -186.99560547 148.71972656 C-182.57018637 138.78793598 -177.52724518 129.35915886 -172 120 C-170.65985854 117.67048454 -169.32957283 115.33557704 -168 113 C-157.38358593 112.68274136 -146.89411085 113.76381849 -136.33544922 114.71826172 C-131.63059539 115.14006301 -126.92590936 115.52229622 -122.21292114 115.84152222 C-120.7675668 115.9450309 -119.32309987 116.06206258 -117.88009644 116.19436646 C-110.77711845 116.82958523 -105.41915535 117.06046081 -99.59765625 112.58984375 C-98.04677614 111.07822642 -96.53450711 109.52602483 -95.0625 107.9375 C-94.27166016 107.20466797 -93.48082031 106.47183594 -92.66601562 105.71679688 C-88.11551729 101.04810378 -86.48899644 97.56840648 -86.40234375 91.015625 C-86.55472612 88.32893648 -86.75170327 85.67652883 -87 83 C-87.10688454 81.53998554 -87.21107279 80.07977152 -87.31274414 78.61938477 C-87.65137541 74.01151057 -88.06986776 69.41260557 -88.5 64.8125 C-89.42519204 54.84960984 -90.26439298 45.02122842 -90 35 C-84.681934 31.97235274 -79.34834735 28.97383609 -74 26 C-73.30036133 25.61038086 -72.60072266 25.22076172 -71.87988281 24.81933594 C-22.58409703 -2.45813301 -22.58409703 -2.45813301 0 0 Z M24 171 C22.96359375 171.37382812 21.9271875 171.74765625 20.859375 172.1328125 C13.5667702 174.95635949 6.40526534 178.49132919 0 183 C0 183.66 0 184.32 0 185 C-0.58394531 185.26941406 -1.16789062 185.53882813 -1.76953125 185.81640625 C-16.17292708 193.45953924 -25.70085604 210.4461299 -31.3125 225.125 C-31.55508545 225.75752686 -31.7976709 226.39005371 -32.04760742 227.04174805 C-35.43189081 236.36916323 -36.36446517 245.42782142 -36.3125 255.3125 C-36.30758545 256.41827393 -36.3026709 257.52404785 -36.29760742 258.66333008 C-36.18412533 266.56110152 -35.50921742 273.47234773 -33 281 C-32.68289062 282.09570312 -32.36578125 283.19140625 -32.0390625 284.3203125 C-26.18985988 302.86352931 -14.32207305 317.34286085 1 329 C1.72960937 329.556875 2.45921875 330.11375 3.2109375 330.6875 C22.07238083 344.14994282 47.18228537 348.05637815 69.75 344.3046875 C85.06260372 341.2530533 97.80308617 334.52883893 110 325 C110.78375 324.39027344 111.5675 323.78054688 112.375 323.15234375 C117.71004031 318.74468349 121.88474776 313.53844364 126 308 C126.53625 307.29101562 127.0725 306.58203125 127.625 305.8515625 C141.09053045 286.98579327 144.57369697 263.14859961 141.68652344 240.54589844 C137.81152985 218.11850586 124.65826861 197.08590332 106.25 183.75 C82.77919595 167.42095794 51.38705659 160.57656802 24 171 Z " fill="#6B8FB7" transform="translate(203,0)"/>
<path d="M0 0 C6.47993108 -0.83950524 12.49853285 1.22329239 18.6875 3 C20.34700684 3.47312622 20.34700684 3.47312622 22.04003906 3.95581055 C38.86423224 8.88082077 54.81705609 15.8443639 70.45605469 23.7265625 C72.15417517 24.57660055 73.8607408 25.40996983 75.57519531 26.2265625 C78.01473507 27.3958819 80.41373955 28.62455793 82.8125 29.875 C83.90727661 30.38135986 83.90727661 30.38135986 85.02416992 30.89794922 C87.19135976 32.08641672 88.52280161 33.01238754 90 35 C90.84107732 39.04878085 90.39338096 42.90817263 90 47 C89.89431064 48.36764156 89.79132555 49.73549409 89.69067383 51.10351562 C89.279636 56.45665022 88.78156447 61.80127191 88.28173828 67.14672852 C87.79243512 72.42754123 87.36469565 77.70913501 87 83 C86.94582916 83.70935699 86.89165833 84.41871399 86.83584595 85.14956665 C86.10332057 92.89427638 86.10332057 92.89427638 88.14404297 100.19506836 C89.71259321 101.92821335 91.27670621 103.22061569 93.1875 104.5625 C94.35064562 105.476678 95.51083924 106.39462512 96.66796875 107.31640625 C97.53881104 107.96246826 97.53881104 107.96246826 98.42724609 108.62158203 C100 110 100 110 101.98828125 113.33984375 C103.9054338 115.72155045 104.89689188 115.98515466 107.98608398 116.42993164 C112.01908758 116.47277001 115.97982719 116.29451815 120 116 C120.73742432 115.95069336 121.47484863 115.90138672 122.23461914 115.85058594 C127.74661192 115.47440529 133.24781246 114.9973666 138.75 114.5 C158.6201277 112.71969391 158.6201277 112.71969391 168 113 C171.02764726 118.318066 174.02616391 123.65165265 177 129 C177.38961914 129.69963867 177.77923828 130.39927734 178.18066406 131.12011719 C207.41528693 183.95286752 207.41528693 183.95286752 203 203 C201.0018376 205.71200406 198.531272 207.64057879 195.875 209.6875 C195.20984375 210.22955078 194.5446875 210.77160156 193.859375 211.33007812 C192.54647791 212.3971288 191.22465 213.45329752 189.89355469 214.49755859 C188.09926038 215.92124183 186.36562704 217.39714774 184.6328125 218.89453125 C182 221 182 221 180 221 C180 221.66 180 222.32 180 223 C178.28667246 224.58533702 176.50310953 226.09541215 174.6875 227.5625 C173.70136719 228.36816406 172.71523438 229.17382812 171.69921875 230.00390625 C169 232 169 232 166 233 C166 233.66 166 234.32 166 235 C160.52380952 240 160.52380952 240 158 240 C155.52283737 258.6185283 155.52283737 258.6185283 160.8359375 275.51953125 C163.68048062 278.17323396 166.82710474 280.20778081 170.24707031 282.04638672 C172.63662811 283.34633279 174.7314138 284.95733637 176.875 286.625 C177.90625 287.40875 178.9375 288.1925 180 289 C180 289.66 180 290.32 180 291 C180.55171875 291.2475 181.1034375 291.495 181.671875 291.75 C184.45136707 293.24234474 186.7814707 295.03672523 189.25 297 C190.14203125 297.70125 191.0340625 298.4025 191.953125 299.125 C192.62859375 299.74375 193.3040625 300.3625 194 301 C194 301.66 194 302.32 194 303 C194.556875 303.2475 195.11375 303.495 195.6875 303.75 C198.54767125 305.29603851 200.71880901 306.65544259 203 309 C203.73473872 315.52517956 201.78894122 321.45450726 200 327.6875 C199.68603271 328.7909375 199.37206543 329.894375 199.04858398 331.03125 C196.04064009 341.32131108 192.32402501 351.19666026 188 361 C187.50282471 362.12873535 187.50282471 362.12873535 186.99560547 363.28027344 C182.572541 373.20677962 177.59614938 382.68527641 172 392 C171.58363281 392.79921875 171.16726563 393.5984375 170.73828125 394.421875 C169.625 396.375 169.625 396.375 167 399 C157.5547403 400.60033442 146.5641427 398.17158763 137.03857422 397.28173828 C132.43973422 396.85557975 127.84118761 396.47233031 123.23327637 396.15792847 C121.75393299 396.05331516 120.27538538 395.93670317 118.79797363 395.80764771 C111.62708978 395.20865584 105.52161385 394.82965383 99.5 399.33984375 C97.95837462 400.83051711 96.45755913 402.36452916 95 403.9375 C94.21367187 404.65357422 93.42734375 405.36964844 92.6171875 406.10742188 C87.85942127 410.97708678 86.33252632 415.18551054 86.40625 421.9375 C86.52090655 424.96699118 86.74934235 427.97909262 87 431 C87.10586088 432.56767623 87.21001516 434.13546859 87.3125 435.70336914 C87.64634037 440.49565619 88.06696734 445.2783125 88.5 450.0625 C88.71672838 452.50493674 88.9312576 454.94752419 89.14196777 457.39048767 C89.27171955 458.89013913 89.40497594 460.38949371 89.54260254 461.88844299 C90.70554409 475.15726678 90.70554409 475.15726678 88.453125 477.84765625 C87.72609375 478.24855469 86.9990625 478.64945312 86.25 479.0625 C84.99509766 479.78373047 84.99509766 479.78373047 83.71484375 480.51953125 C82.81894531 481.00808594 81.92304688 481.49664062 81 482 C80.17628906 482.51949219 79.35257813 483.03898437 78.50390625 483.57421875 C60.03807589 495.07181124 22.20689295 516.36206826 0 512 C-2.46096479 509.95803568 -4.36017767 507.74546011 -6 505 C-6 504.34 -6 503.68 -6 503 C-6.66 503 -7.32 503 -8 503 C-9.58533702 501.28667246 -11.09541215 499.50310953 -12.5625 497.6875 C-13.36816406 496.70136719 -14.17382812 495.71523438 -15.00390625 494.69921875 C-17 492 -17 492 -18 489 C-18.66 489 -19.32 489 -20 489 C-21.58533702 487.28667246 -23.09541215 485.50310953 -24.5625 483.6875 C-25.36816406 482.70136719 -26.17382812 481.71523438 -27.00390625 480.69921875 C-29 478 -29 478 -30 475 C-30.66 475 -31.32 475 -32 475 C-32.74279664 473.67421157 -33.46909511 472.33916251 -34.1875 471 C-35.445625 469.68 -36.70375 468.36 -38 467 C-42.95 467 -47.9 467 -53 467 C-53 446.87 -53 426.74 -53 406 C-40.625 404.515 -40.625 404.515 -28 403 C3.26980248 396.46337462 28.93094472 384.24516045 52 362 C52.77859375 361.28457031 53.5571875 360.56914062 54.359375 359.83203125 C69.26972312 345.74122354 79.66235873 326.96630084 87 308 C87.44085938 306.90171875 87.88171875 305.8034375 88.3359375 304.671875 C101.0467076 270.31427825 98.90233122 229.3433941 84 196 C76.90365012 180.8381671 68.41324468 167.22528818 56.8125 155.0859375 C55 153 55 153 54 150.8515625 C52.70602926 148.45569481 51.43475474 148.15376666 49 147 C47.40680029 145.55395195 45.84830117 144.06936928 44.3125 142.5625 C21.02292265 120.78191481 -9.95926871 110.37533559 -41.0925293 107.29370117 C-45.06482772 106.89243532 -49.03190515 106.44089943 -53 106 C-53 85.87 -53 65.74 -53 45 C-48.05 45 -43.1 45 -38 45 C-34.84850828 42.79160644 -33.77056915 41.87674208 -31.8125 38.875 C-30.8410933 37.57979106 -29.86839974 36.28554644 -28.89453125 34.9921875 C-28.41838379 34.32670898 -27.94223633 33.66123047 -27.45166016 32.97558594 C-25.14184129 29.83211903 -22.56913383 26.93192338 -20 24 C-19.01166496 22.84881894 -18.02469127 21.69646774 -17.0390625 20.54296875 C-14.91334909 18.06250696 -12.78228688 15.58674675 -10.6484375 13.11328125 C-10.10058594 12.47712891 -9.55273438 11.84097656 -8.98828125 11.18554688 C-7.93755045 9.96563061 -6.88553109 8.74682264 -5.83203125 7.52929688 C-3.72945424 5.08583886 -1.7908198 2.6862297 0 0 Z " fill="#5779A0" transform="translate(309,0)"/>
<path d="M0 0 C5.82366864 4.64198519 11.1522356 9.78749949 16.41113281 15.05419922 C17.7334065 16.37429094 19.06829477 17.68300743 20.44628906 18.94482422 C44.65028311 41.40662846 58.24285151 78.92962005 59.92041016 111.14624023 C61.33578711 151.11806589 49.54313063 189.86585321 22.27832031 219.66748047 C20.46066356 221.59994658 18.62082272 223.50841367 16.77832031 225.41748047 C15.98941406 226.26955078 15.20050781 227.12162109 14.38769531 227.99951172 C-11.07821347 254.77244562 -49.16185349 269.35507627 -85.68261719 270.66357422 C-125.33094524 271.45753768 -163.66562773 257.61434219 -192.42089844 230.12060547 C-193.34515625 229.22857422 -194.26941406 228.33654297 -195.22167969 227.41748047 C-196.07375 226.62857422 -196.92582031 225.83966797 -197.80371094 225.02685547 C-218.11472904 205.70739888 -231.58639337 178.66830949 -237.22167969 151.41748047 C-237.51945312 150.17869141 -237.81722656 148.93990234 -238.12402344 147.66357422 C-242.3393296 128.9249443 -241.98927856 107.99679281 -237.22167969 89.41748047 C-236.92492639 88.09019595 -236.63207492 86.76203412 -236.34277344 85.43310547 C-230.57589031 59.7086765 -217.44898962 36.36809635 -199.22167969 17.41748047 C-198.74891602 16.91361816 -198.27615234 16.40975586 -197.7890625 15.890625 C-174.01258416 -9.39752081 -143.22255772 -23.41606168 -109.22167969 -28.58251953 C-107.53751953 -28.86095703 -107.53751953 -28.86095703 -105.81933594 -29.14501953 C-68.81038518 -33.64556512 -29.55112692 -22.54717745 0 0 Z M-119.22167969 35.41748047 C-120.25808594 35.79130859 -121.29449219 36.16513672 -122.36230469 36.55029297 C-129.65490948 39.37383995 -136.81641435 42.90880966 -143.22167969 47.41748047 C-143.22167969 48.07748047 -143.22167969 48.73748047 -143.22167969 49.41748047 C-143.805625 49.68689453 -144.38957031 49.95630859 -144.99121094 50.23388672 C-159.39460677 57.87701971 -168.92253572 74.86361037 -174.53417969 89.54248047 C-174.77676514 90.17500732 -175.01935059 90.80753418 -175.26928711 91.45922852 C-178.65357049 100.7866437 -179.58614485 109.84530188 -179.53417969 119.72998047 C-179.52926514 120.83575439 -179.52435059 121.94152832 -179.51928711 123.08081055 C-179.40580502 130.97858199 -178.73089711 137.88982819 -176.22167969 145.41748047 C-175.90457031 146.51318359 -175.58746094 147.60888672 -175.26074219 148.73779297 C-169.41153957 167.28100978 -157.54375274 181.76034132 -142.22167969 193.41748047 C-141.49207031 193.97435547 -140.76246094 194.53123047 -140.01074219 195.10498047 C-121.14929886 208.56742329 -96.03939431 212.47385862 -73.47167969 208.72216797 C-58.15907596 205.67053377 -45.41859351 198.9463194 -33.22167969 189.41748047 C-32.43792969 188.80775391 -31.65417969 188.19802734 -30.84667969 187.56982422 C-25.51163937 183.16216396 -21.33693193 177.95592411 -17.22167969 172.41748047 C-16.68542969 171.70849609 -16.14917969 170.99951172 -15.59667969 170.26904297 C-2.13114923 151.40327374 1.35201728 127.56608008 -1.53515625 104.96337891 C-5.41014984 82.53598632 -18.56341108 61.50338379 -36.97167969 48.16748047 C-60.44248374 31.83843841 -91.8346231 24.99404848 -119.22167969 35.41748047 Z " fill="#96BDDA" transform="translate(346.2216796875,135.58251953125)"/>
<path d="M0 0 C39.31076803 0 75.92833791 14.4012143 104 42 C104.86882812 42.87011719 105.73765625 43.74023438 106.6328125 44.63671875 C107.95508619 45.95681047 109.28997446 47.26552696 110.66796875 48.52734375 C134.8719628 70.98914799 148.4645312 108.51213958 150.14208984 140.72875977 C151.55746679 180.70058542 139.76481032 219.44837274 112.5 249.25 C110.68234325 251.18246611 108.8425024 253.0909332 107 255 C105.81664062 256.27810547 105.81664062 256.27810547 104.609375 257.58203125 C80.09784502 283.35160333 44.8748329 296.78598953 10 300 C6.7 300 3.4 300 0 300 C0 279.87 0 259.74 0 239 C8.415 238.01 8.415 238.01 17 237 C21.81625205 235.80622812 26.33472334 234.59233994 31 233 C32.00417969 232.66355469 33.00835937 232.32710937 34.04296875 231.98046875 C42.72630312 228.73425524 49.71871454 223.60868056 57 218 C57.71285156 217.46246094 58.42570312 216.92492187 59.16015625 216.37109375 C64.25489814 212.2976213 68.11570003 207.20289668 72 202 C72.53753906 201.28972656 73.07507813 200.57945312 73.62890625 199.84765625 C87.08800155 180.97680984 90.57400598 157.15101878 87.68652344 134.54589844 C83.90558682 112.66288162 71.29770249 91.86368704 53.3125 78.8125 C36.49289007 67.07762423 20.63002543 63.29222505 0 61 C0 40.87 0 20.74 0 0 Z " fill="#80A5C6" transform="translate(256,106)"/>
<path d="M0 0 C0 3 0 3 -1.6796875 4.82421875 C-2.40414063 5.43910156 -3.12859375 6.05398437 -3.875 6.6875 C-4.59429687 7.31011719 -5.31359375 7.93273437 -6.0546875 8.57421875 C-8 10 -8 10 -10 10 C-8.78934835 6.36804504 -7.46308874 5.57103808 -4.4375 3.3125 C-3.61121094 2.68988281 -2.78492188 2.06726563 -1.93359375 1.42578125 C-1.29550781 0.95527344 -0.65742188 0.48476562 0 0 Z " fill="#4D6CA0" transform="translate(511,201)"/>
<path d="M0 0 C0.66 0.33 1.32 0.66 2 1 C-1.96 4.465 -1.96 4.465 -6 8 C-6 5 -6 5 -4.6875 3.61328125 C-3.125 2.40885417 -1.5625 1.20442708 0 0 Z " fill="#6687B1" transform="translate(44,272)"/>
</svg>
